<?xml version="1.0" standalone="no"?>
<!DOCTYPE svg PUBLIC "-//W3C//DTD SVG 1.1//EN" "http://www.w3.org/Graphics/SVG/1.1/DTD/svg11.dtd" >
<svg>
<metadata>
Created by FontForge 20090914 at Fri Jun 21 06:45:00 2013
 By www-data
Copyright (c) 2012 by Maximiliano R. Sproviero. All rights reserved.
</metadata>
<defs>
<font id="VNF-AireRomanStd" horiz-adv-x="461" >
  <font-face 
    font-family="VNF-Aire Roman Std"
    font-weight="400"
    font-stretch="normal"
    units-per-em="1000"
    panose-1="2 0 0 0 0 0 0 0 0 0"
    ascent="750"
    descent="-250"
    x-height="455"
    cap-height="694"
    bbox="-230.999 -400.997 2016 1001.06"
    underline-thickness="50"
    underline-position="-50"
    unicode-range="U+000D-U+FB04"
  />
<missing-glyph horiz-adv-x="279" 
 />
    <glyph glyph-name=".notdef" horiz-adv-x="279" 
 />
    <glyph glyph-name=".null" horiz-adv-x="500" 
 />
    <glyph glyph-name=".null" horiz-adv-x="500" 
 />
    <glyph glyph-name="nonmarkingreturn" unicode="&#xd;" horiz-adv-x="500" 
 />
    <glyph glyph-name="_32" unicode=" " horiz-adv-x="230" 
 />
    <glyph glyph-name="exclam" unicode="!" horiz-adv-x="188" 
d="M85 194v21c-2 76.667 -5 152.667 -9 228s-7.66699 151.333 -11 228v2c0 6.66699 2.16699 11.834 6.5 15.501s9.83301 5.5 16.5 5.5c6 0 11.167 -1.83301 15.5 -5.5s6.5 -8.83398 6.5 -15.501v-2c-3.33301 -80 -7 -159.5 -11 -238.5s-6.66699 -158.5 -8 -238.5v-106
c0 -2.66699 -1 -4 -3 -4s-3 1.33301 -3 4v106zM60 21c0 8 2.66699 14.667 8 20s12 8 20 8c7.33301 0 13.666 -2.66699 18.999 -8s8 -12 8 -20c0 -7.33301 -2.66699 -13.666 -8 -18.999s-11.666 -8 -18.999 -8c-8 0 -14.667 2.66699 -20 8s-8 11.666 -8 18.999z" />
    <glyph glyph-name="quotedbl" unicode="&#x22;" horiz-adv-x="160" 
d="M69 665c0 -8 -2.66699 -16.5 -8 -25.5s-8 -18.833 -8 -29.5v-12c0 -0.666992 -0.333008 -1 -1 -1s-1 0.333008 -1 1v12c0 10.667 -2.66699 20.5 -8 29.5s-8 17.5 -8 25.5c0 3.33301 1 7.33301 3 12s6.66699 7 14 7s12 -2.33301 14 -7s3 -8.66699 3 -12zM125 665
c0 -8 -2.66699 -16.5 -8 -25.5s-8 -18.833 -8 -29.5v-12c0 -0.666992 -0.333008 -1 -1 -1s-1 0.333008 -1 1v12c0 10.667 -2.66699 20.5 -8 29.5s-8 17.5 -8 25.5c0 3.33301 1 7.33301 3 12s6.66699 7 14 7s12 -2.33301 14 -7s3 -8.66699 3 -12z" />
    <glyph glyph-name="numbersign" unicode="#" horiz-adv-x="532" 
d="M219 314l-0.00488281 -130.008c0 -5.33301 -1.5 -9.16602 -4.5 -11.499s-6.5 -3.5 -10.5 -3.5c-4.66699 0 -8.83398 1.16699 -12.501 3.5s-5.5 5.83301 -5.5 10.5c0 0.666992 0.166992 1.33398 0.5 2.00098s0.5 1.33398 0.5 2.00098l27 90v37
c-21.333 -1.33301 -42.666 -3.16602 -63.999 -5.49902s-42.666 -4.16602 -63.999 -5.49902c-5.33301 0 -9.33301 1.66699 -12 5s-4 6.66602 -4 9.99902c0 4 1.33301 7.66699 4 11s6.66699 5 12 5l128 -12v93c-21.333 -1.33301 -42.666 -3.16602 -63.999 -5.49902
s-42.666 -4.16602 -63.999 -5.49902c-5.33301 0 -9.5 1.66699 -12.5 5s-4.5 6.66602 -4.5 9.99902c0 4 1.5 7.66699 4.5 11s7.16699 5 12.5 5l128 -12v48l-27 91c-0.666992 1.33301 -1 3 -1 5c0 4.66699 1.66699 8.16699 5 10.5s7 3.5 11 3.5s7.83301 -1.33301 11.5 -4
s5.5 -6.66699 5.5 -12v-143h84c2.66699 0 5.33398 0.166992 8.00098 0.5s5.33398 0.5 8.00098 0.5v142c0 5.33301 1.5 9.16602 4.5 11.499s6.5 3.5 10.5 3.5s7.66699 -1.16699 11 -3.5s5 -5.5 5 -9.5c0 -1.33301 -0.166992 -2.16602 -0.5 -2.49902
s-0.5 -1.16602 -0.5 -2.49902l-25 -91v-48l122 12c5.33301 0 9.33301 -1.66699 12 -5s4 -7 4 -11c0 -3.33301 -1.33301 -6.66602 -4 -9.99902s-6.66699 -5 -12 -5l-122 10v-92l122 12c5.33301 0 9.33301 -1.66699 12 -5s4 -6.66602 4 -9.99902
c0 -4 -1.33301 -7.66699 -4 -11s-6.66699 -5 -12 -5l-122 10v-36l25 -90c0 -0.666992 0.166992 -1.16699 0.5 -1.5s0.5 -0.833008 0.5 -1.5c0 -3.33301 -2 -6.66602 -6 -9.99902s-7.66699 -5 -11 -5s-6.5 1.16699 -9.5 3.5s-4.5 6.16602 -4.5 11.499v130l-16 2h-74z
M218.995 414.992l-0.00195312 -94h84c2.66699 0 5.33398 0.166992 8.00098 0.5s5.33398 0.5 8.00098 0.5v93l-16 2h-74z" />
    <glyph glyph-name="dollar" unicode="$" horiz-adv-x="464" 
d="M262 -14c0 -3.33301 -1.67285 -5.00293 -5.00586 -5.00293s-5 1.66699 -5 5l1 139h-31l1 -139c0 -3.33301 -1.66699 -5 -5 -5s-5 1.66699 -5 5l1 140c-25.333 2 -47.5 7.5 -66.5 16.5s-35 20.167 -48 33.5s-22.667 28 -29 44s-8.83301 32.667 -7.5 50
c0.666992 9.33301 3.5 16 8.5 20s10.167 5.66699 15.5 5s9.83301 -3.33398 13.5 -8.00098s4.5 -11 2.5 -19c-4 -14 -5 -28.5 -3 -43.5s7.5 -29 16.5 -42s21.5 -24.167 37.5 -33.5s36 -15.333 60 -18l1 100v138c-16 5.33301 -31.333 11.166 -46 17.499
s-27.667 13.833 -39 22.5s-20.5 19 -27.5 31s-10.5 26.333 -10.5 43c-0.666992 28.667 10.333 53.334 33 74.001s52.334 33.334 89.001 38.001l-1 152c0 3.33301 1.66699 5 5 5s5 -1.66699 5 -5l-1 -151c3.33301 0 6.33301 0.166992 9 0.5s5.66699 0.5 9 0.5
c2 0 4 -0.166992 6 -0.5s4.33301 -0.5 7 -0.5l-1 151c0 3.33301 1.66699 5 5 5s5 -1.66699 5 -5l-1 -151c20 -2 38.333 -6.33301 55 -13s30.834 -15.167 42.501 -25.5s20.334 -22.5 26.001 -36.5s7.83398 -29 6.50098 -45c-0.666992 -9.33301 -3.5 -15.833 -8.5 -19.5
s-10.333 -5.16699 -16 -4.5s-10.167 3.16699 -13.5 7.5s-4 10.5 -2 18.5c4 13.333 5.5 26.333 4.5 39s-5 24.167 -12 34.5s-17.333 19 -31 26s-30.834 11.5 -51.501 13.5l-1 -113v-79c18.667 -6 36.834 -12.667 54.501 -20s33.5 -16.166 47.5 -26.499
s25.167 -22.666 33.5 -36.999s12.5 -31.5 12.5 -51.5c0 -15.333 -3.33301 -30.666 -10 -45.999s-16.167 -29.5 -28.5 -42.5s-27.666 -24 -45.999 -33s-39.166 -14.5 -62.499 -16.5zM381.994 237.997c0 16.667 -3.33301 30.999 -10 42.999s-15.667 22.5 -27 31.5
s-24.333 16.833 -39 23.5s-30 12.667 -46 18v-123l1 -100c17.333 2 33.5 6.33301 48.5 13s27.833 14.834 38.5 24.501s19 20.5 25 32.5s9 24.333 9 37zM213.994 589.996c-28 -3.33301 -51.333 -12.999 -70 -28.999s-28 -36.333 -28 -61c0 -11.333 2.66699 -21.333 8 -30
s12.5 -16.334 21.5 -23.001s19.5 -12.667 31.5 -18s24.667 -10.333 38 -15v64zM253.994 230.997v125c-5.33301 1.33301 -10.833 3 -16.5 5l-16.5 6v-136l1 -101h31zM239.994 591.997c-3.33301 0 -6.33301 -0.166992 -9 -0.5s-5.66699 -0.5 -9 -0.5l-1 -113v-66
c5.33301 -1.33301 10.833 -3 16.5 -5l16.5 -6v77l-1 113c-2 0 -4.16699 0.166992 -6.5 0.5s-4.5 0.5 -6.5 0.5z" />
    <glyph glyph-name="percent" unicode="%" horiz-adv-x="744" 
d="M201 308c-35.333 0 -65.0029 13.501 -89.0029 40.501s-36 68.5 -36 124.5c0 26.667 3.5 49.834 10.5 69.501s16.333 36 28 49s25.167 22.667 40.5 29s31.333 9.5 48 9.5h1c16 -0.666992 31.5 -4.16699 46.5 -10.5s28.167 -16 39.5 -29s20.333 -29.333 27 -49
s10 -42.5 10 -68.5c0 -28 -3.16699 -52.333 -9.5 -73s-15.166 -37.834 -26.499 -51.501s-24.666 -23.834 -39.999 -30.501s-31.666 -10 -48.999 -10h-1zM201.997 313.001c12 0 23.3291 3.00098 33.9961 9.00098s19.834 15.5 27.501 28.5s13.834 29.5 18.501 49.5
s7 44.333 7 73c0 50 -8.5 87.5 -25.5 112.5s-37.167 38.167 -60.5 39.5h-3c-23.333 -1.33301 -43.5 -14.833 -60.5 -40.5s-25.5 -62.834 -25.5 -111.501c0 -28.667 2.33301 -53 7 -73s10.834 -36.5 18.501 -49.5s16.834 -22.5 27.501 -28.5s22 -9 34 -9h1zM149.993 -25.998
c-3.33301 -5.33301 -6.83203 -6.66602 -10.499 -3.99902s-3.83398 6.66699 -0.500977 12l176 263l85 133l169 268c3.33301 5.33301 7 6.66602 11 3.99902s4.33301 -6.66699 1 -12l-177 -263l-85 -133zM526.994 16.002c-35.333 0 -65.0029 13.501 -89.0029 40.501
s-36 68.5 -36 124.5c0 26.667 3.5 49.834 10.5 69.501s16.333 36 28 49s25.167 22.667 40.5 29s31.333 9.5 48 9.5h1c16 -0.666992 31.5 -4.16699 46.5 -10.5s28.167 -16 39.5 -29s20.333 -29.333 27 -49s10 -42.5 10 -68.5c0 -28 -3.16699 -52.333 -9.5 -73
s-15.166 -37.834 -26.499 -51.501s-24.666 -23.834 -39.999 -30.501s-31.666 -10 -48.999 -10h-1zM527.991 21.0029c12 0 23.3291 3.00098 33.9961 9.00098s19.834 15.5 27.501 28.5s13.834 29.5 18.501 49.5s7 44.333 7 73c0 50 -8.5 87.5 -25.5 112.5
s-37.167 38.167 -60.5 39.5h-3c-23.333 -1.33301 -43.5 -14.833 -60.5 -40.5s-25.5 -62.834 -25.5 -111.501c0 -28.667 2.33301 -53 7 -73s10.834 -36.5 18.501 -49.5s16.834 -22.5 27.501 -28.5s22 -9 34 -9h1z" />
    <glyph glyph-name="ampersand" unicode="&#x26;" horiz-adv-x="924" 
d="M852 312c0 24.667 -3.66699 47.8311 -11 69.498s-17.833 40.667 -31.5 57s-30.167 29.166 -49.5 38.499s-41 14 -65 14c-20 0 -39 -2.5 -57 -7.5s-33.833 -12.333 -47.5 -22s-24.5 -21.5 -32.5 -35.5s-12 -29.667 -12 -47c0 -12 -0.666992 -28.333 -2 -49
s-4.16602 -43.334 -8.49902 -68.001s-11 -50.167 -20 -76.5s-20.833 -51.5 -35.5 -75.5c36.667 -47.333 73.334 -79.666 110.001 -96.999s72.667 -26 108 -26c16 0 30 3.33301 42 10s22.333 15 31 25s15.667 20.833 21 32.5s9 22.834 11 33.501
c1.33301 6 3.66602 10.333 6.99902 13s6.66602 4 9.99902 4s6.5 -1.5 9.5 -4.5s4.5 -7.16699 4.5 -12.5c0 -4 -1 -8.33301 -3 -13c-6 -16 -15.333 -30.333 -28 -43s-27.167 -23.5 -43.5 -32.5s-34.166 -15.833 -53.499 -20.5s-38.666 -7 -57.999 -7
c-28 0 -58.167 8.33301 -90.5 25s-65.166 44.334 -98.499 83.001c-23.333 -28.667 -52.666 -52.167 -87.999 -70.5s-79.333 -27.5 -132 -27.5c-22 0 -45 4.33301 -69 13s-46 21.167 -66 37.5s-36.5 36.5 -49.5 60.5s-19.5 51.333 -19.5 82v2
c0 27.333 5.66699 51.833 17 73.5s26.166 41.5 44.499 59.5s39.166 34.667 62.499 50l70 44l-19 29c-18 24.667 -31.833 47.334 -41.5 68.001s-14.5 42.667 -14.5 66c0 16 3 31.667 9 47s15.167 29 27.5 41s27.666 21.667 45.999 29s39.5 11 63.5 11
c18 0 34.833 -3.16699 50.5 -9.5s29 -14.833 40 -25.5s19.667 -22.834 26 -36.501s9.5 -27.834 9.5 -42.501c0 -20 -4.5 -37.5 -13.5 -52.5s-21 -28.833 -36 -41.5s-32 -24.667 -51 -36l-59.5 -34l94.5 -136.5l95.5 -136.5l18 -26c12 18.667 22.167 38.834 30.5 60.501
s15 43.334 20 65.001s8.66699 43 11 64s3.5 40.833 3.5 59.5c0 16.667 -1.5 30 -4.5 40s-7.66699 17.667 -14 23s-14.333 8.66602 -24 9.99902s-21.167 2 -34.5 2h-21l-2 7h24c22.667 0 43.5 2.5 62.5 7.5s37.5 10.333 55.5 16s36 11 54 16s37.667 7.5 59 7.5
c22.667 0 45.667 -3.66699 69 -11s44.333 -18.666 63 -33.999s33.834 -34.5 45.501 -57.5s17.5 -50.167 17.5 -81.5c0 -25.333 -5 -49.333 -15 -72s-23.5 -42.334 -40.5 -59.001s-36.833 -29.834 -59.5 -39.501s-47 -14.5 -73 -14.5c-17.333 0 -34.333 3 -51 9
s-31.5 13.833 -44.5 23.5s-23.5 20 -31.5 31s-12 21.5 -12 31.5c0 5.33301 1.66699 9.5 5 12.5s6.66602 4.5 9.99902 4.5c7.33301 0 12 -4 14 -12c7.33301 -26 20.166 -48.333 38.499 -67s43.5 -28 75.5 -28c20.667 0 40 4.83301 58 14.5s33.5 22.834 46.5 39.501
s23.333 35.834 31 57.501s11.5 44.5 11.5 68.5zM234 397.997c-20.667 -12 -40.5 -24.999 -59.5 -38.999s-36 -29.833 -51 -47.5s-27 -37.834 -36 -60.501s-13.5 -48.667 -13.5 -78c1.33301 -22.667 7 -44.167 17 -64.5s23.333 -38.333 40 -54s36.167 -28.167 58.5 -37.5
s46.166 -14.333 71.499 -15c44.667 0 82.334 8 113.001 24s56.667 36.667 78 62c-4.66699 5.33301 -9 11 -13 17l-13 19zM261 422.998c17.333 10.667 34.165 21.832 50.498 33.499s30.833 24 43.5 37s22.834 27 30.501 42s11.5 31.5 11.5 49.5c0 13.333 -2.5 26.333 -7.5 39
s-11.833 23.834 -20.5 33.501s-19 17.5 -31 23.5s-25.333 9 -40 9c-19.333 0 -36 -3.33301 -50 -10s-25.667 -15.334 -35 -26.001s-16.166 -22.167 -20.499 -34.5s-6.5 -24.166 -6.5 -35.499c0 -24.667 4.83301 -46.667 14.5 -66s23.5 -41.333 41.5 -66z" />
    <glyph glyph-name="quotesingle" unicode="'" horiz-adv-x="107" 
d="M81 665c0 -8 -2.66699 -16.5 -8 -25.5s-8 -18.833 -8 -29.5v-12c0 -0.666992 -0.333008 -1 -1 -1s-1 0.333008 -1 1v12c0 10.667 -2.66699 20.5 -8 29.5s-8 17.5 -8 25.5c0 3.33301 1 7.33301 3 12s6.66699 7 14 7s12 -2.33301 14 -7s3 -8.66699 3 -12z" />
    <glyph glyph-name="parenleft" unicode="(" horiz-adv-x="369" 
d="M136 281c0.666992 -69.333 4.33398 -126.833 11.001 -172.5s16.167 -84.167 28.5 -115.5s27 -57.666 44 -78.999s36.167 -41.666 57.5 -60.999c0.666992 -1.33301 0.833984 -2.33301 0.500977 -3s-1.16602 -0.333984 -2.49902 0.999023
c-59.333 44 -104.833 103.667 -136.5 179s-47.5 160.666 -47.5 255.999s15.833 180.666 47.5 255.999s77.167 135 136.5 179c1.33301 1.33301 2.16602 1.66602 2.49902 0.999023s0.166016 -1.66699 -0.500977 -3c-21.333 -19.333 -40.5 -39.666 -57.5 -60.999
s-31.667 -47.666 -44 -78.999s-21.833 -70 -28.5 -116s-10.334 -103.333 -11.001 -172v-10v0z" />
    <glyph glyph-name="parenright" unicode=")" horiz-adv-x="367" 
d="M237 291c-0.666992 68.667 -4.33398 126 -11.001 172s-16.167 84.667 -28.5 116s-27 57.666 -44 78.999s-35.833 41.666 -56.5 60.999c-1.33301 1.33301 -1.66602 2.33301 -0.999023 3s1.66699 0.333984 3 -0.999023c58.667 -44 103.834 -103.667 135.501 -179
s47.5 -160.666 47.5 -255.999s-15.833 -180.666 -47.5 -255.999s-76.834 -135 -135.501 -179c-1.33301 -1.33301 -2.33301 -1.66602 -3 -0.999023s-0.333984 1.66699 0.999023 3c20.667 19.333 39.5 39.666 56.5 60.999s31.667 47.666 44 78.999s21.833 69.833 28.5 115.5
s10.334 103.167 11.001 172.5v10z" />
    <glyph glyph-name="asterisk" unicode="*" horiz-adv-x="307" 
d="M156 563c0 -14.667 0.996094 -26.832 2.99609 -36.499s4.16699 -18 6.5 -25s4.66602 -13 6.99902 -18s3.5 -9.83301 3.5 -14.5c0 -7.33301 -1.66699 -13.5 -5 -18.5s-8.66602 -7.5 -15.999 -7.5c-8 0 -13.5 2.5 -16.5 7.5s-4.5 11.167 -4.5 18.5c0 4.66699 1 9.5 3 14.5
s4 11 6 18s4 15.333 6 25s3 21.834 3 36.501v7l-6 -3c-16 -8 -28.333 -16 -37 -24s-15.5 -15.167 -20.5 -21.5s-9.5 -11.5 -13.5 -15.5s-9.33301 -6 -16 -6c-5.33301 0 -10.333 2.16699 -15 6.5s-7 9.16602 -7 14.499c0 8.66699 2.5 14.5 7.5 17.5s12 5.33301 21 7
s20.167 4.16699 33.5 7.5s28.666 9.66602 45.999 18.999l6 3l-8 5c-19.333 10.667 -35.666 17.834 -48.999 21.501s-24.166 6.16699 -32.499 7.5s-14.5 3.33301 -18.5 6s-6 8.33398 -6 17.001c0 6.66699 2.33301 11.834 7 15.501s9.66699 5.5 15 5.5c4 0 8 -1 12 -3l3 -2
c4 -3.33301 7.83301 -6.83301 11.5 -10.5l13 -13.5c5 -5.33301 11.167 -11.333 18.5 -18s16.666 -14 27.999 -22l7 -5v10c0 14 -0.833008 25.833 -2.5 35.5s-3.66699 18 -6 25s-4.5 13 -6.5 18s-3 10.167 -3 15.5s1.33301 11 4 17s8.33398 9 17.001 9c8 0 13.5 -3 16.5 -9
s4.5 -11.667 4.5 -17s-1.16699 -10.5 -3.5 -15.5s-4.66602 -11 -6.99902 -18s-4.5 -15.333 -6.5 -25s-3 -21.5 -3 -35.5v-10l6 4c16 9.33301 28.333 18.166 37 26.499s15.5 15.666 20.5 21.999s9.5 11.333 13.5 15s9.66699 5.5 17 5.5c5.33301 0 10.166 -1.66699 14.499 -5
s6.5 -8.33301 6.5 -15c0 -9.33301 -4 -16 -12 -20c-3.33301 -3.33301 -7.66602 -5.5 -12.999 -6.5s-12 -2.33301 -20 -4s-17 -4 -27 -7s-21.333 -8.16699 -34 -15.5l-8 -4l10 -6c12 -7.33301 22.667 -12.5 32 -15.5s17.5 -5 24.5 -6s13.333 -1.83301 19 -2.5
s10.834 -2 15.501 -4l8 -7c4 -4 6 -9 6 -15c0 -6.66699 -2.16699 -11.834 -6.5 -15.501s-8.83301 -5.5 -13.5 -5.5c-3.33301 0 -7.66602 1.33301 -12.999 4l-2 2c-4.66699 2.66699 -8.66699 6 -12 10s-7.5 8.5 -12.5 13.5s-11.333 10.667 -19 17s-17.5 13.5 -29.5 21.5l-8 5
v-8z" />
    <glyph glyph-name="plus" unicode="+" horiz-adv-x="720" 
d="M111 310c-7.33301 0 -11 3.5 -11 10.5s3.66699 10.5 11 10.5l143 -8h103v104l-7 143c0 7.33301 3.5 11 10.5 11s10.5 -3.66699 10.5 -11l-8 -143v-104h103l143 8c7.33301 0 11 -3.5 11 -10.5s-3.66699 -10.5 -11 -10.5l-143 7h-103v-102l8 -143
c0 -7.33301 -3.5 -11 -10.5 -11s-10.5 3.66699 -10.5 11l7 143v102h-103z" />
    <glyph glyph-name="comma" unicode="," horiz-adv-x="122" 
d="M45 -90c-2 -2 -3.33398 -3 -4.00098 -3s-1 0.666992 -1 2l2 4c6.66699 10 12.167 20 16.5 30s6.5 19.333 6.5 28c0 6 -1.33301 10.5 -4 13.5s-5.66699 5.66699 -9 8s-6.33301 5 -9 8s-4 7.5 -4 13.5c0 8 2.66699 14.667 8 20s12 8 20 8
c7.33301 0 13.666 -2.66699 18.999 -8s8 -12 8 -20c0 -10.667 -2 -21.334 -6 -32.001s-8.66699 -20.667 -14 -30s-10.666 -17.666 -15.999 -24.999s-9.66602 -13 -12.999 -17z" />
    <glyph glyph-name="_45" unicode="-" horiz-adv-x="426" 
d="M82 240v47h262v-47h-262z" />
    <glyph glyph-name="period" unicode="." horiz-adv-x="128" 
d="M51 21c0 8 2.66699 14.667 8 20s12 8 20 8c7.33301 0 13.666 -2.66699 18.999 -8s8 -12 8 -20c0 -7.33301 -2.66699 -13.666 -8 -18.999s-11.666 -8 -18.999 -8c-8 0 -14.667 2.66699 -20 8s-8 11.666 -8 18.999z" />
    <glyph glyph-name="slash" unicode="/" horiz-adv-x="428" 
d="M86 -24c-1.33301 -3.33301 -2.83301 -4.83301 -4.5 -4.5s-1.83398 2.16602 -0.500977 5.49902l262 746c1.33301 2.66699 2.83301 3.83398 4.5 3.50098s1.83398 -1.83301 0.500977 -4.5z" />
    <glyph glyph-name="zero" unicode="0" horiz-adv-x="620" 
d="M308 -16c-38 0 -73.3291 7.49805 -105.996 22.498s-61.334 37.833 -86.001 68.5s-44 69.167 -58 115.5s-21 100.833 -21 163.5c0 60.667 7.66699 113.167 23 157.5s35.666 81 60.999 110s54.666 50.667 87.999 65s68 21.5 104 21.5c35.333 0 69.166 -7.33301 101.499 -22
s61 -36.667 86 -66s44.833 -66.166 59.5 -110.499s22 -96.166 22 -155.499c0 -62.667 -7 -117.167 -21 -163.5s-33.333 -84.833 -58 -115.5s-53.667 -53.5 -87 -68.5s-69.333 -22.5 -108 -22.5zM308.004 -10.002c32.667 0 62.998 6.5 90.998 19.5s52.333 34 73 63
s36.834 66.667 48.501 113s17.5 102.5 17.5 168.5c0 57.333 -5.83301 107.5 -17.5 150.5s-27.667 78.833 -48 107.5s-44.166 50.334 -71.499 65.001s-56.333 22.667 -87 24h-11c-31.333 -1.33301 -60.5 -9.5 -87.5 -24.5s-50.5 -37 -70.5 -66s-35.667 -64.833 -47 -107.5
s-17 -92.334 -17 -149.001c0 -66 5.83301 -122.167 17.5 -168.5s27.667 -84 48 -113s44.333 -50 72 -63s57.5 -19.5 89.5 -19.5z" />
    <glyph glyph-name="one" unicode="1" horiz-adv-x="254" 
d="M53 643c-5.33301 0 -9.16992 1.00195 -11.5029 3.00195s-3.66602 4.16699 -3.99902 6.5s0.166992 4.5 1.5 6.5s3 2.66699 5 2c14.667 -2 28.334 -2.16699 41.001 -0.5s23.5 4.66699 32.5 9s16.333 9.66602 22 15.999s8.83398 13.166 9.50098 20.499h4v-692
c0 -4.66699 2.33301 -7 7 -7h47c3.33301 0 5 -1.16699 5 -3.5s-1.66699 -3.5 -5 -3.5h-156c-2.66699 0 -4 1.16699 -4 3.5s1.33301 3.5 4 3.5h57c4.66699 0 7 2.33301 7 7v651c-8 -6 -17.5 -11.167 -28.5 -15.5s-22.167 -6.5 -33.5 -6.5z" />
    <glyph glyph-name="two" unicode="2" horiz-adv-x="532" 
d="M57 36c2.66699 51.333 14.166 95.1689 34.499 131.502s44.833 68.166 73.5 95.499s59.334 51.666 92.001 72.999s63 42.666 91 63.999s51.167 44.5 69.5 69.5s27.5 54.833 27.5 89.5c0 18 -3.16699 35.5 -9.5 52.5s-16.166 32.167 -29.499 45.5
s-30.5 24.166 -51.5 32.499s-46.167 12.5 -75.5 12.5c-37.333 0 -68 -6.5 -92 -19.5s-42.5 -29 -55.5 -48s-21 -39.5 -24 -61.5s-1.83301 -42 3.5 -60c2 -8.66699 1.33301 -15.667 -2 -21s-7.66602 -8.5 -12.999 -9.5s-10.666 0.666992 -15.999 5
s-8.66602 11.833 -9.99902 22.5c-2 22.667 0.833008 45.834 8.5 69.501s20.167 45 37.5 64s39.666 34.5 66.999 46.5s59.333 18 96 18c33.333 0 62.666 -4.5 87.999 -13.5s46.666 -20.833 63.999 -35.5s30.5 -31.5 39.5 -50.5s13.5 -38.5 13.5 -58.5
c0 -23.333 -6 -44.666 -18 -63.999s-27.667 -37.5 -47 -54.5s-41.5 -33.333 -66.5 -49l-76.5 -48.5c-26 -16.667 -51.5 -34.5 -76.5 -53.5s-47.333 -40 -67 -63s-35.334 -48.667 -47.001 -77s-17.5 -60.5 -17.5 -96.5c0 -4.66699 2.33301 -7 7 -7h392
c4.66699 0 7 2.33301 7 7v53c0 2 1.16699 3 3.5 3s3.5 -1 3.5 -3v-97h-424v36z" />
    <glyph glyph-name="three" unicode="3" horiz-adv-x="587" 
d="M290 416c-8.66699 0 -15.3271 1.83398 -19.9941 5.50098s-7 7.66699 -7 12s2.16699 8.33301 6.5 12s11.166 5.5 20.499 5.5c14 0 28 -1.16699 42 -3.5s28 -5.5 42 -9.5c27.333 12 46.833 29.5 58.5 52.5s17.5 49.5 17.5 79.5c0 14.667 -2.5 30 -7.5 46
s-13.333 30.5 -25 43.5s-27.167 23.667 -46.5 32s-43.333 12.5 -72 12.5c-32 0 -58.333 -5.5 -79 -16.5s-36.834 -24.833 -48.501 -41.5s-19 -34.334 -22 -53.001s-2.5 -36 1.5 -52c2 -8 1 -14.5 -3 -19.5s-8.66699 -7.66699 -14 -8s-10.666 1.66699 -15.999 6
s-8 11.5 -8 21.5c-0.666992 18.667 2.33301 38 9 58s17.667 38.167 33 54.5s35.166 29.833 59.499 40.5s53.5 16 87.5 16c31.333 0 58.833 -4.66699 82.5 -14s43.334 -21 59.001 -35s27.5 -29.167 35.5 -45.5s12 -31.5 12 -45.5c0 -26 -8.83301 -51.5 -26.5 -76.5
s-43.167 -44.5 -76.5 -58.5c22.667 -8 44.167 -18.5 64.5 -31.5s38.166 -28.667 53.499 -47s27.333 -39 36 -62s13 -48.167 13 -75.5c0 -24 -5.66699 -50 -17 -78s-27.833 -54 -49.5 -78s-48.667 -43.833 -81 -59.5s-69.5 -23.5 -111.5 -23.5
c-40.667 0 -76.334 6.5 -107.001 19.5s-55.834 30 -75.501 51s-33.834 44.667 -42.501 71s-11.667 52.833 -9 79.5c0.666992 10 3.66699 17.167 9 21.5s10.666 6.33301 15.999 6s9.83301 -3 13.5 -8s4.16699 -11.833 1.5 -20.5c-5.33301 -20 -6.16602 -42.333 -2.49902 -67
s13 -48 28 -70s36.333 -40.333 64 -55s62.5 -22 104.5 -22c40.667 0 74.667 7.33301 102 22s49.5 33.334 66.5 56.001s29.167 47.667 36.5 75s11 53.666 11 78.999c0 21.333 -2.83301 43 -8.5 65s-14.167 42.5 -25.5 61.5s-25.5 36 -42.5 51s-36.833 26.5 -59.5 34.5
c-24.667 -9.33301 -52.334 -14 -83.001 -14z" />
    <glyph glyph-name="four" unicode="4" horiz-adv-x="455" 
d="M256 0c-2 0 -3.00293 1.00391 -3.00293 3.00391s1 3 3 3h46c3.33301 0 5 1.66699 5 5v192c0 4.66699 -2.33301 7 -7 7h-235c-17.333 0 -26 6.33301 -26 19c0 5.33301 1.33301 10.666 4 15.999c12 32 27.333 65.5 46 100.5s38.834 69.5 60.501 103.5s44 66.333 67 97
s45 57.667 66 81s40.333 41.833 58 55.5s31.834 20.5 42.501 20.5c11.333 -0.666992 17 -6.66699 17 -18c-1.33301 -8.66699 -7.66602 -16.334 -18.999 -23.001c-67.333 -42.667 -129.5 -97.834 -186.5 -165.501s-105.833 -152.834 -146.5 -255.501
c-1.33301 -2.66699 -2.33301 -5 -3 -7s-1 -4 -1 -6c0 -8 7 -12 21 -12h235c4.66699 0 7 2.33301 7 7v99l-5 173c0 4.66699 2.33301 7 7 7h34c4.66699 0 7 -2.33301 7 -7l-6 -174v-98c0 -4.66699 2.33301 -7 7 -7h78c2 0 3 -1 3 -3s-1 -3 -3 -3h-78
c-4.66699 0 -7 -2.33301 -7 -7v-192c0 -3.33301 1.66699 -5 5 -5h44c2.66699 0 4 -1 4 -3s-1.33301 -3 -4 -3h-137z" />
    <glyph glyph-name="five" unicode="5" horiz-adv-x="557" 
d="M256 491c-18.667 -0.666992 -41.167 -4.83008 -67.5 -12.4971s-50.5 -20.5 -72.5 -38.5v-9c0 -12 -2.16699 -20.667 -6.5 -26s-8.5 -8 -12.5 -8c-7.33301 0 -11 5 -11 15c0 3.33301 1.16699 7.66602 3.5 12.999s7.83301 10.666 16.5 15.999l4 3v241c0 6 2.66699 9 8 9
h317c4.66699 0 7 2.33301 7 7v37c0 2.66699 1 4 3 4s3 -1.33301 3 -4v-72c0 -6 -3 -9 -9 -9h-323v-209c17.333 12.667 37.5 23.667 60.5 33s49.5 14.666 79.5 15.999h7c36.667 0 71.834 -5.66699 105.501 -17s63 -27.666 88 -48.999s45 -47.5 60 -78.5
s22.5 -65.833 22.5 -104.5s-7 -74.334 -21 -107.001s-33.167 -60.834 -57.5 -84.501s-53 -42.167 -86 -55.5s-68.5 -20 -106.5 -20c-39.333 0 -73.666 6 -102.999 18s-54 27.333 -74 46s-35 39.5 -45 62.5s-15 45.5 -15 67.5c0 14 2.16699 24.333 6.5 31s9.5 10 15.5 10
c4.66699 0 8.66699 -2 12 -6s5 -9.66699 5 -17c0 -5.33301 -0.5 -10.666 -1.5 -15.999s-1.5 -11 -1.5 -17c0 -19.333 3.5 -39.166 10.5 -59.499s18.5 -38.833 34.5 -55.5s36.667 -30.5 62 -41.5s56.666 -16.5 93.999 -16.5c34.667 0 66.167 6.83301 94.5 20.5
s52.5 32.334 72.5 56.001s35.5 51.167 46.5 82.5s16.5 64.666 16.5 99.999c0 36 -5.5 69.167 -16.5 99.5s-26.833 56.166 -47.5 77.499s-45.334 38 -74.001 50s-61 18 -97 18h-7v0z" />
    <glyph glyph-name="six" unicode="6" horiz-adv-x="614" 
d="M87 338l0.00390625 -8.99902c8 24 19.667 46.167 35 66.5s33 38.166 53 53.499s41.833 27.333 65.5 36s47.5 13.667 71.5 15h6c36.667 0 70.667 -5.5 102 -16.5s58.666 -26.833 81.999 -47.5s41.666 -45.834 54.999 -75.501s20 -63.5 20 -101.5
c0 -39.333 -7.16699 -75.833 -21.5 -109.5s-33.833 -62.667 -58.5 -87s-53.667 -43.5 -87 -57.5s-69 -21 -107 -21c-37.333 0 -71.833 6.5 -103.5 19.5s-59 33.5 -82 61.5s-41.167 63.5 -54.5 106.5s-20 94.5 -20 154.5v9c0 64 7.83301 119.333 23.5 166
s36.834 85.334 63.501 116.001s57.167 53.5 91.5 68.5s70.166 22.5 107.499 22.5h5c32 0 60.167 -4.16699 84.5 -12.5s44.666 -19.333 60.999 -33s28.666 -29 36.999 -46s12.5 -34.167 12.5 -51.5c0 -10.667 -1.83301 -19.334 -5.5 -26.001s-8.5 -10 -14.5 -10
c-4 0 -7.5 2 -10.5 6s-4.5 10 -4.5 18v5c0 47.333 -14.333 83 -43 107s-68.667 36.333 -120 37h-2c-32.667 0 -63.667 -6.66699 -93 -20s-55 -34.166 -77 -62.499s-39.5 -64.5 -52.5 -108.5s-19.5 -96.667 -19.5 -158v-15zM310.004 493.001
c-26 -1.33301 -51.833 -7.33301 -77.5 -18s-49 -24.834 -70 -42.501s-38.333 -38.167 -52 -61.5s-21.5 -48 -23.5 -74v-47c0 -35.333 5.16699 -68.666 15.5 -99.999s25 -58.833 44 -82.5s41.833 -42.5 68.5 -56.5s56 -21 88 -21c34.667 0 66.167 7 94.5 21
s52.833 33 73.5 57s36.667 52 48 84s17 65.667 17 101c0 36 -5 68.667 -15 98s-24.5 54.5 -43.5 75.5s-42 37.333 -69 49s-57.833 17.5 -92.5 17.5h-6z" />
    <glyph glyph-name="seven" unicode="7" horiz-adv-x="488" 
d="M225 7c2 -8 1.33301 -14.502 -2 -19.502s-7.33301 -8.16699 -12 -9.5s-9.33398 -0.333008 -14.001 3s-8 9 -10 17c-9.33301 44 -9.66602 85.5 -0.999023 124.5s21.834 76.167 39.501 111.5s38.167 69.833 61.5 103.5s45.5 67.167 66.5 100.5s38.667 67.333 53 102
s21.5 71.334 21.5 110.001c0 4.66699 -2.33301 7 -7 7h-380c-4.66699 0 -7 -2.33301 -7 -7v-55c0 -2 -1 -3 -3 -3s-3 1 -3 3v99h409v-37c0 -43.333 -6.66699 -82 -20 -116s-29.5 -66.167 -48.5 -96.5s-39.167 -60.166 -60.5 -89.499s-39.833 -60.833 -55.5 -94.5
s-26.834 -71 -33.501 -112s-4.66699 -88.167 6 -141.5z" />
    <glyph glyph-name="eight" unicode="8" horiz-adv-x="561" 
d="M281 -20c-40.667 0 -76.334 7.16699 -107.001 21.5s-56.5 32.5 -77.5 54.5s-36.833 46.167 -47.5 72.5s-16 51.5 -16 75.5c0 31.333 6 60.166 18 86.499s27.833 49.166 47.5 68.499s42.334 35.166 68.001 47.499s52.5 20.166 80.5 23.499
c-22.667 3.33301 -42.667 9.66602 -60 18.999s-31.666 20.333 -42.999 33s-20 26.667 -26 42s-9 30.666 -9 45.999c0 14 3.33301 29.167 10 45.5s17 31.5 31 45.5s31.833 25.667 53.5 35s47.5 14 77.5 14s56 -4.66699 78 -14s40 -21 54 -35s24.5 -29.167 31.5 -45.5
s10.5 -31.5 10.5 -45.5c0 -15.333 -3.16699 -30.666 -9.5 -45.999s-15.5 -29.333 -27.5 -42s-26.833 -23.667 -44.5 -33s-37.834 -15.666 -60.501 -18.999c28 -3.33301 55 -11.166 81 -23.499s49 -28.166 69 -47.499s36 -42.166 48 -68.499s18 -55.166 18 -86.499
c0 -24 -5.33301 -49.167 -16 -75.5s-26.5 -50.5 -47.5 -72.5s-47 -40.167 -78 -54.5s-66.5 -21.5 -106.5 -21.5zM274 428c-31.333 -0.666992 -59.166 -6.99805 -83.499 -18.998s-45 -28.167 -62 -48.5s-30 -44 -39 -71s-13.5 -55.833 -13.5 -86.5
c0 -25.333 3.5 -50.833 10.5 -76.5s18.5 -49 34.5 -70s37.167 -38 63.5 -51s58.5 -19.5 96.5 -19.5s70.167 6.5 96.5 19.5s47.5 30 63.5 51s27.5 44.333 34.5 70s10.5 51.167 10.5 76.5c0 30 -4.5 58.667 -13.5 86s-22.167 51.166 -39.5 71.499s-38.333 36.666 -63 48.999
s-52.334 18.5 -83.001 18.5h-13zM149 570.002c0 -40.667 10.498 -73.667 31.498 -99s51.5 -38 91.5 -38h17c40.667 0 71.834 12.667 93.501 38s32.5 58.333 32.5 99c0 14.667 -2.16699 29.834 -6.5 45.501s-11.666 30 -21.999 43s-24 23.833 -41 32.5s-38.167 13 -63.5 13
h-2c-26 0 -47.333 -4.33301 -64 -13s-30 -19.5 -40 -32.5s-17 -27.333 -21 -43s-6 -30.834 -6 -45.501z" />
    <glyph glyph-name="nine" unicode="9" horiz-adv-x="617" 
d="M314 202c-36 -1.33301 -69.5 3.32812 -100.5 13.9951s-58.167 26.334 -81.5 47.001s-41.666 46.167 -54.999 76.5s-20 64.166 -20 101.499c0 38 6.5 73.333 19.5 106s30.833 61 53.5 85s49.5 42.667 80.5 56s64.167 20 99.5 20c36.667 0 71.167 -6.16699 103.5 -18.5
s60.666 -32.166 84.999 -59.499s43.666 -62.666 57.999 -105.999s21.5 -95.666 21.5 -156.999v-2c0 -60.667 -7.66699 -114.667 -23 -162s-35.666 -87.166 -60.999 -119.499s-54.666 -57 -87.999 -74s-68 -25.5 -104 -25.5h-5c-34 0 -63.667 4.33301 -89 13
s-46.333 20 -63 34s-29.167 29.833 -37.5 47.5s-12.5 35.5 -12.5 53.5c0 8.66699 2 15.334 6 20.001s8.5 7.33398 13.5 8.00098s9.66699 -0.833008 14 -4.5s6.5 -9.16699 6.5 -16.5c-0.666992 -48.667 13.666 -85.667 42.999 -111s70 -38.333 122 -39h2
c33.333 0 64.5 7.66699 93.5 23s54.333 38 76 68s38.834 67.333 51.501 112s19 96 19 154v11c0 5.33301 -0.166992 13.333 -0.5 24s-0.5 19.667 -0.5 27c-4.66699 -26.667 -13.834 -52.167 -27.501 -76.5s-30.834 -46 -51.501 -65s-43.667 -34.333 -69 -46
s-51.666 -17.834 -78.999 -18.501zM316 207.994c30 1.33301 57.834 9.00098 83.501 23.001s48.167 32 67.5 54s34.666 46.667 45.999 74s17.333 55 18 83v10c0 35.333 -5.16699 68.333 -15.5 99s-25 57.167 -44 79.5s-42.167 39.833 -69.5 52.5s-58 19 -92 19
c-32.667 0 -62 -7 -88 -21s-48.167 -32.667 -66.5 -56s-32.5 -50.833 -42.5 -82.5s-15 -64.834 -15 -99.501s5 -66.667 15 -96s24.5 -54.5 43.5 -75.5s42 -37.167 69 -48.5s57.167 -16.333 90.5 -15z" />
    <glyph glyph-name="colon" unicode=":" horiz-adv-x="209" 
d="M78 123c0 8 2.66699 14.667 8 20s12 8 20 8c7.33301 0 13.666 -2.66699 18.999 -8s8 -12 8 -20c0 -7.33301 -2.66699 -13.666 -8 -18.999s-11.666 -8 -18.999 -8c-8 0 -14.667 2.66699 -20 8s-8 11.666 -8 18.999zM78 330c0 7.33301 2.66699 13.666 8 18.999s12 8 20 8
c7.33301 0 13.666 -2.66699 18.999 -8s8 -11.666 8 -18.999c0 -8 -2.66699 -14.667 -8 -20s-11.666 -8 -18.999 -8c-8 0 -14.667 2.66699 -20 8s-8 12 -8 20z" />
    <glyph glyph-name="semicolon" unicode=";" horiz-adv-x="209" 
d="M84 -90c-2 -2 -3.33398 -3 -4.00098 -3s-1 0.666992 -1 2l2 4c6.66699 10 12.167 20 16.5 30s6.5 19.333 6.5 28c0 6 -1.33301 10.5 -4 13.5s-5.66699 5.66699 -9 8s-6.33301 5 -9 8s-4 7.5 -4 13.5c0 8 2.66699 14.667 8 20s12 8 20 8
c7.33301 0 13.666 -2.66699 18.999 -8s8 -12 8 -20c0 -10.667 -2 -21.334 -6 -32.001s-8.66699 -20.667 -14 -30s-10.666 -17.666 -15.999 -24.999s-9.66602 -13 -12.999 -17zM77.999 330c0 7.33301 2.66699 13.666 8 18.999s12 8 20 8c7.33301 0 13.666 -2.66699 18.999 -8
s8 -11.666 8 -18.999c0 -8 -2.66699 -14.667 -8 -20s-11.666 -8 -18.999 -8c-8 0 -14.667 2.66699 -20 8s-8 12 -8 20z" />
    <glyph glyph-name="less" unicode="&#x3c;" horiz-adv-x="531" 
d="M126 323c0 -14 9.33301 -28.001 28 -42.001l256 -184c6.66699 -5.33301 10.334 -10.666 11.001 -15.999s-0.5 -9.66602 -3.5 -12.999s-7.5 -5.16602 -13.5 -5.49902s-12 2.16699 -18 7.5l-236 206c-20 16 -30 31.667 -30 47s10 31 30 47l236 206
c6 5.33301 12 7.66602 18 6.99902s10.5 -2.66699 13.5 -6s4.16699 -7.83301 3.5 -13.5s-4.33398 -10.834 -11.001 -15.501l-256 -183c-18.667 -14 -28 -28 -28 -42z" />
    <glyph glyph-name="equal" unicode="=" horiz-adv-x="711" 
d="M111 366c-4.66699 0 -8.16504 1.66699 -10.498 5s-3.5 6.83301 -3.5 10.5s1.16699 7.16699 3.5 10.5s5.83301 5 10.5 5l143 -13h203l143 13c5.33301 0 9.16602 -1.66699 11.499 -5s3.5 -6.83301 3.5 -10.5s-1.33301 -7.16699 -4 -10.5s-6.33398 -5 -11.001 -5l-143 13
h-203zM111.002 246c-5.33301 0 -9.16406 1.66699 -11.4971 5s-3.5 6.83301 -3.5 10.5s1.16699 7.16699 3.5 10.5s6.16602 5 11.499 5l143 -13h203l143 13c5.33301 0 9.16602 -1.66699 11.499 -5s3.5 -6.83301 3.5 -10.5s-1.33301 -7.16699 -4 -10.5s-6.33398 -5 -11.001 -5
l-143 13h-203z" />
    <glyph glyph-name="greater" unicode="&#x3e;" horiz-adv-x="531" 
d="M405 323c0 14 -9.33301 28.001 -28 42.001l-257 183c-6 4.66699 -9.33301 9.83398 -10 15.501s0.5 10.167 3.5 13.5s7.33301 5.33301 13 6s11.834 -1.66602 18.501 -6.99902l236 -206c20 -16 30 -31.667 30 -47s-10 -31 -30 -47l-236 -206
c-6.66699 -5.33301 -12.834 -7.83301 -18.501 -7.5s-10 2.16602 -13 5.49902s-4.16699 7.66602 -3.5 12.999s4 10.666 10 15.999l257 184c18.667 14 28 28 28 42z" />
    <glyph glyph-name="question" unicode="?" horiz-adv-x="553" 
d="M252 92c0 -2 -1 -3.1709 -3 -3.50391s-3 0.833984 -3 3.50098v101c0 34.667 4 64 12 88s18.167 44.833 30.5 62.5s25.5 33.667 39.5 48s27.167 29.5 39.5 45.5s22.5 34.333 30.5 55s12 46.334 12 77.001c0 18 -2.66699 35.333 -8 52s-14 31.5 -26 44.5
s-27.5 23.5 -46.5 31.5s-42.167 12 -69.5 12c-33.333 0 -60.5 -6 -81.5 -18s-37.167 -27.333 -48.5 -46s-18.333 -38.834 -21 -60.501s-2 -42.167 2 -61.5c2 -9.33301 1.33301 -16.666 -2 -21.999s-7.66602 -8.33301 -12.999 -9s-10.5 1.33301 -15.5 6s-8.16699 12 -9.5 22
c-3.33301 22.667 -1.5 45.667 5.5 69s18.5 44.333 34.5 63s36.5 33.834 61.5 45.501s54.167 17.5 87.5 17.5c32.667 0 60.834 -4 84.501 -12s43.167 -18.833 58.5 -32.5s26.833 -29.667 34.5 -48s11.5 -37.5 11.5 -57.5c0 -28 -4.83301 -51.667 -14.5 -71
s-21.834 -36.666 -36.501 -51.999s-30.5 -30.333 -47.5 -45s-32.833 -31 -47.5 -49s-26.834 -39 -36.501 -63s-14.5 -53.667 -14.5 -89v-104zM221 16.9961c0 8 2.66699 14.667 8 20s12 8 20 8c7.33301 0 13.666 -2.66699 18.999 -8s8 -12 8 -20
c0 -7.33301 -2.66699 -13.666 -8 -18.999s-11.666 -8 -18.999 -8c-8 0 -14.667 2.66699 -20 8s-8 11.666 -8 18.999z" />
    <glyph glyph-name="at" unicode="@" horiz-adv-x="870" 
d="M553 544l-0.000976562 -255.996c0 -38.667 9.66699 -68.334 29 -89.001s42 -31 68 -31c23.333 0 44 6 62 18s33.167 27.333 45.5 46s21.666 39.167 27.999 61.5s9.5 44.166 9.5 65.499c0 41.333 -5.5 78.333 -16.5 111s-25.833 61.5 -44.5 86.5
s-40.334 46.333 -65.001 64s-50.167 32 -76.5 43s-52.833 19 -79.5 24s-51.667 7.5 -75 7.5c-50 0 -96.667 -9.33301 -140 -28s-81.166 -44.334 -113.499 -77.001s-57.833 -70.667 -76.5 -114s-28 -90 -28 -140c0 -49.333 9.33301 -95.833 28 -139.5
s44.334 -81.667 77.001 -114s70.667 -58 114 -77s89.666 -28.5 138.999 -28.5c46.667 0 90.334 8.33301 131.001 25s77 39.334 109 68.001l5 -6c-32.667 -29.333 -69.834 -52.333 -111.501 -69s-86.167 -25 -133.5 -25c-50.667 0 -98.167 9.66699 -142.5 29
s-83 45.5 -116 78.5s-59.167 71.667 -78.5 116s-29 91.833 -29 142.5s9.5 98.167 28.5 142.5s45 83 78 116s71.833 59.167 116.5 78.5s92.334 29 143.001 29c24.667 0 50.834 -2.66699 78.501 -8s55 -13.833 82 -25.5s52.667 -26.667 77 -45s46 -40.166 65 -65.499
s34 -54.5 45 -87.5s16.5 -70.167 16.5 -111.5c0 -22 -3.33301 -44.667 -10 -68s-16.334 -44.5 -29.001 -63.5s-28.5 -34.667 -47.5 -47s-40.833 -18.5 -65.5 -18.5c-20.667 0 -39.334 4.16699 -56.001 12.5s-30.834 19.166 -42.501 32.499s-20.667 28.666 -27 45.999
s-9.5 35 -9.5 53v51c-5.33301 -22.667 -12.333 -45.5 -21 -68.5s-19.5 -43.833 -32.5 -62.5s-27.667 -33.834 -44 -45.501s-34.5 -17.5 -54.5 -17.5c-14 0 -28.167 2.33301 -42.5 7s-27.166 12.667 -38.499 24s-20.666 26.833 -27.999 46.5s-11 44.5 -11 74.5v17
c0 32.667 5.83301 61.5 17.5 86.5s27.334 46 47.001 63s42 29.833 67 38.5s50.833 13 77.5 13l63 -1v12h38zM281.999 316.004c0 -32 2.50098 -57.6689 7.50098 -77.002s11.167 -34.166 18.5 -44.499s15.666 -17.166 24.999 -20.499s18.333 -5 27 -5h3
c20.667 0 39.5 6.5 56.5 19.5s32 29.667 45 50s23.667 43 32 68s14.5 49.167 18.5 72.5v148h-60c-26 0 -49.667 -4.66699 -71 -14s-39.5 -22.5 -54.5 -39.5s-26.667 -37.333 -35 -61s-12.5 -50.167 -12.5 -79.5v-17z" />
    <glyph glyph-name="A" unicode="A" horiz-adv-x="641" 
d="M260 687c-2.66699 0 -4 1 -4 3c0 2.66699 1.33301 4 4 4h88l257 -687h54c2.66699 0 4 -1.33301 4 -4c0 -2 -1.33301 -3 -4 -3h-152c-2.66699 0 -4 1 -4 3c0 2.66699 1.33301 4 4 4h56l-105 281h-292l-103 -281h55c2.66699 0 4 -1.33301 4 -4c0 -2 -1.33301 -3 -4 -3h-115
c-2.66699 0 -4 1 -4 3c0 2.66699 1.33301 4 4 4h52l248 680h-43zM168 295h287l-146 388z" />
    <glyph glyph-name="B" unicode="B" horiz-adv-x="581" 
d="M45 0c-3.33301 0 -5 1.16895 -5 3.50195s1.66699 3.5 5 3.5h47c4.66699 0 7 2.33301 7 7v666c0 4.66699 -2.33301 7 -7 7h-47c-2.66699 0 -4.16699 1.16699 -4.5 3.5s1.16699 3.5 4.5 3.5h240c24.667 0 49.5 -3.16699 74.5 -9.5s47.833 -15.833 68.5 -28.5
s37.5 -28.834 50.5 -48.501s19.5 -43.5 19.5 -71.5c0 -21.333 -5.16699 -41 -15.5 -59s-23.833 -33.667 -40.5 -47s-35.5 -24.5 -56.5 -33.5s-42.5 -14.833 -64.5 -17.5l-4 -3c28 0.666992 55.833 -2.83301 83.5 -10.5s52.667 -19.334 75 -35.001s40.333 -35 54 -58
s20.5 -49.5 20.5 -79.5c0 -32 -7 -60.167 -21 -84.5s-32.5 -44.5 -55.5 -60.5s-49 -28 -78 -36s-58.5 -12 -88.5 -12h-262zM148 373.002c-4.66699 0 -7.00098 -2.33105 -7.00098 -6.99805v-352c0 -4.66699 2.33301 -7 7 -7h159c26.667 0 52 3.5 76 10.5s45 18 63 33
s32.167 34.167 42.5 57.5s15.5 51.666 15.5 84.999c0 35.333 -5.66699 64.666 -17 87.999s-27.166 41.833 -47.499 55.5s-44.5 23.167 -72.5 28.5s-58.667 8 -92 8h-127zM455.999 536.004c0 28.667 -4.83301 52.668 -14.5 72.001s-22.667 34.833 -39 46.5s-35 20 -56 25
s-42.5 7.5 -64.5 7.5h-134c-4.66699 0 -7 -2.33301 -7 -7v-293c0 -4.66699 2.33301 -7 7 -7h117c58.667 0 105.167 12.167 139.5 36.5s51.5 64.166 51.5 119.499z" />
    <glyph glyph-name="C" unicode="C" horiz-adv-x="603" 
d="M341 -16c-41.333 0 -79.8291 7.33496 -115.496 22.002s-67 37.167 -94 67.5s-48.167 68.833 -63.5 115.5s-23 101.667 -23 165c0 60 8.5 112.167 25.5 156.5s39.5 81.166 67.5 110.499s60.333 51.166 97 65.499s75 21.5 115 21.5c29.333 0 57.166 -3.83301 83.499 -11.5
s49.166 -18 68.499 -31s34.666 -28.333 45.999 -46s16.666 -36.167 15.999 -55.5c-0.666992 -12 -3.83398 -20.667 -9.50098 -26s-11.667 -7.66602 -18 -6.99902s-11.666 4 -15.999 10s-5.5 14.333 -3.5 25c2.66699 16.667 1 33.167 -5 49.5s-16 30.666 -30 42.999
s-32 22.5 -54 30.5s-47.333 12 -76 12h-2c-36 0 -69.667 -6.33301 -101 -19s-58.666 -33 -81.999 -61s-41.833 -64 -55.5 -108s-20.5 -97 -20.5 -159c0 -67.333 6.33301 -124 19 -170s30.334 -83.5 53.001 -112.5s49.167 -49.833 79.5 -62.5s63.166 -19 98.499 -19
c30 0 57 4.5 81 13.5s44 20.667 60 35s27.667 30.333 35 48s9.66602 35.167 6.99902 52.5c-2 10 -0.666992 18 4 24s10.167 9.16699 16.5 9.5s12.333 -2 18 -7s8.5 -13.167 8.5 -24.5c0 -19.333 -6.33301 -38.5 -19 -57.5s-29.5 -35.833 -50.5 -50.5
s-45.5 -26.5 -73.5 -35.5s-57 -13.5 -87 -13.5z" />
    <glyph glyph-name="D" unicode="D" horiz-adv-x="607" 
d="M45 687c-2.66699 0 -4 1.16797 -4 3.50098s1.33301 3.5 4 3.5h213c36.667 0 73.5 -6.33301 110.5 -19s70.5 -32.667 100.5 -60s54.5 -62.166 73.5 -104.499s28.5 -93.5 28.5 -153.5s-8.33301 -112.333 -25 -157s-39 -81.834 -67 -111.501s-60 -51.834 -96 -66.501
s-73.333 -22 -112 -22h-226c-3.33301 0 -4.83301 1.16699 -4.5 3.5s1.83301 3.5 4.5 3.5h44c6.66699 0 10 3.33301 10 10v660c0 6.66699 -3.33301 10 -10 10h-44zM151 687.001c-6.66699 0 -9.99902 -3.33203 -9.99902 -9.99902v-660c0 -6.66699 3.33301 -10 10 -10h118
c35.333 0 68.5 6.83301 99.5 20.5s58.167 34.667 81.5 63s41.666 64.5 54.999 108.5s20 96.667 20 158s-7.66699 113.166 -23 155.499s-35.5 76.5 -60.5 102.5s-53.5 44.5 -85.5 55.5s-64.667 16.5 -98 16.5h-107z" />
    <glyph glyph-name="E" unicode="E" horiz-adv-x="543" 
d="M147 396c-4.66699 0 -7.00098 -2.33301 -7.00098 -7v-375c0 -4.66699 2.33301 -7 7 -7h270c10 0 20 1.5 30 4.5s19 7.66699 27 14s14.667 14.666 20 24.999s8 22.5 8 36.5v28h7v-115h-465c-2.66699 0 -4 1 -4 3c0 2.66699 1.66699 4 5 4h46c4.66699 0 7 2.33301 7 7v666
c0 4.66699 -2.33301 7 -7 7h-47c-2.66699 0 -4 1 -4 3c0 2.66699 1.33301 4 4 4h425v-117h-7v23c0 30 -6.66699 52 -20 66s-38 21 -74 21h-221c-4.66699 0 -7 -2.33301 -7 -7v-270c0 -4.66699 2.33301 -7 7 -7h157c10 0 19.667 0.666992 29 2s17.833 4 25.5 8
s13.834 9.33301 18.501 16s7 15.334 7 26.001v17h7v-144h-7v18c0 16.667 -6.5 29.167 -19.5 37.5s-27.5 12.5 -43.5 12.5h-174z" />
    <glyph glyph-name="F" unicode="F" horiz-adv-x="480" 
d="M139 14c0 -4.66699 2.33301 -7 7 -7h49c2 0 3 -1.16699 3 -3.5s-1 -3.5 -3 -3.5h-152c-1.33301 0 -2.16602 1.16699 -2.49902 3.5s0.5 3.5 2.5 3.5h47c4.66699 0 7 2.33301 7 7v666c0 4.66699 -2.33301 7 -7 7h-47c-2 0 -3 1.16699 -3 3.5s1 3.5 3 3.5h411v-117h-7v22
c0 29.333 -6.33301 51.333 -19 66s-36 22 -70 22h-212c-4.66699 0 -7 -2.33301 -7 -7v-270c0 -4.66699 2.33301 -7 7 -7h147c9.33301 0 18.5 0.666992 27.5 2s17 4 24 8s12.667 9.33301 17 16s6.5 15 6.5 25v18h7v-145h-7v16c0 10.667 -2.33301 19.5 -7 26.5
s-10.667 12.5 -18 16.5s-15.333 6.66699 -24 8s-17.334 2 -26.001 2h-147c-4.66699 0 -7 -2.33301 -7 -7v-375z" />
    <glyph glyph-name="G" unicode="G" horiz-adv-x="668" 
d="M329 702c-32.667 0 -63.333 -6.33105 -92 -18.998s-53.834 -32.834 -75.501 -60.501s-38.667 -63.667 -51 -108s-18.5 -97.833 -18.5 -160.5s6 -116.834 18 -162.501s28.5 -83.5 49.5 -113.5s45.667 -52.167 74 -66.5s59.166 -21.5 92.499 -21.5
c25.333 0 50.166 3.66699 74.499 11s46 19.333 65 36s34.167 38.334 45.5 65.001s17 59.667 17 99v91h-62c-2 0 -3 1.16699 -3 3.5s1 3.5 3 3.5h159c2 0 3 -1.16699 3 -3.5s-1 -3.5 -3 -3.5h-54v-292c0 -3.33301 -1.33301 -5 -4 -5c-2 0 -3 1.66699 -3 5v98
c0 8.66699 -2.33301 13 -7 13c-3.33301 0 -6.66602 -2.66699 -9.99902 -8c-20.667 -38 -49.667 -67.167 -87 -87.5s-82 -30.5 -134 -30.5c-38.667 0 -75 7.66699 -109 23s-63.667 38.333 -89 69s-45.333 69.167 -60 115.5s-22 100.166 -22 161.499
s7.83301 114.166 23.5 158.499s36.667 81 63 110s56.5 50.5 90.5 64.5s69.333 21 106 21c38.667 0 72.334 -5.66699 101.001 -17s52.5 -25.5 71.5 -42.5s33.167 -35.667 42.5 -56s14 -39.5 14 -57.5c0 -10 -2.5 -17.667 -7.5 -23s-10.5 -8 -16.5 -8
c-5.33301 0 -10.166 2 -14.499 6s-6.5 10 -6.5 18c0 4.66699 0.5 9.5 1.5 14.5s1.5 10.167 1.5 15.5c0 17.333 -3.33301 34.5 -10 51.5s-17.5 32.333 -32.5 46s-34.333 24.834 -58 33.501s-52.5 13 -86.5 13z" />
    <glyph glyph-name="H" unicode="H" horiz-adv-x="635" 
d="M43 0c-2.66699 0 -4 1.16699 -4 3.5s1.33301 3.5 4 3.5h45c4.66699 0 7 2.33301 7 7v666c0 4.66699 -2.33301 7 -7 7h-45c-2.66699 0 -4 1.16699 -4 3.5s1.33301 3.5 4 3.5h146c2 0 3 -1.16699 3 -3.5s-1 -3.5 -3 -3.5h-45c-4.66699 0 -7 -2.33301 -7 -7v-284
c0 -4.66699 2.33301 -7 7 -7h348c4.66699 0 7 2.33301 7 7v284c0 4.66699 -2.33301 7 -7 7h-46c-2.66699 0 -4 1.16699 -4 3.5s1.33301 3.5 4 3.5h146c2 0 3 -1.16699 3 -3.5s-1 -3.5 -3 -3.5h-44c-4.66699 0 -7 -2.33301 -7 -7v-666c0 -4.66699 2.33301 -7 7 -7h44
c2 0 3 -1.16699 3 -3.5s-1 -3.5 -3 -3.5h-146c-2.66699 0 -4 1.16699 -4 3.5s1.33301 3.5 4 3.5h46c4.66699 0 7 2.33301 7 7v361c0 4.66699 -2.33301 7 -7 7h-348c-4.66699 0 -7 -2.33301 -7 -7v-361c0 -4.66699 2.33301 -7 7 -7h45c2 0 3 -1.16699 3 -3.5s-1 -3.5 -3 -3.5
h-146v0z" />
    <glyph glyph-name="I" unicode="I" horiz-adv-x="232" 
d="M42 0c-3.33301 0 -5 1.16699 -5 3.5s1.66699 3.5 5 3.5h47c4.66699 0 7 2.33301 7 7v666c0 4.66699 -2.33301 7 -7 7h-43c-2.66699 0 -4 1.16699 -4 3.5s1.33301 3.5 4 3.5h143c2 0 3 -1.16699 3 -3.5s-1 -3.5 -3 -3.5h-45c-4.66699 0 -7 -2.33301 -7 -7v-666
c0 -4.66699 2.33301 -7 7 -7h46c2.66699 0 4 -1.16699 4 -3.5s-1.33301 -3.5 -4 -3.5h-148z" />
    <glyph glyph-name="J" unicode="J" horiz-adv-x="476" 
d="M309 687c-2 0 -3.00098 1.16602 -3.00098 3.49902s1 3.5 3 3.5h136c2.66699 0 4 -1.16699 4 -3.5s-1.33301 -3.5 -4 -3.5h-39c-4.66699 0 -7 -2.33301 -7 -7v-503c0 -24 -4.66699 -47.167 -14 -69.5s-22.666 -42.333 -39.999 -60s-38.333 -31.667 -63 -42
s-52 -15.5 -82 -15.5c-28 0 -54 4.66699 -78 14s-44.667 22 -62 38s-30.333 34.5 -39 55.5s-12 43.167 -10 66.5c1.33301 12 5.16602 20.667 11.499 26s13 7.5 20 6.5s12.667 -4.66699 17 -11s5.16602 -14.833 2.49902 -25.5
c-5.33301 -19.333 -6.16602 -38.666 -2.49902 -57.999s11.334 -36.833 23.001 -52.5s27.334 -28.5 47.001 -38.5s43.167 -15 70.5 -15c29.333 0 54 5.33301 74 16s36.167 24.5 48.5 41.5s21.166 36.5 26.499 58.5s8 44.333 8 67v501c0 4.66699 -2.33301 7 -7 7h-41z" />
    <glyph glyph-name="K" unicode="K" horiz-adv-x="592" 
d="M441 0c-2.66699 0 -4.00098 1.16699 -4.00098 3.5s1.33301 3.5 4 3.5h48c4.66699 0 5.66699 2 3 6l-273 382l-78 -83v-298c0 -4.66699 2.33301 -7 7 -7h46c2.66699 0 4 -1.16699 4 -3.5s-1.33301 -3.5 -4 -3.5h-147c-3.33301 0 -5 1.16699 -5 3.5s1.66699 3.5 5 3.5h47
c4.66699 0 7 2.33301 7 7v666c0 4.66699 -2.33301 7 -7 7h-49c-3.33301 0 -5 1.16699 -5 3.5s1.66699 3.5 5 3.5h153c2.66699 0 3.83398 -1.16699 3.50098 -3.5s-1.5 -3.5 -3.5 -3.5h-50c-4.66699 0 -7 -2.33301 -7 -7v-356l338 358c3.33301 3.33301 2.66602 5 -2.00098 5
h-47c-3.33301 0 -5 1.16699 -5 3.5s1.66699 3.5 5 3.5h119c2.66699 0 4 -1.16699 4 -3.5s-1.33301 -3.5 -4 -3.5h-47c-4.66699 0 -8.66699 -1.66699 -12 -5l-243 -257l297 -412c2.66699 -4 6.33398 -6 11.001 -6h36c2.66699 0 4 -1.16699 4 -3.5s-1.33301 -3.5 -4 -3.5h-150
z" />
    <glyph glyph-name="L" unicode="L" horiz-adv-x="522" 
d="M87 7c6.66699 0 10 3.33398 10 10.001v661c0 6 -2.66699 9 -8 9h-43c-2 0 -3 1.16699 -3 3.5s1 3.5 3 3.5h144c2.66699 0 4 -1.16699 4 -3.5s-1.33301 -3.5 -4 -3.5h-42c-6 0 -9 -3 -9 -9v-661c0 -6.66699 3.33301 -10 10 -10h241c28 1.33301 50.833 11.666 68.5 30.999
s26.5 46 26.5 80v79h7v-197h-449c-2 0 -3 1.16699 -3 3.5s1 3.5 3 3.5h44v0z" />
    <glyph glyph-name="M" unicode="M" horiz-adv-x="779" 
d="M27 687c-3.33301 0 -5 1 -5 3c0 2.66699 1.66699 4 5 4h102l129.5 -322.5l130.5 -322.5l129.5 322.5l130.5 322.5h96c2 0 3 -1.33301 3 -4c0 -2 -1 -3 -3 -3h-41c-6.66699 0 -10 -3.33301 -10 -10v-660c0 -6.66699 3.33301 -10 10 -10h40c2.66699 0 4 -1.33301 4 -4
c0 -2 -1.33301 -3 -4 -3h-142c-2.66699 0 -4 1 -4 3c0 2.66699 1.33301 4 4 4h40c6.66699 0 10 3.33301 10 10v667l-139 -344l-138 -344h-7l-279 691v-670c0 -6.66699 3.33301 -10 10 -10h45c2.66699 0 4 -1.33301 4 -4c0 -2 -1.33301 -3 -4 -3h-115c-3.33301 0 -5 1 -5 3
c0 2.66699 1.66699 4 5 4h43c6.66699 0 10 3.33301 10 10v670h-55v0z" />
    <glyph glyph-name="N" unicode="N" horiz-adv-x="623" 
d="M27 687c-2.66699 0 -4 1.16699 -4 3.5s1.33301 3.5 4 3.5h103l404 -624v607c0 6.66699 -3.33301 10 -10 10h-44c-2.66699 0 -4 1.16699 -4 3.5s1.33301 3.5 4 3.5h115c3.33301 0 5 -1.16699 5 -3.5s-1.66699 -3.5 -5 -3.5h-44c-6.66699 0 -10 -3.33301 -10 -10v-683h-7
l-444 691v-668c0 -6.66699 3.33301 -10 10 -10h44c2 0 3 -1.16699 3 -3.5s-1 -3.5 -3 -3.5h-115c-2.66699 0 -4 1.16699 -4 3.5s1.33301 3.5 4 3.5h44c6.66699 0 10 3.33301 10 10v670h-56z" />
    <glyph glyph-name="O" unicode="O" horiz-adv-x="683" 
d="M340 -16c-40.667 0 -79.002 7.5 -115.002 22.5s-67.333 37.833 -94 68.5s-47.667 69.167 -63 115.5s-23 100.833 -23 163.5c0 60 8.16699 112.167 24.5 156.5s38.333 81.166 66 110.499s59.334 51.166 95.001 65.499s72.5 21.5 110.5 21.5c39.333 0 77 -7.33301 113 -22
s67.667 -36.667 95 -66s49 -66.166 65 -110.499s24 -96.166 24 -155.499c0 -62.667 -7.66699 -117.167 -23 -163.5s-36.5 -84.833 -63.5 -115.5s-58.667 -53.5 -95 -68.5s-75.166 -22.5 -116.499 -22.5zM341.998 -10c35.333 0 68.1641 6.50195 98.4971 19.502
s56.833 34 79.5 63s40.334 66.667 53.001 113s19 102.5 19 168.5c0 61.333 -6.33301 113.666 -19 156.999s-30.167 79 -52.5 107s-48.333 48.5 -78 61.5s-61.5 20.167 -95.5 21.5h-11c-34 -0.666992 -66 -7.66699 -96 -21s-56 -33.833 -78 -61.5
s-39.333 -63.334 -52 -107.001s-19 -96.167 -19 -157.5c0 -66 6.33301 -122.167 19 -168.5s30.334 -84 53.001 -113s49.334 -50 80.001 -63s63.667 -19.5 99 -19.5z" />
    <glyph glyph-name="P" unicode="P" horiz-adv-x="516" 
d="M45 0c-2.66699 0 -4 1.33301 -4 4c0 2 1.33301 3 4 3h44c6.66699 0 10 3.33301 10 10v660c0 6.66699 -3.33301 10 -10 10h-44c-3.33301 0 -5 1 -5 3c0 2.66699 1.66699 4 5 4h233c27.333 0 55 -3.5 83 -10.5s53.333 -18 76 -33s41.167 -34.333 55.5 -58
s21.5 -51.834 21.5 -84.501c0 -33.333 -6.83301 -62.333 -20.5 -87s-31.5 -45.167 -53.5 -61.5s-47.167 -28.666 -75.5 -36.999s-56.833 -12.5 -85.5 -12.5h-138v-293c0 -6.66699 3.33301 -10 10 -10h46c2 0 3 -1.33301 3 -4c0 -2 -1 -3 -3 -3h-152zM470 508
c0 34 -5.33203 62.334 -15.999 85.001s-25 41 -43 55s-38.5 24 -61.5 30s-46.833 9 -71.5 9h-127c-6.66699 0 -10 -3.33301 -10 -10v-360h138c26 0 50.667 3.66699 74 11s43.666 18.666 60.999 33.999s31 35 41 59s15 53 15 87z" />
    <glyph glyph-name="Q" unicode="Q" horiz-adv-x="683" 
d="M638 352c0 -114.667 -27.168 -205.172 -81.501 -271.505s-134.166 -114.5 -239.499 -144.5c22 -6 43.167 -16 63.5 -30s39.166 -28 56.499 -42s33.166 -26 47.499 -36s26.833 -14 37.5 -12c3.33301 0.666992 6.33301 1.5 9 2.5s5 2.16699 7 3.5s3.83301 1.33301 5.5 0
s0.833984 -3.33301 -2.49902 -6c-4.66699 -3.33301 -8.5 -5.66602 -11.5 -6.99902s-7.16699 -2.66602 -12.5 -3.99902c-18 -4 -33.833 -4.16699 -47.5 -0.5s-26.5 9.66699 -38.5 18s-23 17.833 -33 28.5l-31 32c-10.667 10.667 -21.667 20.334 -33 29.001
s-23.666 14.667 -36.999 18c-8.66699 -3.33301 -18.334 -6.16602 -29.001 -8.49902s-18 -3.83301 -22 -4.5c-10.667 -2 -19.167 -1.16699 -25.5 2.5s-10 8 -11 13s1 9.83301 6 14.5s13.5 7 25.5 7c11.333 0.666992 23.666 -0.833008 36.999 -4.5
s22.666 -6.83398 27.999 -9.50098c20.667 6 39.334 12 56.001 18s32 12.333 46 19s27.333 13.834 40 21.501s25.334 16.167 38.001 25.5l-2 3c-24.667 -14 -49.167 -24.167 -73.5 -30.5s-47.166 -9.5 -68.499 -9.5h-2c-40.667 0 -79 7.33301 -115 22
s-67.333 37.167 -94 67.5s-47.667 68.333 -63 114s-23 99.5 -23 161.5c0 60 8 112.333 24 157s37.5 81.834 64.5 111.501s58 52 93 67s71.5 22.833 109.5 23.5h1c39.333 0 77.166 -7.16699 113.499 -21.5s68.333 -36.333 96 -66s49.834 -67 66.501 -112
s25 -98.167 25 -159.5zM341.999 -7.00488c35.333 0 68.165 6.66699 98.498 20s56.833 34.166 79.5 62.499s40.334 65.166 53.001 110.499s19 100.666 19 165.999c0 64 -6.66699 118.333 -20 163s-31.5 81 -54.5 109s-50 48.333 -81 61s-64.167 19 -99.5 19h-2
c-34 -0.666992 -65.833 -7.66699 -95.5 -21s-55.5 -34 -77.5 -62s-39.333 -64.167 -52 -108.5s-19 -97.833 -19 -160.5c0 -65.333 6.33301 -120.666 19 -165.999s30.334 -82.166 53.001 -110.499s49 -49.166 79 -62.499s62.667 -20 98 -20h2z" />
    <glyph glyph-name="R" unicode="R" horiz-adv-x="574" 
d="M45 0c-2.66699 0 -4.00293 1.33301 -4.00293 4c0 2 1.33301 3 4 3h29c12.667 0 20 2.83301 22 8.5s3 13.167 3 22.5v618c0 8.66699 -0.833008 16 -2.5 22s-7.16699 9 -16.5 9h-35c-3.33301 0 -5 1 -5 3c0 2.66699 1.66699 4 5 4h222c24.667 0 49.834 -3 75.501 -9
s48.834 -15.333 69.501 -28s37.667 -29 51 -49s20 -44 20 -72c0 -26.667 -5.66699 -50.167 -17 -70.5s-26.166 -37.5 -44.499 -51.5s-39.5 -24.833 -63.5 -32.5s-48.667 -12.167 -74 -13.5c31.333 -9.33301 60 -28 86 -56s50.667 -63.333 74 -106l37.5 -78.5l32 -66
c9.66699 -19 18.5 -34 26.5 -45s15 -16.5 21 -16.5c3.33301 0 6.16602 0.666992 8.49902 2s4.5 2 6.5 2c1.33301 0 2 -0.666992 2 -2c0 -3.33301 -2.66699 -5.66602 -8 -6.99902s-9.66602 -2 -12.999 -2c-10 0 -20.167 2.83301 -30.5 8.5s-21.5 15.834 -33.5 30.501
s-25.167 34.5 -39.5 59.5s-30.5 57.167 -48.5 96.5c-25.333 57.333 -49.833 100.666 -73.5 129.999s-50.167 46 -79.5 50h-111v-331c0 -8.66699 1.33301 -15.834 4 -21.501s10.667 -8.5 24 -8.5h28c2 0 3 -1.33301 3 -4c0 -2 -1 -3 -3 -3h-152zM140.997 687v-312h126
c24 0 46.5 3 67.5 9s39.5 15.5 55.5 28.5s28.5 29.667 37.5 50s13.5 44.833 13.5 73.5s-4.83301 52.667 -14.5 72s-22.667 34.833 -39 46.5s-35 20 -56 25s-42.5 7.5 -64.5 7.5h-126z" />
    <glyph glyph-name="S" unicode="S" horiz-adv-x="533" 
d="M269 703c-30 0 -56.1689 -3.82812 -78.502 -11.4951s-40.666 -17.834 -54.999 -30.501s-25.166 -27.167 -32.499 -43.5s-11 -32.833 -11 -49.5c0 -25.333 5.83301 -46.833 17.5 -64.5s27.167 -33 46.5 -46s41.333 -24.5 66 -34.5l75.5 -30
c25.667 -10 50.834 -20.667 75.501 -32s46.667 -25 66 -41s34.833 -35 46.5 -57s17.5 -48.667 17.5 -80c0 -24 -5.5 -48.167 -16.5 -72.5s-26.833 -46.333 -47.5 -66s-45.834 -35.5 -75.501 -47.5s-62.834 -18 -99.501 -18c-40 0 -75.5 6.16699 -106.5 18.5
s-56.833 28.666 -77.5 48.999s-35.834 43.5 -45.501 69.5s-13.167 52.667 -10.5 80c0.666992 12 4.33398 20.5 11.001 25.5s13.334 7.16699 20.001 6.5s12.167 -4 16.5 -10s4.83301 -14.333 1.5 -25c-6.66699 -22 -7.83398 -45.167 -3.50098 -69.5s14.333 -46.833 30 -67.5
s37.334 -37.667 65.001 -51s61.5 -20 101.5 -20c29.333 0 56.666 4.66699 81.999 14s47.166 21.833 65.499 37.5s32.666 33.667 42.999 54s15.5 41.166 15.5 62.499c0 40.667 -10.167 73.334 -30.5 98.001s-45.666 45.167 -75.999 61.5s-63.166 30.5 -98.499 42.5
s-68.166 25.5 -98.499 40.5s-55.666 33.667 -75.999 56s-30.5 52.166 -30.5 89.499c0 22.667 5 44.167 15 64.5s24 38.333 42 54s39.667 28 65 37s53.666 13.5 84.999 13.5c34.667 0 65.167 -4.83301 91.5 -14.5s48.333 -22.334 66 -38.001s30.834 -33.334 39.501 -53.001
s12.334 -39.834 11.001 -60.501c-0.666992 -12 -4 -20.333 -10 -25s-12 -6.66699 -18 -6s-11 3.83398 -15 9.50098s-4.66699 13.5 -2 23.5c5.33301 16.667 6.66602 34.167 3.99902 52.5s-10.334 35.333 -23.001 51s-30.667 28.5 -54 38.5s-53.333 15 -90 15z" />
    <glyph glyph-name="T" unicode="T" horiz-adv-x="579" 
d="M219 0c-3.33301 0 -4.99902 1.16699 -4.99902 3.5s1.66699 3.5 5 3.5h36c6.66699 0 10 3.33301 10 10v660c0 6.66699 -3.33301 10 -10 10h-151c-24.667 -0.666992 -42.834 -8 -54.501 -22s-17.5 -30.333 -17.5 -49v-40h-7v118h529v-118h-7v41c0 18.667 -6 35 -18 49
s-30.667 21 -56 21h-156c-6.66699 0 -10 -3.33301 -10 -10v-660c0 -6.66699 3.33301 -10 10 -10h39c2.66699 0 4 -1.16699 4 -3.5s-1.33301 -3.5 -4 -3.5h-137v0z" />
    <glyph glyph-name="U" unicode="U" horiz-adv-x="631" 
d="M553 244c0 -47.333 -5.5 -87.3281 -16.5 -119.995s-26.333 -59.167 -46 -79.5s-43.334 -35 -71.001 -44s-57.834 -13.5 -90.501 -13.5c-34 0 -66 4.5 -96 13.5s-56.167 23.667 -78.5 44s-40 47.166 -53 80.499s-19.5 74.666 -19.5 123.999v428
c0 6.66699 -3.33301 10 -10 10h-30c-2.66699 0 -4.16699 1 -4.5 3s1.16699 3.33301 4.5 4h120c2.66699 0 4 -1.16699 4 -3.5s-1.33301 -3.5 -4 -3.5h-28c-6.66699 0 -10 -3.33301 -10 -10v-437c0 -52 5.66699 -94.167 17 -126.5s26.5 -57.333 45.5 -75
s40.833 -29.667 65.5 -36s50.334 -9.5 77.001 -9.5c30.667 0 59.334 4.16699 86.001 12.5s49.667 22.166 69 41.499s34.5 45.166 45.5 77.499s16.5 72.166 16.5 119.499v433c0 6.66699 -3.33301 10 -10 10h-37c-3.33301 0 -5 1.16699 -5 3.5s1.66699 3.5 5 3.5h102
c2.66699 0 4 -1.16699 4 -3.5s-1.33301 -3.5 -4 -3.5h-38c-6.66699 0 -10 -3.33301 -10 -10v-433z" />
    <glyph glyph-name="V" unicode="V" horiz-adv-x="625" 
d="M328 -6h-15l-256 693h-43c-2 0 -3 1.16699 -3 3.5s1 3.5 3 3.5h128c2.66699 0 4 -1.16699 4 -3.5s-1.33301 -3.5 -4 -3.5h-41l236 -637l211 637h-50c-3.33301 0 -5 1.16699 -5 3.5s1.66699 3.5 5 3.5h113c2.66699 0 4 -1.16699 4 -3.5s-1.33301 -3.5 -4 -3.5h-55z" />
    <glyph glyph-name="W" unicode="W" horiz-adv-x="945" 
d="M677 -6l-191 530l-164 -530h-15l-249 693h-48c-2.66699 0 -4 1.16699 -4 3.5s1.33301 3.5 4 3.5h130c3.33301 0 5 -1.16699 5 -3.5s-1.66699 -3.5 -5 -3.5h-38l229 -634l150 484l-53 150h-42c-2.66699 0 -4 1.16699 -4 3.5s1.33301 3.5 4 3.5h128c2 0 3 -1.16699 3 -3.5
s-1 -3.5 -3 -3.5h-42l229 -634l201 634h-52c-3.33301 0 -5 1.16699 -5 3.5s1.66699 3.5 5 3.5h113c2.66699 0 4 -1.16699 4 -3.5s-1.33301 -3.5 -4 -3.5h-53l-218 -693h-15z" />
    <glyph glyph-name="X" unicode="X" horiz-adv-x="572" 
d="M272 341l-209 346h-51c-2.66699 0 -4 1.16699 -4 3.5s1.33301 3.5 4 3.5h147c2 0 3 -1.16699 3 -3.5s-1 -3.5 -3 -3.5h-47l185 -304l184 304h-57c-2.66699 0 -4.16699 1.16699 -4.5 3.5s1.16699 3.5 4.5 3.5h128c2 0 3 -1.16699 3 -3.5s-1 -3.5 -3 -3.5h-62l-188 -312
l224 -368h41c2.66699 0 4 -1.16699 4 -3.5s-1.33301 -3.5 -4 -3.5h-139c-2 0 -3 1.16699 -3 3.5s1 3.5 3 3.5h45l-197 326l-197 -326h58c2.66699 0 4 -1.16699 4 -3.5s-1.33301 -3.5 -4 -3.5h-126c-2.66699 0 -4 1.16699 -4 3.5s1.33301 3.5 4 3.5h58z" />
    <glyph glyph-name="Y" unicode="Y" horiz-adv-x="547" 
d="M277 317l-212 370h-53c-2 0 -3 1.16699 -3 3.5s1 3.5 3 3.5h144c2.66699 0 4 -1.16699 4 -3.5s-1.33301 -3.5 -4 -3.5h-47l206 -353l201 353h-56c-2.66699 0 -4.16699 1.16699 -4.5 3.5s1.16699 3.5 4.5 3.5h128c2 0 3 -1.16699 3 -3.5s-1 -3.5 -3 -3.5h-63l-207 -361
v-309c0 -6.66699 3.33301 -10 10 -10h38c2.66699 0 4 -1.16699 4 -3.5s-1.33301 -3.5 -4 -3.5h-137c-2.66699 0 -4 1.16699 -4 3.5s1.33301 3.5 4 3.5h38c6.66699 0 10 3.33301 10 10v300z" />
    <glyph glyph-name="Z" unicode="Z" horiz-adv-x="572" 
d="M480 686h-326c-28 0 -47.833 -7.5 -59.5 -22.5s-17.5 -34.833 -17.5 -59.5v-54h-7v143h461l-446 -686h346c28.667 0 50.167 9.5 64.5 28.5s21.5 44.5 21.5 76.5v31h7v-143h-489z" />
    <glyph glyph-name="bracketleft" unicode="[" horiz-adv-x="193" 
d="M99 -167c0 -2.66699 1 -4 3 -4h48c1.33301 0 2 -0.833008 2 -2.5s-0.666992 -2.5 -2 -2.5h-84c-2 0 -3 1 -3 3l4 462l-5 428c0 2 1 3 3 3h85c1.33301 0 2 -0.833008 2 -2.5s-0.666992 -2.5 -2 -2.5h-48c-2 0 -3 -1.33301 -3 -4l-5 -422l5 -456v0z" />
    <glyph glyph-name="backslash" unicode="\" horiz-adv-x="428" 
d="M80 722c-1.33301 2.66699 -1.16602 4.16699 0.500977 4.5s3.16699 -0.833984 4.5 -3.50098l262 -746c1.33301 -3.33301 1.16602 -5.16602 -0.500977 -5.49902s-3.16699 1.16699 -4.5 4.5z" />
    <glyph glyph-name="bracketright" unicode="]" horiz-adv-x="193" 
d="M128 289l-5 422c0 2.66699 -1 4 -3 4h-47c-1.33301 0 -2 0.833008 -2 2.5s0.666992 2.5 2 2.5h84c2 0 3 -1 3 -3l-5 -428l4 -462c0 -2 -1 -3 -3 -3h-83c-1.33301 0 -2 0.833008 -2 2.5s0.666992 2.5 2 2.5h47c2 0 3 1.33301 3 4z" />
    <glyph glyph-name="asciicircum" unicode="^" horiz-adv-x="718" 
d="M359 529c-14 0 -28.001 -9.33301 -42.001 -28l-184 -311c-4 -6.66699 -8.83301 -10.5 -14.5 -11.5s-10.5 -0.166992 -14.5 2.5s-6.66699 6.66699 -8 12s0.666992 11.333 6 18l210 295c16 20 31.667 30 47 30s31 -10 47 -30l211 -295
c4.66699 -6 6.33398 -11.833 5.00098 -17.5s-4 -9.66699 -8 -12s-9 -3 -15 -2s-11 4.83301 -15 11.5l-183 310c-14 18.667 -28 28 -42 28z" />
    <glyph glyph-name="underscore" unicode="_" horiz-adv-x="500" 
d="M63 -21h359v-6h-359v6z" />
    <glyph glyph-name="grave" unicode="`" horiz-adv-x="254" 
d="M220 579l-3 -0.000976562l-48 43l-9.5 11.5c-3 3.66699 -4.5 8.16699 -4.5 13.5c0 6.66699 3.66699 10.334 11 11.001c10.667 0 19 -7 25 -21z" />
    <glyph glyph-name="a" unicode="a" 
d="M351 253c-4.66699 -32.667 -12.501 -64.5059 -23.501 -95.5059s-25.167 -58.5 -42.5 -82.5s-37.5 -43.333 -60.5 -58s-48.5 -22 -76.5 -22c-37.333 0 -66 9.66699 -86 29s-30 44.666 -30 75.999c0 26.667 6.83301 47.667 20.5 63s31.334 27.833 53.001 37.5
s46.167 17.834 73.5 24.501s54.666 14.667 81.999 24c20.667 6.66699 37 13.834 49 21.501s21.167 16.167 27.5 25.5s10.333 19.333 12 30s2.5 22.667 2.5 36c0 12 -2.16699 23.833 -6.5 35.5s-11 22.334 -20 32.001s-20.667 17.5 -35 23.5s-31.833 9 -52.5 9
c-20 0 -37.667 -3 -53 -9s-28.166 -13.667 -38.499 -23s-18.333 -20.166 -24 -32.499s-8.5 -24.833 -8.5 -37.5c0 -6.66699 1.16699 -13.334 3.5 -20.001s3.5 -13 3.5 -19c0 -6.66699 -2.16699 -12 -6.5 -16s-9.16602 -6 -14.499 -6c-6.66699 0 -12.167 3 -16.5 9
s-6.5 15.667 -6.5 29c0 18 4 34.833 12 50.5s19.333 29.334 34 41.001s31.667 21 51 28s40.666 10.5 63.999 10.5c26 0 48.5 -3.16699 67.5 -9.5s34.5 -14.666 46.5 -24.999s21 -22.5 27 -36.5s9 -28.333 9 -43v-312c0 -9.33301 2.83301 -17.666 8.5 -24.999
s13.5 -11 23.5 -11c8 0 15 3 21 9s9 14.333 9 25c0 2 0.666992 3 2 3c2 0 3 -1 3 -3c0 -15.333 -4.66699 -26.166 -14 -32.499s-21 -9.5 -35 -9.5c-17.333 0 -30.833 5.66699 -40.5 17s-14.5 27.333 -14.5 48v191zM154.999 3.99414c31.333 0 59.166 10.002 83.499 30.002
s44.833 45.167 61.5 75.5s29.334 63.5 38.001 99.5s13 70 13 102c-4 -14.667 -12.167 -26.834 -24.5 -36.501s-32.5 -19.5 -60.5 -29.5c-19.333 -6.66699 -40.166 -12.834 -62.499 -18.501s-43 -13.334 -62 -23.001s-35 -22.167 -48 -37.5s-19.5 -36.333 -19.5 -63v-9
c0 -25.333 7.16699 -46.666 21.5 -63.999s34.166 -26 59.499 -26z" />
    <glyph glyph-name="b" unicode="b" horiz-adv-x="530" 
d="M8 718c-2 0 -3.00098 0.829102 -3.00098 2.49609s1 2.5 3 2.5h113c2 0 3 -0.833008 3 -2.5s-1 -2.5 -3 -2.5h-15v-381c6.66699 22 16.334 41 29.001 57s26.834 29.5 42.501 40.5s32.334 19.167 50.001 24.5s35.5 8 53.5 8c28 0 54.667 -4.66699 80 -14
s47.666 -23.166 66.999 -41.499s34.666 -41.666 45.999 -69.999s17 -61.5 17 -99.5v-11c0 -32.667 -4.66699 -63.167 -14 -91.5s-23 -53.166 -41 -74.499s-40.167 -38.166 -66.5 -50.499s-56.833 -18.5 -91.5 -18.5c-44 0 -82.333 9.66699 -115 29s-56.667 48 -72 86
c-2 6 -5 9 -9 9c-5.33301 0 -8 -5 -8 -15v-105h-5v692c0 7.33301 -1.66699 13.5 -5 18.5s-8.33301 7.5 -15 7.5h-41zM280.999 461.996c-26 0 -49.668 -5 -71.001 -15s-39.833 -23.667 -55.5 -41s-27.667 -37.333 -36 -60s-12.5 -47 -12.5 -73v-49
c0 -69.333 13.667 -123.833 41 -163.5s71 -59.5 131 -59.5c30.667 0 56.834 5.83301 78.501 17.5s39.5 27.667 53.5 48s24.333 44.5 31 72.5s10 58.667 10 92v11c0 40 -4.66699 74 -14 102s-22 50.667 -38 68s-34.167 30 -54.5 38s-41.5 12 -63.5 12z" />
    <glyph glyph-name="c" unicode="c" horiz-adv-x="455" 
d="M252 462c-23.333 0 -45.4961 -4.50488 -66.4961 -13.5049s-39.333 -22.667 -55 -41s-28 -41.666 -37 -69.999s-13.5 -61.833 -13.5 -100.5v-11c0 -33.333 2.83301 -63.833 8.5 -91.5s15 -51.5 28 -71.5s30.333 -35.667 52 -47s48.5 -17 80.5 -17
c25.333 0 47.333 4.5 66 13.5s33.5 20.333 44.5 34s18.333 28.667 22 45s3.16699 31.833 -1.5 46.5c-2.66699 6.66699 -2.33398 12.334 0.999023 17.001s7.66602 7.5 12.999 8.5s10.5 -0.333008 15.5 -4s7.83301 -10.167 8.5 -19.5
c1.33301 -18 -2.33398 -35.833 -11.001 -53.5s-20.834 -33.167 -36.501 -46.5s-34 -24.166 -55 -32.499s-42.833 -12.5 -65.5 -12.5c-36.667 0 -68.167 5.83301 -94.5 17.5s-48.166 27.834 -65.499 48.501s-30.166 45.167 -38.499 73.5s-12.5 58.833 -12.5 91.5v11
c0 38 6.33301 71.333 19 100s29.167 52.667 49.5 72s43.166 33.833 68.499 43.5s50.666 14.5 75.999 14.5h7c24 0 46 -3 66 -9s37 -14.5 51 -25.5s24.667 -24.167 32 -39.5s10 -32 8 -50c-1.33301 -10 -4.5 -16.833 -9.5 -20.5s-10.167 -5 -15.5 -4
s-9.83301 3.83301 -13.5 8.5s-4.16699 10.334 -1.5 17.001c5.33301 14 6.83301 28.167 4.5 42.5s-8.5 27 -18.5 38s-23.5 20 -40.5 27s-37.833 10.5 -62.5 10.5h-7z" />
    <glyph glyph-name="d" unicode="d" horiz-adv-x="492" 
d="M380 252c-6 -29.333 -14.665 -59.1631 -25.998 -89.4961s-25.333 -57.833 -42 -82.5s-36 -44.834 -58 -60.501s-46.333 -23.5 -73 -23.5c-17.333 0 -34.333 3 -51 9s-31.834 16.333 -45.501 31s-24.667 34.667 -33 60s-12.5 57.666 -12.5 96.999v21
c0 40.667 7 76.667 21 108s32.667 57.666 56 78.999s50.166 37.5 80.499 48.5s61.5 16.5 93.5 16.5c15.333 0 30.333 -0.166992 45 -0.5s29.667 -0.5 45 -0.5v228c0 7.33301 -1.66699 13.333 -5 18s-8.33301 7 -15 7h-52c-2 0 -3 0.833008 -3 2.5s1 2.5 3 2.5h124
c2 0 3 -0.833008 3 -2.5s-1 -2.5 -3 -2.5h-15v-677c0 -24 10.333 -36 31 -36c8 0 15 3 21 9s9 14.333 9 25c0 2 1 3 3 3s3 -1 3 -3c0 -14.667 -4.33301 -25.334 -13 -32.001s-19.667 -10 -33 -10c-21.333 0 -36.333 7.33301 -45 22s-13 32.667 -13 54v179zM77.002 195.003
c0 -41.333 3.16602 -74.668 9.49902 -100.001s14.333 -45 24 -59s20.334 -23.333 32.001 -28s23.167 -7 34.5 -7h4c25.333 0 48.333 7.16699 69 21.5s39 33 55 56s29.667 48.833 41 77.5s20.333 57 27 85c2.66699 18.667 4.5 36.834 5.5 54.501s1.5 34.834 1.5 51.501v114
h-84c-33.333 0 -63.5 -5.83301 -90.5 -17.5s-50 -28.334 -69 -50.001s-33.667 -47.667 -44 -78s-15.5 -63.833 -15.5 -100.5v-20z" />
    <glyph glyph-name="e" unicode="e" horiz-adv-x="457" 
d="M240 -5c-36 0 -66.8291 6.16797 -92.4961 18.501s-46.667 29.333 -63 51s-28.166 47.167 -35.499 76.5s-10.666 61.333 -9.99902 96s7.16699 66.167 19.5 94.5s28.5 52.5 48.5 72.5s43.167 35.5 69.5 46.5s54.166 16.5 83.499 16.5c47.333 0 85.166 -10.333 113.499 -31
s42.5 -49.334 42.5 -86.001c0 -13.333 -3 -26 -9 -38s-14.167 -23 -24.5 -33s-22.333 -18.667 -36 -26s-28.167 -13 -43.5 -17c-25.333 -6 -51.5 -12.667 -78.5 -20s-51.167 -16.333 -72.5 -27s-37.833 -23.334 -49.5 -38.001s-14.834 -32.334 -9.50098 -53.001
c6.66699 -15.333 14 -29 22 -41s17.667 -22.333 29 -31s24.833 -15.167 40.5 -19.5s34.167 -6.5 55.5 -6.5c24.667 0 46.667 4.5 66 13.5s35.166 20.333 47.499 34s21 28.5 26 44.5s5.16699 31.333 0.5 46c-2.66699 7.33301 -2.16699 13.333 1.5 18
s8.16699 7.33398 13.5 8.00098s10.5 -0.833008 15.5 -4.5s7.5 -10.167 7.5 -19.5c0.666992 -18 -3.83301 -35.833 -13.5 -53.5s-22.834 -33.167 -39.501 -46.5s-35.834 -24.166 -57.501 -32.499s-44.167 -12.5 -67.5 -12.5zM379.004 354.001
c0 14.667 -2.16602 28.668 -6.49902 42.001s-11.333 24.833 -21 34.5s-22.334 17.334 -38.001 23.001s-35.167 8.5 -58.5 8.5c-52 0 -93.833 -18.833 -125.5 -56.5s-49.167 -90.834 -52.5 -159.501c-0.666992 -20.667 -0.166992 -41.667 1.5 -63s4.5 -41.666 8.5 -60.999
c2 18.667 9.83301 34.334 23.5 47.001s30.667 23.167 51 31.5s42.5 15.666 66.5 21.999l69 18.5c25.333 7.33301 45.333 20.666 60 39.999s22 43.666 22 72.999z" />
    <glyph glyph-name="f" unicode="f" horiz-adv-x="236" 
d="M34 0c-1.33301 0 -2.00098 0.831055 -2.00098 2.49805s0.666992 2.5 2 2.5h41c4.66699 0 7 2.33301 7 7v431c0 4.66699 -2.33301 7 -7 7h-50c-2 0 -3 0.666992 -3 2c0 2 1 3 3 3h50c4.66699 0 7 2.33301 7 7v32c0 38 5.16699 72 15.5 102s25.166 55.167 44.499 75.5
s42.833 35.333 70.5 45s58.5 12.834 92.5 9.50098c14 -1.33301 23.667 -4.66602 29 -9.99902s7.5 -10.5 6.5 -15.5s-4.66699 -9 -11 -12s-13.5 -3.5 -21.5 -1.5c-45.333 12 -80.666 15.5 -105.999 10.5s-44.166 -16.667 -56.499 -35s-19.833 -42 -22.5 -71
s-4 -61.5 -4 -97.5v-32c0 -4.66699 2.33301 -7 7 -7h70c2 0 3 -0.833008 3 -2.5s-1 -2.5 -3 -2.5h-70c-4.66699 0 -7 -2.33301 -7 -7v-431c0 -4.66699 2.33301 -7 7 -7h41c1.33301 0 2 -0.833008 2 -2.5s-0.666992 -2.5 -2 -2.5h-133v0z" />
    <glyph glyph-name="g" unicode="g" horiz-adv-x="498" 
d="M261 467c50.667 0 94 -12.333 130 -37c-6.66699 12.667 -10 25.667 -10 39c0 12.667 2.66699 24.5 8 35.5s12.5 20.833 21.5 29.5s19.333 15.5 31 20.5s23.5 7.5 35.5 7.5c13.333 0 22.666 -2.16699 27.999 -6.5s8 -9.5 8 -15.5c0 -5.33301 -1.83301 -9.83301 -5.5 -13.5
s-8.5 -5.5 -14.5 -5.5c-5.33301 0 -10.666 0.833008 -15.999 2.5s-10.666 2.5 -15.999 2.5c-20 0 -37.167 -6 -51.5 -18s-21.5 -26.333 -21.5 -43c0 -14.667 4 -28.334 12 -41.001c19.333 -14.667 34.666 -33 45.999 -55s17 -48 17 -78v-9
c0 -25.333 -4.33301 -49.166 -13 -71.499s-21.5 -41.833 -38.5 -58.5s-38.167 -29.834 -63.5 -39.501s-54.666 -14.5 -87.999 -14.5c-53.333 0 -97 12.333 -131 37c-22 -3.33301 -38.667 -12.5 -50 -27.5s-17 -31.167 -17 -48.5c0 -18 6.5 -34.5 19.5 -49.5
s33.167 -22.5 60.5 -22.5h227c18.667 0 35.334 -3.16699 50.001 -9.5s27.167 -15 37.5 -26s18.166 -23.5 23.499 -37.5s8 -28.667 8 -44c0 -18 -4 -35.833 -12 -53.5s-20.167 -33.5 -36.5 -47.5s-37.333 -25.333 -63 -34s-56.167 -13 -91.5 -13h-49c-38 0 -70.333 4 -97 12
s-48.5 18.333 -65.5 31s-29.333 27.167 -37 43.5s-11.5 32.5 -11.5 48.5c0 23.333 6.66699 44.5 20 63.5s31.333 32.167 54 39.5c-20.667 6.66699 -35.834 17.334 -45.501 32.001s-14.5 30.667 -14.5 48c0 11.333 2 22.5 6 33.5s9.66699 21 17 30s16.166 16.5 26.499 22.5
s22.166 10 35.499 12c-22 17.333 -38.5 38.333 -49.5 63s-16.5 51.667 -16.5 81v9c0 28 5.5 52.833 16.5 74.5s25.833 40 44.5 55s40.334 26.5 65.001 34.5s50.334 12 77.001 12zM261 462c-20.667 0 -40.834 -3 -60.501 -9s-37 -15.833 -52 -29.5
s-27.167 -31.334 -36.5 -53.001s-14 -48.167 -14 -79.5v-9c0 -26 3 -50 9 -72s15.5 -41 28.5 -57s29.833 -28.5 50.5 -37.5s45.334 -13.5 74.001 -13.5s53.334 4.5 74.001 13.5s37.5 21.5 50.5 37.5s22.667 35 29 57s9.5 46 9.5 72v9c0 31.333 -4.5 57.833 -13.5 79.5
s-21 39.334 -36 53.001s-32.333 23.5 -52 29.5s-39.834 9 -60.501 9zM143 -48c-10.667 0 -20.334 0.999023 -29.001 2.99902c-17.333 -4.66699 -31.333 -16 -42 -34s-16 -38 -16 -60c0 -16 2.66699 -31.833 8 -47.5s14.833 -30 28.5 -43s32.167 -23.5 55.5 -31.5
s52.666 -12 87.999 -12h49c32.667 0 60.5 3.66699 83.5 11s41.833 17 56.5 29s25.5 25.5 32.5 40.5s10.5 30.167 10.5 45.5c0 12.667 -2.33301 24.834 -7 36.501s-11.167 22.167 -19.5 31.5s-18.666 16.833 -30.999 22.5s-26.166 8.5 -41.499 8.5h-226z" />
    <glyph glyph-name="h" unicode="h" horiz-adv-x="494" 
d="M110 303c5.33301 21.333 13.167 41.8281 23.5 61.4951s22.666 37 36.999 52s30.833 27 49.5 36s39 13.5 61 13.5c24 0 44.667 -3.16699 62 -9.5s31.833 -14.833 43.5 -25.5s20.334 -22.667 26.001 -36s8.5 -27.333 8.5 -42v-312c0 -9.33301 2.83301 -17.666 8.5 -24.999
s13.5 -11 23.5 -11c8 0 15 3 21 9s9 14.333 9 25c0 2 0.833008 3 2.5 3s2.5 -1 2.5 -3c0 -15.333 -4.66699 -26.333 -14 -33s-21 -10 -35 -10c-17.333 0 -30.833 5.83301 -40.5 17.5s-14.5 27.834 -14.5 48.501v285c0 14.667 -2.5 29.334 -7.5 44.001
s-12.5 27.334 -22.5 38.001s-22.667 18.834 -38 24.501s-33.333 7.5 -54 5.5s-39.5 -8.5 -56.5 -19.5s-32 -25 -45 -42s-23.833 -36 -32.5 -57s-14.667 -42.833 -18 -65.5v-260c0 -6.66699 3.33301 -10 10 -10h31c2 0 3 -0.833008 3 -2.5s-1 -2.5 -3 -2.5h-118
c-2 -0 -3 0.833008 -3 2.5s1 2.5 3 2.5h30c6.66699 0 10 3.33301 10 10v677c0 7.33301 -1.66699 13.5 -5 18.5s-8.33301 7.5 -15 7.5h-41c-1.33301 0 -2 0.833008 -2 2.5s0.666992 2.5 2 2.5h113c1.33301 0 2 -0.833008 2 -2.5s-0.666992 -2.5 -2 -2.5h-15v-415v0z" />
    <glyph glyph-name="i" unicode="i" horiz-adv-x="179" 
d="M15 452c0 2 0.666992 2.99902 2 2.99902h102c2 0 3 -1 3 -3c0 -1.33301 -1 -2 -3 -2h-15v-409c0 -24 10.667 -36 32 -36c8 0 15 3 21 9s9 14.333 9 25c0 2 0.833008 3 2.5 3s2.5 -1 2.5 -3c0 -15.333 -4.66699 -26.333 -14 -33s-21 -10 -35 -10
c-17.333 0 -30.833 5.83301 -40.5 17.5s-14.5 27.834 -14.5 48.501v362c0 7.33301 -1.66699 13.5 -5 18.5s-8.33301 7.5 -15 7.5h-30c-1.33301 0 -2 0.666992 -2 2zM59 645.999c0 7.33301 2.5 13.333 7.5 18s11.167 7 18.5 7c16.667 0 25 -8.33301 25 -25
c0 -7.33301 -2.33301 -13.5 -7 -18.5s-10.667 -7.5 -18 -7.5s-13.5 2.5 -18.5 7.5s-7.5 11.167 -7.5 18.5z" />
    <glyph glyph-name="j" unicode="j" horiz-adv-x="179" 
d="M79 424c0 6.66699 -1.66895 12.665 -5.00195 17.998s-8 8 -14 8h-31c-1.33301 0 -2 0.666992 -2 2c0 2 0.666992 3 2 3h102c2 0 3 -1 3 -3c0 -1.33301 -1 -2 -3 -2h-15v-429c0 -90 -18 -158.667 -54 -206s-86.333 -71 -151 -71c-15.333 0 -26.5 2.33301 -33.5 7
s-10.833 9.83398 -11.5 15.501s1.33301 10.334 6 14.001s11.334 4.5 20.001 2.5c46.667 -10.667 82.834 -12.167 108.501 -4.5s44.167 22.5 55.5 44.5s18 50 20 84s3 72 3 114v403zM69.998 645.998c0 7.33301 2.5 13.333 7.5 18s11.167 7 18.5 7
c16.667 0 25 -8.33301 25 -25c0 -7.33301 -2.33301 -13.5 -7 -18.5s-10.667 -7.5 -18 -7.5s-13.5 2.5 -18.5 7.5s-7.5 11.167 -7.5 18.5z" />
    <glyph glyph-name="k" unicode="k" horiz-adv-x="445" 
d="M12 718c-1.33301 0 -2 0.833008 -2 2.5s0.666992 2.5 2 2.5h112c1.33301 0 2 -0.833008 2 -2.5s-0.666992 -2.5 -2 -2.5h-15v-703c0 -6.66699 3.33301 -10 10 -10h29c1.33301 0 2 -0.833008 2 -2.5s-0.666992 -2.5 -2 -2.5h-118c-1.33301 -0 -2 0.833008 -2 2.5
s0.666992 2.5 2 2.5h32c6.66699 0 10 3.33301 10 10v678c0 14.667 -6.66699 23 -20 25h-40zM361 5l-232 264.001l86.5 72l86.5 73c7.33301 5.33301 11 11.333 11 18c0 5.33301 -2.33301 9.66602 -7 12.999s-10 5 -16 5h-25c-2 0 -3 0.833008 -3 2.5s1 2.5 3 2.5h166
c2 0 3 -0.833008 3 -2.5s-1 -2.5 -3 -2.5h-15c-25.333 0 -46.5 -3.5 -63.5 -10.5s-34.5 -18.167 -52.5 -33.5l-141 -119l252 -282h43c1.33301 0 2 -0.833008 2 -2.5s-0.666992 -2.5 -2 -2.5h-143c-2 -0 -3 0.833008 -3 2.5s1 2.5 3 2.5h50z" />
    <glyph glyph-name="l" unicode="l" horiz-adv-x="192" 
d="M71 693c0 7.33301 -1.66699 13.332 -5 17.999s-8.33301 7 -15 7h-40c-1.33301 0 -2 0.666992 -2 2c0 2 0.666992 3 2 3h112c1.33301 0 2 -1 2 -3c0 -1.33301 -0.666992 -2 -2 -2h-15v-664c0 -15.333 3.5 -27.166 10.5 -35.499s17.167 -12.5 30.5 -12.5
c9.33301 0 17.5 3 24.5 9s10.5 14.667 10.5 26c0 2 0.833008 3 2.5 3s2.5 -1 2.5 -3c0 -14.667 -5 -25.834 -15 -33.501s-23 -11.5 -39 -11.5c-20 0.666992 -35.667 7.33398 -47 20.001s-17 30.667 -17 54v623v0z" />
    <glyph glyph-name="m" unicode="m" horiz-adv-x="811" 
d="M23 450c-2 0 -2.99902 0.825195 -2.99902 2.49219s1 2.5 3 2.5h104c2 0 3 -0.833008 3 -2.5s-1 -2.5 -3 -2.5h-15v-124c6.66699 18.667 15.667 36.5 27 53.5s24.166 32 38.499 45s30.5 23.167 48.5 30.5s37 11 57 11c24 0 44.833 -3.16699 62.5 -9.5
s32.334 -14.833 44.001 -25.5s20.5 -22.667 26.5 -36s9 -27.333 9 -42v-27c6.66699 18.667 15.667 36.5 27 53.5s24.166 32 38.499 45s30.5 23.167 48.5 30.5s37 11 57 11c24 0 44.833 -3.16699 62.5 -9.5s32.334 -14.833 44.001 -25.5s20.5 -22.667 26.5 -36
s9 -27.333 9 -42v-312c0 -9.33301 2.83301 -17.666 8.5 -24.999s13.5 -11 23.5 -11c8 0 15 3 21 9s9 14.333 9 25c0 2 0.833008 3 2.5 3s2.5 -1 2.5 -3c0 -15.333 -4.66699 -26.333 -14 -33s-21 -10 -35 -10c-17.333 0 -30.833 5.83301 -40.5 17.5
s-14.5 27.834 -14.5 48.501v285c0 14.667 -2.5 29.334 -7.5 44.001s-12.667 27.334 -23 38.001s-23.333 18.834 -39 24.501s-33.834 7.5 -54.501 5.5c-17.333 -2 -33.833 -7.16699 -49.5 -15.5s-30 -19 -43 -32s-24.667 -28 -35 -45s-18.5 -34.833 -24.5 -53.5v-298
c0 -6.66699 3.33301 -10 10 -10h39c2 0 3 -0.833008 3 -2.5s-1 -2.5 -3 -2.5h-133c-1.33301 0 -2 0.833008 -2 2.5s0.666992 2.5 2 2.5h37c6.66699 0 10 3.33301 10 10v332c0 14.667 -2.5 29.334 -7.5 44.001s-12.667 27.334 -23 38.001s-23.333 18.834 -39 24.501
s-33.834 7.5 -54.501 5.5c-17.333 -2 -33.833 -7.16699 -49.5 -15.5s-30 -19 -43 -32s-24.667 -28 -35 -45s-18.5 -34.833 -24.5 -53.5v-298c0 -6.66699 3.33301 -10 10 -10h36c1.33301 0 2 -0.833008 2 -2.5s-0.666992 -2.5 -2 -2.5h-133c-1.33301 -0 -2 0.833008 -2 2.5
s0.666992 2.5 2 2.5h40c6.66699 0 10 3.33301 10 10v409c0 7.33301 -1.66699 13.5 -5 18.5s-8.66602 7.5 -15.999 7.5h-31v0z" />
    <glyph glyph-name="n" unicode="n" horiz-adv-x="496" 
d="M24 0c-1.33301 0 -1.99902 0.828125 -1.99902 2.49512s0.666992 2.5 2 2.5h39c6.66699 0 10 3.33301 10 10v410c0 16.667 -7 25 -21 25h-29c-1.33301 0 -2 0.833008 -2 2.5s0.666992 2.5 2 2.5h102c2 0 3 -0.833008 3 -2.5s-1 -2.5 -3 -2.5h-15v-124
c6.66699 18.667 15.667 36.5 27 53.5s24.166 32 38.499 45s30.5 23.167 48.5 30.5s37 11 57 11c24 0 44.833 -3.16699 62.5 -9.5s32.334 -14.833 44.001 -25.5s20.5 -22.667 26.5 -36s9 -27.333 9 -42v-312c0 -9.33301 2.83301 -17.666 8.5 -24.999s13.5 -11 23.5 -11
c8 0 15 3 21 9s9 14.333 9 25c0 2 0.833008 3 2.5 3s2.5 -1 2.5 -3c0 -15.333 -4.66699 -26.333 -14 -33s-21 -10 -35 -10c-17.333 0 -30.833 5.83301 -40.5 17.5s-14.5 27.834 -14.5 48.501v285c0 14.667 -2.5 29.334 -7.5 44.001s-12.667 27.334 -23 38.001
s-23.333 18.834 -39 24.501s-33.834 7.5 -54.501 5.5c-17.333 -2 -33.833 -7.16699 -49.5 -15.5s-30 -19 -43 -32s-24.667 -28 -35 -45s-18.5 -34.833 -24.5 -53.5v-298c0 -6.66699 3.33301 -10 10 -10h37c2 0 3 -0.833008 3 -2.5s-1 -2.5 -3 -2.5h-133v0z" />
    <glyph glyph-name="o" unicode="o" horiz-adv-x="497" 
d="M249 467c28 0 54.6709 -4.66992 80.0039 -14.0029s47.666 -23.166 66.999 -41.499s34.666 -41.666 45.999 -69.999s17 -61.5 17 -99.5v-11c0 -32.667 -4.5 -63.167 -13.5 -91.5s-22.333 -53.166 -40 -74.499s-39.667 -38.166 -66 -50.499s-56.833 -18.5 -91.5 -18.5
s-65.167 6.16699 -91.5 18.5s-48.333 29.166 -66 50.499s-31 46.166 -40 74.499s-13.5 58.833 -13.5 91.5v11c0 18.667 3.16699 38.334 9.5 59.001s16.166 39 29.499 55c1.33301 16 7.16602 30.833 17.499 44.5s23.5 25.5 39.5 35.5s34 17.667 54 23s40.667 8 62 8z
M249.004 461.997c-20.667 0 -39.3359 -2.66504 -56.0029 -7.99805s-30.834 -12.5 -42.501 -21.5s-20.667 -19.5 -27 -31.5s-9.5 -24.333 -9.5 -37c0 -4.66699 0.666992 -9.5 2 -14.5s2 -9.83301 2 -14.5c0 -6.66699 -1.83301 -11.834 -5.5 -15.501s-8.16699 -5.5 -13.5 -5.5
c-8.66699 0 -15 5 -19 15c-3.33301 -3.33301 -3.66602 -7.83301 -0.999023 -13.5s4.33398 -11.5 5.00098 -17.5c-2 -7.33301 -3.83301 -16.833 -5.5 -28.5s-2.5 -22.834 -2.5 -33.501v-5c0 -33.333 3.33301 -64 10 -92s17 -52.167 31 -72.5s31.833 -36.333 53.5 -48
s47.5 -17.5 77.5 -17.5c30.667 0 56.834 5.83301 78.501 17.5s39.334 27.667 53.001 48s23.667 44.5 30 72.5s9.5 58.667 9.5 92v11c0 40 -4.66699 74 -14 102s-22 50.667 -38 68s-34.167 30 -54.5 38s-41.5 12 -63.5 12z" />
    <glyph glyph-name="p" unicode="p" horiz-adv-x="521" 
d="M22 450c-2 0 -2.99902 0.828125 -2.99902 2.49512s1 2.5 3 2.5h80c2.66699 0 4.16699 -0.666992 4.5 -2s0.5 -2.33301 0.5 -3v-95c15.333 38 38.166 66.167 68.499 84.5s62.166 27.5 95.499 27.5c28 0 54.833 -4.66699 80.5 -14s48.167 -23.166 67.5 -41.499
s34.666 -41.666 45.999 -69.999s17 -61.5 17 -99.5v-11c0 -32.667 -4.33301 -63.167 -13 -91.5s-21.667 -53.166 -39 -74.499s-38.666 -38.166 -63.999 -50.499s-54.666 -18.5 -87.999 -18.5c-17.333 0 -34.5 1.83301 -51.5 5.5s-33 9.83398 -48 18.501
s-28.667 20.5 -41 35.5s-22.5 34.167 -30.5 57.5v-348c0 -6.66699 3.33301 -10 10 -10h29c2 0 3 -0.833008 3 -2.5s-1 -2.5 -3 -2.5h-116c-2 0 -3 0.833008 -3 2.5s1 2.5 3 2.5h30c6.66699 0 10 3.33301 10 10v660c0 16.667 -7.33301 25 -22 25h-26zM271.001 461.995
c-39.333 0 -73.668 -11.333 -103.001 -34s-49.666 -54 -60.999 -94v-198c10.667 -40 29.5 -72.5 56.5 -97.5s65.167 -37.5 114.5 -37.5c28.667 0 53.334 5.83301 74.001 17.5s37.667 27.667 51 48s23.166 44.5 29.499 72.5s9.5 58.667 9.5 92v11c0 40 -4.66699 74 -14 102
s-22 50.667 -38 68s-34.333 30 -55 38s-42 12 -64 12z" />
    <glyph glyph-name="q" unicode="q" horiz-adv-x="484" 
d="M453 -245c2 0 3.00098 -0.833984 3.00098 -2.50098s-1 -2.5 -3 -2.5h-118c-1.33301 0 -2 0.833008 -2 2.5s0.666992 2.5 2 2.5h31c6.66699 0 10 3.33301 10 10v466c-6.66699 -28 -15.667 -55.833 -27 -83.5s-25 -52.5 -41 -74.5s-34.333 -39.833 -55 -53.5
s-43.334 -20.5 -68.001 -20.5c-17.333 0 -34.666 2.83301 -51.999 8.5s-33 15.667 -47 30s-25.333 34 -34 59s-13 57.167 -13 96.5v21c0 36.667 6.16699 70.334 18.5 101.001s28.833 57 49.5 79s44.167 39.167 70.5 51.5s53.166 18.5 80.499 18.5
c19.333 0 38.833 -2 58.5 -6s39.5 -8.33301 59.5 -13c0 4.66699 2.16699 7.5 6.5 8.5s9.16602 1.5 14.499 1.5h64c1.33301 0 2 -0.833008 2 -2.5s-0.666992 -2.5 -2 -2.5h-27c-7.33301 0 -12.666 -2.33301 -15.999 -7s-5 -10.667 -5 -18v-660c0 -6.66699 3.33301 -10 10 -10
h30zM77.001 194.999c0 -41.333 3.33691 -74.668 10.0039 -100.001s15 -44.666 25 -57.999s21.167 -22.166 33.5 -26.499s24.166 -6.5 35.499 -6.5h4c28 0 53.333 8.83301 76 26.5s42.167 40.167 58.5 67.5s29.333 57.5 39 90.5s15.5 64.833 17.5 95.5v157
c-36.667 9.33301 -63.834 14.666 -81.501 15.999s-29.167 2 -34.5 2c-28 0 -53.333 -6.5 -76 -19.5s-41.834 -30.5 -57.501 -52.5s-27.834 -47.833 -36.501 -77.5s-13 -61.167 -13 -94.5v-20z" />
    <glyph glyph-name="r" unicode="r" horiz-adv-x="349" 
d="M23 450c-1.33301 0 -2 0.831055 -2 2.49805s0.666992 2.5 2 2.5h103c1.33301 0 2 -0.833008 2 -2.5s-0.666992 -2.5 -2 -2.5h-15v-160c8.66699 23.333 20 45.333 34 66s29.667 39 47 55s36.166 28.833 56.499 38.5s40.833 15.167 61.5 16.5c22 0 33 -6.66699 33 -20
c0 -6 -1.83301 -10.5 -5.5 -13.5s-10.5 -4.5 -20.5 -4.5c-3.33301 0 -7 0.166992 -11 0.5s-7.66699 0.5 -11 0.5c-23.333 0 -45.166 -4.33301 -65.499 -13s-38.5 -20.667 -54.5 -36s-29.667 -33.666 -41 -54.999s-19 -44.666 -23 -69.999v-240
c0 -6.66699 3.33301 -10 10 -10h37c2 0 3 -0.833008 3 -2.5s-1 -2.5 -3 -2.5h-133c-2 -0 -3 0.833008 -3 2.5s1 2.5 3 2.5h39c6.66699 0 10 3.33301 10 10v409c0 7.33301 -1.66699 13.5 -5 18.5s-8.33301 7.5 -15 7.5h-31v0z" />
    <glyph glyph-name="s" unicode="s" horiz-adv-x="406" 
d="M205 461c-34.667 0 -63.9971 -8.16602 -87.9971 -24.499s-36 -38.833 -36 -67.5c0 -19.333 7.16699 -34.833 21.5 -46.5s32.333 -21.834 54 -30.501s45.167 -16.834 70.5 -24.501s48.833 -17 70.5 -28s39.667 -24.833 54 -41.5s21.5 -38.334 21.5 -65.001
c0 -16 -3.83301 -32.333 -11.5 -49s-18.667 -31.667 -33 -45s-32 -24.166 -53 -32.499s-44.833 -12.5 -71.5 -12.5c-28.667 0 -54.167 4.16699 -76.5 12.5s-41 19.166 -56 32.499s-26.333 28.833 -34 46.5s-10.834 35.5 -9.50098 53.5c0.666992 9.33301 3.5 16 8.5 20
s10.167 5.66699 15.5 5s9.83301 -3.33398 13.5 -8.00098s4.5 -11 2.5 -19c-4 -15.333 -4.66699 -31.166 -2 -47.499s9.5 -31.166 20.5 -44.499s26.333 -24.333 46 -33s43.834 -13 72.501 -13c20 0 38.667 3 56 9s32.333 14 45 24s22.667 21.5 30 34.5s11 26.5 11 40.5
c0 25.333 -7.16699 45.5 -21.5 60.5s-32.166 27.333 -53.499 37s-44.5 18.167 -69.5 25.5s-48.167 15.833 -69.5 25.5s-39.333 22 -54 37s-22 34.833 -22 59.5c0 16 3.66699 31 11 45s17.5 26 30.5 36s28.667 18 47 24s38.166 9 59.499 9c23.333 0 44.666 -3 63.999 -9
s35.666 -14.333 48.999 -25s23.5 -23.334 30.5 -38.001s9.5 -31 7.5 -49c-0.666992 -9.33301 -3.5 -15.833 -8.5 -19.5s-10.333 -5.16699 -16 -4.5s-10.167 3.16699 -13.5 7.5s-4 10.5 -2 18.5c4 14 5.16699 27.833 3.5 41.5s-6.83398 25.834 -15.501 36.501
s-21.167 19.334 -37.5 26.001s-36.833 10 -61.5 10z" />
    <glyph glyph-name="t" unicode="t" horiz-adv-x="196" 
d="M26 452c0 2 1 3 3 3h21c12 0.666992 21.667 4.5 29 11.5s12.833 15.5 16.5 25.5s6.16699 20.667 7.5 32s2 21.666 2 30.999h5v-79c0 -4.66699 -1.66699 -9 -5 -13s-9.33301 -6.66699 -18 -8h117c2.66699 0 4 -0.833008 4 -2.5s-1.33301 -2.5 -4 -2.5h-75
c-6.66699 0 -12 -1.83301 -16 -5.5s-6 -10.167 -6 -19.5v-371c0 -15.333 3.5 -27.166 10.5 -35.499s17.167 -12.5 30.5 -12.5c9.33301 0 17.5 3 24.5 9s10.5 14.667 10.5 26c0 2 1 3 3 3s3 -1 3 -3c0 -14.667 -5 -25.834 -15 -33.501s-23.333 -11.5 -40 -11.5
c-20 0.666992 -35.667 7.33398 -47 20.001s-17 30.667 -17 54v380h-41c-2 0 -3 0.666992 -3 2z" />
    <glyph glyph-name="u" unicode="u" horiz-adv-x="504" 
d="M430 41c0 -9.33301 2.66602 -17.666 7.99902 -24.999s13 -11 23 -11c8 0 15 3 21 9s9 14.333 9 25c0 2 1 3 3 3s3 -1 3 -3c0 -15.333 -4.83301 -26.166 -14.5 -32.499s-21.5 -9.5 -35.5 -9.5c-17.333 0 -30.666 5.66699 -39.999 17s-14 27.333 -14 48v198
c-6 -34 -14.667 -66.833 -26 -98.5s-25.166 -59.834 -41.499 -84.501s-35.333 -44.5 -57 -59.5s-45.834 -22.5 -72.501 -22.5c-17.333 0 -34 2.33301 -50 7s-30 12.5 -42 23.5s-21.667 26 -29 45s-11 43.167 -11 72.5v282c0 7.33301 -1.66699 13.333 -5 18s-8.33301 7 -15 7
h-30c-2 0 -3 0.833008 -3 2.5s1 2.5 3 2.5h117c2 0 3 -0.833008 3 -2.5s-1 -2.5 -3 -2.5h-30v-310c0 -31.333 2.83301 -56.166 8.5 -74.499s13.334 -32.166 23.001 -41.499s20.5 -15.333 32.5 -18s24 -4 36 -4c23.333 0 44.666 6.66699 63.999 20s36.5 31.166 51.5 53.499
s28 48 39 77s19.833 58.833 26.5 89.5l5 31c1.33301 8.66699 2.5 17.667 3.5 27s1.66699 19.666 2 30.999s0.5 25.666 0.5 42.999v71c0 6.66699 3.33301 10 10 10h17c6.66699 0 10 -3.33301 10 -10v-404z" />
    <glyph glyph-name="v" unicode="v" horiz-adv-x="486" 
d="M236 -1c-1.33301 -4 -3.66699 -6 -7 -6h-6c-4.66699 0 -7.33398 2 -8.00098 6l-176 451h-56c-2 0 -3 0.833008 -3 2.5s1 2.5 3 2.5h155c2 0 3 -0.833008 3 -2.5s-1 -2.5 -3 -2.5h-58l162 -415l136 369c8 21.333 8.33301 34.333 1 39s-18.666 7 -33.999 7h-22
c-2 0 -3 0.833008 -3 2.5s1 2.5 3 2.5h148c2 0 3 -0.833008 3 -2.5s-1 -2.5 -3 -2.5h-27c-14 0 -26 -3.5 -36 -10.5s-18 -18.5 -24 -34.5z" />
    <glyph glyph-name="w" unicode="w" horiz-adv-x="724" 
d="M496 -1c-1.33301 -4 -3.33594 -6 -6.00293 -6h-8c-3.33301 0 -5.33301 2 -6 6l-126 337l-113 -337c-1.33301 -4 -4.66602 -6 -9.99902 -6s-9 2 -11 6l-172 451h-56c-2 0 -3 0.833008 -3 2.5s1 2.5 3 2.5h155c2 0 3 -0.833008 3 -2.5s-1 -2.5 -3 -2.5h-58l158 -415
l104 309l-39 106h-56c-2 0 -3 0.833008 -3 2.5s1 2.5 3 2.5h155c1.33301 0 2 -0.833008 2 -2.5s-0.666992 -2.5 -2 -2.5h-58l153 -413l113 361c6 20.667 5.33301 34.5 -2 41.5s-18.666 10.5 -33.999 10.5h-18c-1.33301 0 -2 0.833008 -2 2.5s0.666992 2.5 2 2.5h149
c2 0 3 -0.833008 3 -2.5s-1 -2.5 -3 -2.5h-25c-13.333 0 -25.666 -3.5 -36.999 -10.5s-20.333 -20.167 -27 -39.5z" />
    <glyph glyph-name="x" unicode="x" horiz-adv-x="468" 
d="M294 0c-2 0 -3 0.833984 -3 2.50098s1 2.5 3 2.5h62l-134 214l-108 -165c-9.33301 -15.333 -11.666 -27.333 -6.99902 -36s14.334 -13 29.001 -13h38c2 0 3 -0.833008 3 -2.5s-1 -2.5 -3 -2.5h-167c-1.33301 0 -2 0.833008 -2 2.5s0.666992 2.5 2 2.5h32
c13.333 0 26 4.5 38 13.5s23 21.167 33 36.5l109 168l-141 227h-63c-2.66699 0 -4 0.833008 -4 2.5s1.33301 2.5 4 2.5h165c2 0 3 -0.833008 3 -2.5s-1 -2.5 -3 -2.5h-58l120 -192l96 147c9.33301 15.333 11.666 26.666 6.99902 33.999s-14.334 11 -29.001 11h-39
c-2 0 -3 0.833008 -3 2.5s1 2.5 3 2.5h167c2.66699 0 4 -0.833008 4 -2.5s-1.33301 -2.5 -4 -2.5h-28c-30 0 -54.667 -15.667 -74 -47l-97 -150l155 -248h53c2 0 3 -0.833008 3 -2.5s-1 -2.5 -3 -2.5h-159z" />
    <glyph glyph-name="y" unicode="y" horiz-adv-x="484" 
d="M223 -31c-28 -74.667 -59.1689 -128 -93.502 -160s-73.5 -48 -117.5 -48c-11.333 0 -22.833 1.16699 -34.5 3.5s-22.334 5.66602 -32.001 9.99902s-17.667 9.33301 -24 15s-9.5 11.5 -9.5 17.5c0 5.33301 1.66699 9.5 5 12.5s7.66602 4.5 12.999 4.5
c4.66699 0 9.33398 -1.33301 14.001 -4c34.667 -19.333 66.667 -29 96 -29c22 0 41.833 4.16699 59.5 12.5s33.334 20 47.001 35s25.834 32.833 36.501 53.5s20.667 43.334 30 68.001l16 43c-2.66699 -1.33301 -4.66699 -2 -6 -2c-5.33301 0 -10.333 3.33301 -15 10
l-171 439h-55c-2 0 -3 0.666992 -3 2c0 2 1 3 3 3h154c2 0 3 -1 3 -3c0 -1.33301 -1 -2 -3 -2h-58l162 -417l132 356c2.66699 7.33301 4.33398 13.5 5.00098 18.5s1 9.5 1 13.5c0 12 -3.83301 19.833 -11.5 23.5s-17.167 5.5 -28.5 5.5h-20c-1.33301 0 -2 0.666992 -2 2
c0 2 0.666992 3 2 3h154c2 0 3 -1 3 -3c0 -1.33301 -1 -2 -3 -2h-25c-18 0 -32.167 -5.5 -42.5 -16.5s-18.833 -25.167 -25.5 -42.5z" />
    <glyph glyph-name="z" unicode="z" horiz-adv-x="405" 
d="M329 450l-192.999 0.000976562c-21.333 0 -38.833 -6.5 -52.5 -19.5s-20.5 -28.5 -20.5 -46.5v-27h-5v98h315l-297 -450h214c19.333 0 35.666 7.66699 48.999 23s20 33.666 20 54.999v18h5v-101h-331z" />
    <glyph glyph-name="braceleft" unicode="{" horiz-adv-x="289" 
d="M252 -178c-29.333 0 -54.5029 4.66797 -75.5029 14.001s-38.167 22.5 -51.5 39.5s-23.166 37.333 -29.499 61s-9.5 49.5 -9.5 77.5c0 24 2.5 46.833 7.5 68.5s10.667 42.167 17 61.5l17 53.5c5 16.333 7.5 31.166 7.5 44.499c0 7.33301 -2.16699 13.833 -6.5 19.5
s-11.166 8.5 -20.499 8.5c-21.333 0 -35.666 -0.833008 -42.999 -2.5s-13.333 -2.5 -18 -2.5c-7.33301 0 -11 2.5 -11 7.5s3.66699 7.5 11 7.5c4.66699 0 10.667 -0.833008 18 -2.5s21.666 -2.5 42.999 -2.5c7.33301 0 13.666 2.83301 18.999 8.5s8 12.5 8 20.5
c0 13.333 -2.5 28.166 -7.5 44.499l-17 53c-6.33301 19 -12 39.333 -17 61s-7.5 44.5 -7.5 68.5c0 28 3.16699 53.667 9.5 77s16 43.5 29 60.5s29.5 30.333 49.5 40s43.667 14.5 71 14.5h7c2 0 3 -0.5 3 -1.5s-1 -1.5 -3 -1.5h-7c-37.333 0 -67.833 -11.667 -91.5 -35
s-35.5 -61.666 -35.5 -114.999c0 -22 2.16699 -43.667 6.5 -65s9 -41.833 14 -61.5l14 -57.5c4.33301 -18.667 6.5 -36.667 6.5 -54c0 -13.333 -3.66699 -26.333 -11 -39s-16.666 -19 -27.999 -19c-2 0 -3 -0.333008 -3 -1s1 -1 3 -1c12 0 21.5 -5.83301 28.5 -17.5
s10.5 -24.167 10.5 -37.5c0 -17.333 -2.33301 -35.833 -7 -55.5s-10 -39.834 -16 -60.501s-11.333 -41.667 -16 -63s-7 -42.333 -7 -63c0 -53.333 12.833 -91.666 38.5 -114.999s59.167 -35 100.5 -35c2 0 2.83301 -0.5 2.5 -1.5s-1.16602 -1.5 -2.49902 -1.5z" />
    <glyph glyph-name="bar" unicode="|" horiz-adv-x="149" 
d="M80 -23c0 -2.66699 -1 -4 -3 -4s-3 1.33301 -3 4v745c0 2.66699 1 4 3 4s3 -1.33301 3 -4v-745v0z" />
    <glyph glyph-name="braceright" unicode="}" horiz-adv-x="289" 
d="M36 -178c-1.33301 0 -2.1709 0.49707 -2.50391 1.49707s0.5 1.5 2.5 1.5c20.667 0 39.5 2.83301 56.5 8.5s31.667 14.5 44 26.5s21.833 27.5 28.5 46.5s10 41.833 10 68.5c0 20.667 -2.33301 41.667 -7 63s-10 42.333 -16 63s-11.333 40.834 -16 60.501
s-7 38.167 -7 55.5c0 13.333 3.5 25.833 10.5 37.5s16.5 17.5 28.5 17.5c2 0 3 0.333008 3 1s-1 1 -3 1c-11.333 0 -20.666 6.33301 -27.999 19s-11 25.667 -11 39c0 17.333 2.16699 35.333 6.5 54l14 57.5c5 19.667 9.66699 40.167 14 61.5s6.5 43 6.5 65
c0 26.667 -3.16699 49.5 -9.5 68.5s-15.166 34.5 -26.499 46.5s-24.666 20.833 -39.999 26.5s-32.333 8.5 -51 8.5h-7c-2 0 -3 0.5 -3 1.5s1 1.5 3 1.5h7c27.333 0 51 -4.83301 71 -14.5s36.5 -23 49.5 -40s22.667 -37.167 29 -60.5s9.5 -49 9.5 -77
c0 -24 -2.5 -46.833 -7.5 -68.5s-10.667 -42 -17 -61l-17 -53c-5 -16.333 -7.5 -31.166 -7.5 -44.499c0 -8 2.66699 -14.833 8 -20.5s11.666 -8.5 18.999 -8.5c21.333 0 35.666 0.833008 42.999 2.5s13.333 2.5 18 2.5c7.33301 0 11 -2.5 11 -7.5s-3.66699 -7.5 -11 -7.5
c-4.66699 0 -10.667 0.833008 -18 2.5s-21.666 2.5 -42.999 2.5c-9.33301 0 -16.166 -2.83301 -20.499 -8.5s-6.5 -12.167 -6.5 -19.5c0 -13.333 2.5 -28.166 7.5 -44.499l17 -53.5c6.33301 -19.333 12 -39.833 17 -61.5s7.5 -44.5 7.5 -68.5
c0 -28 -3.16699 -53.833 -9.5 -77.5s-16.166 -44 -29.499 -61s-30.5 -30.167 -51.5 -39.5s-46.167 -14 -75.5 -14z" />
    <glyph glyph-name="asciitilde" unicode="~" horiz-adv-x="542" 
d="M449 330c-2 -32.667 -11.498 -59.333 -28.498 -80s-40.833 -30.334 -71.5 -29.001c-17.333 0.666992 -33.166 5.83398 -47.499 15.501s-28.166 20 -41.499 31s-26.833 21.167 -40.5 30.5s-28.5 14.333 -44.5 15c-22.667 1.33301 -40.834 -6.16699 -54.501 -22.5
s-21.167 -37.166 -22.5 -62.499c0 -2 -1 -3 -3 -3s-3 1 -3 3c2 36.667 12.667 64.834 32 84.501s44.666 28.834 75.999 27.501c16.667 -0.666992 31.5 -5.33398 44.5 -14.001s25.667 -18.334 38 -29.001s25.166 -20.334 38.499 -29.001s28.666 -13.334 45.999 -14.001
c23.333 -0.666992 41.333 5.83301 54 19.5s20 32.834 22 57.501c0 2 1 3 3 3s3 -1.33301 3 -4z" />
    <glyph glyph-name="exclamdown" unicode="&#xa1;" horiz-adv-x="184" 
d="M89 271l0.00195312 -22c1.33301 -76.667 4 -152.5 8 -227.5s7.66699 -150.833 11 -227.5v-2c0 -6.66699 -2.16699 -11.834 -6.5 -15.501s-9.5 -5.5 -15.5 -5.5c-6.66699 0 -12.167 1.83301 -16.5 5.5s-6.5 8.83398 -6.5 15.501v2c3.33301 80 7.16602 159.5 11.499 238.5
s7.16602 158.5 8.49902 238.5v106c0 2.66699 1 4 3 4s3 -1.33301 3 -4v-106zM113.002 443c0 -7.33301 -2.66699 -13.666 -8 -18.999s-11.666 -8 -18.999 -8c-8 0 -14.667 2.66699 -20 8s-8 11.666 -8 18.999c0 8 2.66699 14.667 8 20s12 8 20 8
c7.33301 0 13.666 -2.66699 18.999 -8s8 -12 8 -20z" />
    <glyph glyph-name="cent" unicode="&#xa2;" horiz-adv-x="521" 
d="M283 590c0 -13.333 -0.166992 -27.168 -0.5 -41.501s-0.5 -28.166 -0.5 -41.499v-301c0 -13.333 0.166992 -26.5 0.5 -39.5s0.5 -26.167 0.5 -39.5c19.333 0 36.833 3.16699 52.5 9.5s29 14.333 40 24s19.333 20.5 25 32.5s8.5 23.667 8.5 35c0 3.33301 -0.5 7 -1.5 11
s-1.5 7.66699 -1.5 11c0 6 1.83301 10.333 5.5 13s7.5 4 11.5 4c5.33301 0 10 -2.33301 14 -7s6 -10.667 6 -18c0 -14.667 -4.5 -29.167 -13.5 -43.5s-21 -27.166 -36 -38.499s-32.167 -20.5 -51.5 -27.5s-39 -10.5 -59 -10.5l2 -134c0 -4.66699 -2 -7 -6 -7s-6 2 -6 6v37
c0 19.333 0.666992 52 2 98c-62 2 -110.333 23.667 -145 65s-52 98.333 -52 171v6c0 36.667 5.66699 69 17 97s26.166 51.667 44.499 71s39.333 34.166 63 44.499s47.834 16.166 72.501 17.499l-2 151c-1.33301 4.66699 0.666992 7 6 7c4 0 6 -2.33301 6 -7l-2 -150h9
c20 0 38.833 -2.33301 56.5 -7s33.167 -11.334 46.5 -20.001s23.833 -18.834 31.5 -30.501s12.167 -24.5 13.5 -38.5c0 -11.333 -2 -19.166 -6 -23.499s-8.66699 -7.16602 -14 -8.49902c-4.66699 -1.33301 -8.83398 -0.666016 -12.501 2.00098s-5.5 6.66699 -5.5 12
c0 4 0.666992 8.33301 2 13s2 9 2 13c0 22 -9.66699 41.333 -29 58s-47.666 25 -84.999 25h-9zM276 506.998c0 13.333 -0.166992 27.002 -0.5 41.002s-0.5 28 -0.5 42c-21.333 -1.33301 -41.5 -6.83301 -60.5 -16.5s-35.5 -23.834 -49.5 -42.501
s-25.167 -41.834 -33.5 -69.501s-12.5 -60.167 -12.5 -97.5v-6c0 -150.667 52 -227.667 156 -231v36.5c0 13 0.333008 27.167 1 42.5v301z" />
    <glyph glyph-name="sterling" unicode="&#xa3;" horiz-adv-x="529" 
d="M256 249c-3.33301 -30.667 -12.332 -55.168 -26.999 -73.501s-31.667 -33.166 -51 -44.499h199c19.333 0.666992 35.166 8 47.499 22s18.5 31.333 18.5 52v51h6v-130h-280c-25.333 -13.333 -53.333 -19.333 -84 -18c-7.33301 0 -12.333 1.33301 -15 4s-3.5 5.5 -2.5 8.5
s3.16699 5.5 6.5 7.5s7.66602 3 12.999 3h62c24.667 4.66699 42.5 16.834 53.5 36.501s18.5 52.167 22.5 97.5l7 79h-19l-112 -3c-4 0 -6 1.83301 -6 5.5s2 5.5 6 5.5l112 -3h19l7 71c2.66699 28 9.5 52.167 20.5 72.5s24.667 36.833 41 49.5s34.666 21.5 54.999 26.5
s41.833 6.16699 64.5 3.5c11.333 -1.33301 18.833 -4.5 22.5 -9.5s4.83398 -9.66699 3.50098 -14s-4.66602 -7.83301 -9.99902 -10.5s-11.333 -2.33398 -18 0.999023c-29.333 10 -53 14.833 -71 14.5s-32 -5.83301 -42 -16.5s-17.333 -25.667 -22 -45s-8 -43 -10 -71l-6 -72
h16l114 3c4 0 6 -1.83301 6 -5.5s-2 -5.5 -6 -5.5l-114 3h-17z" />
    <glyph glyph-name="currency" unicode="&#xa4;" horiz-adv-x="355" 
d="M94 373c0 12.667 2.33398 24.334 7.00098 35.001s11 20 19 28l-9 11l-41 33c-2 2 -3 4 -3 6s0.833008 3.83301 2.5 5.5s3.5 2.5 5.5 2.5s4 -1 6 -3l33 -41l10 -10c17.333 14 36.666 21 57.999 21c22 0 41 -7 57 -21l11 10l33 41c2 2 4 3 6 3s3.83301 -0.833008 5.5 -2.5
s2.5 -3.5 2.5 -5.5s-1 -4 -3 -6l-41 -33l-10 -11c8 -8 14.333 -17.333 19 -28s7 -22.334 7 -35.001c0 -26 -8.66699 -47 -26 -63l10 -11l41 -33c2 -2 3 -4 3 -6s-0.833008 -3.83301 -2.5 -5.5s-3.5 -2.5 -5.5 -2.5s-4 1 -6 3l-33 41l-11 10
c-15.333 -13.333 -34.333 -20 -57 -20s-41.667 6.66699 -57 20l-11 -10l-33 -41c-2 -2 -4 -3 -6 -3s-3.83301 0.833008 -5.5 2.5s-2.5 3.5 -2.5 5.5s1 4 3 6l41 33l10 10c-18 16.667 -27 38 -27 64zM99.001 373c0 -23.333 8 -42.833 24 -58.5s35.667 -23.5 59 -23.5
s42.833 7.83301 58.5 23.5s23.5 35.167 23.5 58.5s-7.83301 43 -23.5 59s-35.167 24 -58.5 24s-43 -8 -59 -24s-24 -35.667 -24 -59z" />
    <glyph glyph-name="yen" unicode="&#xa5;" horiz-adv-x="530" 
d="M246 299l-128 -3c-4 0 -6 1.66699 -6 5c0 4 2 6 6 6l128 -3v28l-2 3l-126 -3c-4 0 -6 1.66699 -6 5c0 4 2 6 6 6l112 -3h11l-136 237h-35c-1.33301 0 -2 0.666992 -2 2s0.666992 2 2 2h103c1.33301 0 2 -0.666992 2 -2s-0.666992 -2 -2 -2h-31l136 -234l66.5 117
l67.5 117h-38c-2 0 -3 0.666992 -3 2s1 2 3 2h84c1.33301 0 2 -0.666992 2 -2s-0.666992 -2 -2 -2h-41l-136 -237l136 3c4 0 6 -2 6 -6c0 -3.33301 -2 -5 -6 -5l-137 3v-31l137 3c4 0 6 -2 6 -6c0 -3.33301 -2 -5 -6 -5l-137 3v-160c0 -3.33301 2 -5 6 -5h27
c2 0 3 -0.666992 3 -2s-1 -2 -3 -2h-100c-1.33301 0 -2 0.666992 -2 2s0.666992 2 2 2h24c6 0 9 1.66699 9 5v160z" />
    <glyph glyph-name="brokenbar" unicode="&#xa6;" horiz-adv-x="289" 
d="M146 171c0 -10.667 1.16699 -24.833 3.5 -42.5s5 -35.167 8 -52.5s5.83301 -33 8.5 -47s4 -22.333 4 -25c0 -17.333 -8.66699 -26 -26 -26c-7.33301 0 -13.333 2.5 -18 7.5s-7 11.167 -7 18.5c0 3.33301 1 11.833 3 25.5l7 47c2.66699 17.667 5 35.167 7 52.5
s3 31.333 3 42v137h7v-137zM146 396.001l-7 0.000976562v137c0 10.667 -1 24.667 -3 42s-4.33301 34.833 -7 52.5l-7 47c-2 13.667 -3 22.167 -3 25.5c0 7.33301 2.33301 13.5 7 18.5s10.667 7.5 18 7.5c17.333 0 26 -8.66699 26 -26c0 -3.33301 -1.33301 -11.833 -4 -25.5
s-5.5 -29.334 -8.5 -47.001s-5.66699 -35.167 -8 -52.5s-3.5 -31.333 -3.5 -42v-137z" />
    <glyph glyph-name="section" unicode="&#xa7;" horiz-adv-x="605" 
d="M540 199c0 -10 -1.50098 -21.333 -4.50098 -34s-7.33301 -25.5 -13 -38.5s-12.5 -26 -20.5 -39s-17 -24.833 -27 -35.5c17.333 -15.333 31 -32.666 41 -51.999s15 -43 15 -71c0 -23.333 -5 -46.333 -15 -69s-24.5 -42.834 -43.5 -60.501s-42.333 -31.834 -70 -42.501
s-59.167 -16 -94.5 -16c-38 0 -72 6.83301 -102 20.5s-54.5 31.667 -73.5 54s-31.667 47.5 -38 75.5s-5.16602 56.333 3.50098 85c3.33301 10.667 8.16602 18 14.499 22s12.333 5.5 18 4.5s10 -4.16699 13 -9.5s2.83301 -12 -0.5 -20
c-11.333 -24.667 -16.166 -50.334 -14.499 -77.001s9.5 -51 23.5 -73s34.333 -40.167 61 -54.5s59 -21.5 97 -21.5c28 0 53.667 4.5 77 13.5s43.333 20.833 60 35.5s29.667 31.5 39 50.5s14 38.833 14 59.5c0 37.333 -9.66699 67.833 -29 91.5
s-43.666 43.834 -72.999 60.501s-60.833 31 -94.5 43s-65.167 25.333 -94.5 40s-53.666 32.167 -72.999 52.5s-29 46.5 -29 78.5c0 26 8.16699 52.167 24.5 78.5s38.166 49.5 65.499 69.5c-26.667 14.667 -48.334 32.834 -65.001 54.501s-25 49.834 -25 84.501
c0 18.667 4.16699 37.834 12.5 57.501s21 37.167 38 52.5s38.333 28 64 38s55.5 15 89.5 15c34.667 0 65.334 -4.83301 92.001 -14.5s49 -22.334 67 -38.001s31.167 -33.334 39.5 -53.001s11.5 -39.834 9.5 -60.501c-1.33301 -11.333 -4.83301 -19.166 -10.5 -23.499
s-11.167 -6 -16.5 -5s-9.83301 4.33301 -13.5 10s-4.16699 12.5 -1.5 20.5c5.33301 16.667 6.66602 34.167 3.99902 52.5s-10.5 35.333 -23.5 51s-31.5 28.667 -55.5 39s-54.333 15.5 -91 15.5c-29.333 0 -54.833 -4 -76.5 -12s-39.5 -18.333 -53.5 -31
s-24.5 -27.167 -31.5 -43.5s-10.5 -32.833 -10.5 -49.5c0 -34.667 9.83301 -62.5 29.5 -83.5s44.5 -38.833 74.5 -53.5s62.167 -28 96.5 -40s66.5 -26.333 96.5 -43s54.833 -37.5 74.5 -62.5s29.5 -57.833 29.5 -98.5zM507.999 175
c0 26.667 -4.82812 49.6689 -14.4951 69.002s-22.334 36.166 -38.001 50.499s-33.834 26.666 -54.501 36.999s-42.334 19.833 -65.001 28.5l-68 26c-22.667 8.66699 -43.667 18.334 -63 29.001c-22 -18.667 -38.5 -38.667 -49.5 -60s-16.5 -42 -16.5 -62
c0 -22.667 5.5 -42 16.5 -58s25.667 -30.167 44 -42.5s39.166 -23.333 62.499 -33l71.5 -29c24.333 -9.66699 48.166 -20.167 71.499 -31.5s44.333 -24.666 63 -39.999c14 19.333 24.167 39.666 30.5 60.999s9.5 39.666 9.5 54.999z" />
    <glyph glyph-name="dieresis" unicode="&#xa8;" horiz-adv-x="372" 
d="M274 560c-7.33301 0 -13.5 2.5 -18.5 7.5s-7.5 11.167 -7.5 18.5s2.5 13.5 7.5 18.5s11.167 7.5 18.5 7.5s13.5 -2.5 18.5 -7.5s7.5 -11.167 7.5 -18.5s-2.5 -13.5 -7.5 -18.5s-11.167 -7.5 -18.5 -7.5zM112 560c-7.33301 0 -13.5 2.5 -18.5 7.5s-7.5 11.167 -7.5 18.5
s2.5 13.5 7.5 18.5s11.167 7.5 18.5 7.5s13.5 -2.5 18.5 -7.5s7.5 -11.167 7.5 -18.5s-2.5 -13.5 -7.5 -18.5s-11.167 -7.5 -18.5 -7.5z" />
    <glyph glyph-name="copyright" unicode="&#xa9;" horiz-adv-x="820" 
d="M100 357c0 42.667 8.16699 82.834 24.5 120.501s38.5 70.5 66.5 98.5s60.833 50.167 98.5 66.5s77.834 24.5 120.501 24.5s82.834 -8.16699 120.501 -24.5s70.5 -38.5 98.5 -66.5s50.167 -60.833 66.5 -98.5s24.5 -77.834 24.5 -120.501s-8.16699 -82.834 -24.5 -120.501
s-38.5 -70.5 -66.5 -98.5s-60.833 -50.167 -98.5 -66.5s-77.834 -24.5 -120.501 -24.5s-82.834 8.16699 -120.501 24.5s-70.5 38.5 -98.5 66.5s-50.167 60.833 -66.5 98.5s-24.5 77.834 -24.5 120.501zM105 357c0 -42 8 -81.5 24 -118.5s37.833 -69.333 65.5 -97
s60 -49.5 97 -65.5s76.5 -24 118.5 -24s81.5 8 118.5 24s69.333 37.833 97 65.5s49.5 60 65.5 97s24 76.5 24 118.5s-8 81.5 -24 118.5s-37.833 69.333 -65.5 97s-60 49.5 -97 65.5s-76.5 24 -118.5 24s-81.5 -8 -118.5 -24s-69.333 -37.833 -97 -65.5s-49.5 -60 -65.5 -97
s-24 -76.5 -24 -118.5zM421 194c-26.667 0 -50.335 4.16895 -71.002 12.502s-38 19.833 -52 34.5s-24.5 32 -31.5 52s-10.5 41.667 -10.5 65v8c0 26.667 4.83301 50.167 14.5 70.5s22.167 37.166 37.5 50.499s32.5 23.5 51.5 30.5s38.167 10.5 57.5 10.5h2
c16.667 -0.666992 30.5 -3.16699 41.5 -7.5s22.167 -11.166 33.5 -20.499c2.66699 -2 5.83398 -3.66699 9.50098 -5s7.33398 -1.83301 11.001 -1.5s6.83398 2 9.50098 5s4 7.5 4 13.5v8h6v-124h-6v7c0 14.667 -2.16699 29 -6.5 43s-11 26.5 -20 37.5
s-20.167 20.167 -33.5 27.5s-29 11.333 -47 12h-4c-16.667 0 -32.5 -3.33301 -47.5 -10s-28.167 -16.5 -39.5 -29.5s-20.333 -29.333 -27 -49s-10 -42.5 -10 -68.5v-8c0 -23.333 2.5 -44.666 7.5 -63.999s12.667 -36 23 -50s23.666 -25 39.999 -33s35.833 -12 58.5 -12
c17.333 1.33301 32.5 5.66602 45.5 12.999s24 16.666 33 27.999s15.833 24 20.5 38s7 28 7 42v6h6v-123h-6v10c0 6 -1.5 10 -4.5 12s-6.5 3 -10.5 3s-8.16699 -0.833008 -12.5 -2.5s-7.83301 -3.5 -10.5 -5.5c-8.66699 -7.33301 -19 -13.333 -31 -18
s-24.667 -7.33398 -38 -8.00098z" />
    <glyph glyph-name="ordfeminine" unicode="&#xaa;" horiz-adv-x="369" 
d="M253 557c-3.33301 -22 -8.5 -43.1689 -15.5 -63.502s-16 -38.166 -27 -53.499s-24 -27.666 -39 -36.999s-31.833 -14 -50.5 -14c-26 0 -45.833 6.5 -59.5 19.5s-20.5 29.833 -20.5 50.5c0 18.667 4.5 33.5 13.5 44.5s20.667 19.833 35 26.5s30.666 12.334 48.999 17.001
s36.833 10 55.5 16c13.333 4 24 8.5 32 13.5s14 10.5 18 16.5s6.66699 12.667 8 20s2 15 2 23c0 7.33301 -1.33301 15 -4 23s-7 15.167 -13 21.5s-13.667 11.5 -23 15.5s-20.666 6 -33.999 6c-26 0 -46 -7.16699 -60 -21.5s-21 -30.166 -21 -47.499
c0 -4.66699 0.666992 -9.33398 2 -14.001s2 -9 2 -13c0 -5.33301 -1.66699 -9.66602 -5 -12.999s-7 -5 -11 -5c-5.33301 0 -9.83301 2.33301 -13.5 7s-5.5 12.667 -5.5 24c0 12 2.83301 23.167 8.5 33.5s13.5 19.5 23.5 27.5s21.833 14.333 35.5 19s28.5 7 44.5 7
c36 0 62.167 -7.33301 78.5 -22s24.5 -32.667 24.5 -54v-207c0 -6.66699 1.66699 -12.334 5 -17.001s8 -7 14 -7c8.66699 0 14.167 2.66699 16.5 8s3.5 9.66602 3.5 12.999c0 1.33301 0.666992 2 2 2s2 -0.666992 2 -2c0 -10 -3.33301 -17.667 -10 -23s-14.667 -8 -24 -8
c-12 0 -21.5 4 -28.5 12s-10.5 19 -10.5 33v123zM128 397.998c18.667 0 35.167 5.33203 49.5 15.999s26.5 24.334 36.5 41.001s18.167 35.334 24.5 56.001s10.5 41 12.5 61l2 30c-3.33301 -10.667 -10 -19.167 -20 -25.5s-21.667 -12 -35 -17s-27.333 -9.66699 -42 -14
s-28 -10 -40 -17s-22 -15.833 -30 -26.5s-12 -24.334 -12 -41.001v-3c0 -18 5 -32.5 15 -43.5s23 -16.5 39 -16.5z" />
    <glyph glyph-name="guillemotleft" unicode="&#xab;" horiz-adv-x="530" 
d="M448 513c2 2 3.83301 2.33301 5.5 1s1.5 -3 -0.5 -5l-210 -211l-1 -1v-1l1 -1l210 -225c2 -2 2.16699 -3.66699 0.5 -5s-3.5 -1 -5.5 1l-231 213c-14.667 11.333 -14.667 23 0 35zM276 513c2 2 3.83301 2.33301 5.5 1s1.5 -3 -0.5 -5l-210 -211l-1 -1v-1l1 -1l210 -225
c2 -2 2.16699 -3.66699 0.5 -5s-3.5 -1 -5.5 1l-231 213c-14.667 11.333 -14.667 23 0 35z" />
    <glyph glyph-name="logicalnot" unicode="&#xac;" horiz-adv-x="388" 
d="M59 255h229c16.667 0 25 -7.66699 25 -23v-71h-6v71c0 11.333 -6.33301 17 -19 17h-229v6z" />
    <glyph glyph-name="uni00AD" unicode="&#xad;" horiz-adv-x="424" 
d="M63 261h275v-6h-275v6z" />
    <glyph glyph-name="registered" unicode="&#xae;" horiz-adv-x="833" 
d="M100 357c0 42.667 8.16699 82.834 24.5 120.501s38.5 70.5 66.5 98.5s60.833 50.167 98.5 66.5s77.834 24.5 120.501 24.5s82.834 -8.16699 120.501 -24.5s70.5 -38.5 98.5 -66.5s50.167 -60.833 66.5 -98.5s24.5 -77.834 24.5 -120.501s-8.16699 -82.834 -24.5 -120.501
s-38.5 -70.5 -66.5 -98.5s-60.833 -50.167 -98.5 -66.5s-77.834 -24.5 -120.501 -24.5s-82.834 8.16699 -120.501 24.5s-70.5 38.5 -98.5 66.5s-50.167 60.833 -66.5 98.5s-24.5 77.834 -24.5 120.501zM105 357c0 -42 8 -81.5 24 -118.5s37.833 -69.333 65.5 -97
s60 -49.5 97 -65.5s76.5 -24 118.5 -24s81.5 8 118.5 24s69.333 37.833 97 65.5s49.5 60 65.5 97s24 76.5 24 118.5s-8 81.5 -24 118.5s-37.833 69.333 -65.5 97s-60 49.5 -97 65.5s-76.5 24 -118.5 24s-81.5 -8 -118.5 -24s-69.333 -37.833 -97 -65.5s-49.5 -60 -65.5 -97
s-24 -76.5 -24 -118.5zM293 196c-2 0 -3 0.832031 -3 2.49902s1 2.5 3 2.5h15c6.66699 0 10 3.33301 10 10v300c0 6.66699 -3.33301 10 -10 10h-15c-2 0 -3 0.833008 -3 2.5s1 2.5 3 2.5h122c12.667 0 25.5 -1.5 38.5 -4.5s24.667 -7.5 35 -13.5s18.833 -13.667 25.5 -23
s10 -20.666 10 -33.999c0 -25.333 -9.83301 -44.666 -29.5 -57.999s-42.5 -21 -68.5 -23c15.333 -5.33301 30.166 -14.166 44.499 -26.499s26.5 -28.833 36.5 -49.5c5.33301 -11.333 10.333 -23 15 -35l12.5 -32.5c3.66699 -9.66699 7.16699 -17.667 10.5 -24
s6.66602 -9.5 9.99902 -9.5c1.33301 0 3.33301 0.666992 6 2c1.33301 1.33301 2.5 1.16602 3.5 -0.500977s0.5 -3.16699 -1.5 -4.5s-4.66699 -2 -8 -2c-11.333 0 -23.666 6.83301 -36.999 20.5s-29 39.167 -47 76.5c-8 17.333 -15 31.5 -21 42.5s-12 19.667 -18 26
s-12.167 10.666 -18.5 12.999s-13.166 3.5 -20.499 3.5h-41v-159c0 -6.66699 3.33301 -10 10 -10h16c2.66699 0 4 -0.833008 4 -2.5s-1.33301 -2.5 -4 -2.5h-85zM486 450.999c0 26.667 -7.33301 45 -22 55s-31 15 -49 15h-53c-6.66699 0 -10 -3.33301 -10 -10v-136h63
c19.333 0 36 5.66699 50 17s21 31 21 59z" />
    <glyph glyph-name="macron" unicode="&#xaf;" horiz-adv-x="400" 
d="M59 556h278v-7h-278v7z" />
    <glyph glyph-name="degree" unicode="&#xb0;" horiz-adv-x="304" 
d="M69 575c0 24.667 8.5 45.5 25.5 62.5s37.833 25.5 62.5 25.5s45.334 -8.5 62.001 -25.5s25 -37.833 25 -62.5s-8.33301 -45.334 -25 -62.001s-37.334 -25 -62.001 -25s-45.5 8.33301 -62.5 25s-25.5 37.334 -25.5 62.001zM74 575c0 -23.333 8 -42.833 24 -58.5
s35.667 -23.5 59 -23.5s42.833 7.83301 58.5 23.5s23.5 35.167 23.5 58.5s-7.83301 43 -23.5 59s-35.167 24 -58.5 24s-43 -8 -59 -24s-24 -35.667 -24 -59z" />
    <glyph glyph-name="plusminus" unicode="&#xb1;" horiz-adv-x="577" 
d="M111 310c-7.33301 0 -11 3.5 -11 10.5s3.66699 10.5 11 10.5l143 -8h32v32l-8 143c0 7.33301 3.5 11 10.5 11s10.5 -3.66699 10.5 -11l-8 -143v-32h32l143 8c7.33301 0 11 -3.5 11 -10.5s-3.66699 -10.5 -11 -10.5l-143 8h-32v-33l8 -143c0 -7.33301 -3.5 -11 -10.5 -11
s-10.5 3.66699 -10.5 11l8 143v33h-32zM111 47c-7.33301 0 -11 3.5 -11 10.5s3.66699 10.5 11 10.5l143 -8h69l143 8c7.33301 0 11 -3.5 11 -10.5s-3.66699 -10.5 -11 -10.5l-143 8h-69z" />
    <glyph glyph-name="twosuperior" unicode="&#xb2;" horiz-adv-x="298" 
d="M57 427c0.666992 16.667 4.99805 31.666 12.998 44.999s18 25.666 30 36.999s24.833 22 38.5 32s26.5 20.333 38.5 31s21.833 21.834 29.5 33.501s11.5 24.834 11.5 39.501c0 15.333 -5 28.833 -15 40.5s-26.667 17.5 -50 17.5c-14.667 0 -26.667 -2.83301 -36 -8.5
s-16.5 -12.834 -21.5 -21.501s-8 -17.667 -9 -27s0.166992 -17.333 3.5 -24c2.66699 -7.33301 2.83398 -13.166 0.500977 -17.499s-5.66602 -7 -9.99902 -8s-8.83301 0 -13.5 3s-7.66699 8.5 -9 16.5c-2 10 -1.33301 20.333 2 31s9 20.5 17 29.5s18.333 16.5 31 22.5
s27.667 9 45 9c32 0 56.167 -7 72.5 -21s24.5 -30.667 24.5 -50c0 -13.333 -4.66699 -25.5 -14 -36.5s-20.833 -21.5 -34.5 -31.5s-28.667 -20.167 -45 -30.5s-31.333 -21 -45 -32s-25.167 -22.833 -34.5 -35.5s-14 -27 -14 -43c0 -2 1 -3 3 -3h174c2 0 3 1 3 3v20
c0 2 0.833008 3 2.5 3s2.5 -1 2.5 -3v-55h-191v34z" />
    <glyph glyph-name="threesuperior" unicode="&#xb3;" horiz-adv-x="285" 
d="M139 573c-5.33301 0 -9.49414 1.16016 -12.4941 3.49316s-4.5 5 -4.5 8s1.33301 5.83301 4 8.5s6.66699 4 12 4c6 0 12 -0.666992 18 -2s11.667 -3.66602 17 -6.99902c12 5.33301 20.667 13 26 23s8 22 8 36c0 12 -4.33301 24.333 -13 37s-25 19 -49 19
c-14.667 0 -26.5 -2.5 -35.5 -7.5s-16 -11.167 -21 -18.5s-8.16699 -15 -9.5 -23s-1 -15.333 1 -22c1.33301 -6 0.666016 -10.833 -2.00098 -14.5s-6 -5.66699 -10 -6s-7.83301 0.833984 -11.5 3.50098s-5.5 7.66699 -5.5 15c0 8 1.66699 16.667 5 26
s8.83301 17.833 16.5 25.5s17.5 14 29.5 19s26.333 7.5 43 7.5c14.667 0 27.5 -2 38.5 -6s20.167 -9 27.5 -15s12.666 -12.667 15.999 -20s5 -14 5 -20c0 -12 -4.33301 -23.5 -13 -34.5s-22.334 -19.5 -41.001 -25.5c26 -5.33301 45.667 -16.166 59 -32.499
s20 -37.166 20 -62.499c0 -10.667 -2.33301 -22.167 -7 -34.5s-11.834 -23.666 -21.501 -33.999s-22 -19 -37 -26s-32.833 -10.5 -53.5 -10.5c-17.333 0 -32.833 2.83301 -46.5 8.5s-25 13.167 -34 22.5s-15.667 19.833 -20 31.5s-5.83301 23.5 -4.5 35.5
c0.666992 7.33301 3.16699 12.5 7.5 15.5s8.5 4.33301 12.5 4s7.33301 -2.33301 10 -6s3 -8.5 1 -14.5c-2.66699 -8.66699 -3.5 -18.334 -2.5 -29.001s4.33301 -20.667 10 -30s13.834 -17.166 24.501 -23.499s24.667 -9.5 42 -9.5s31.666 3.16699 42.999 9.5
s20.166 14.5 26.499 24.5s10.833 20.833 13.5 32.5s4 22.834 4 33.501c0 10 -0.666992 19.833 -2 29.5s-4 18.834 -8 27.501s-9.33301 16.167 -16 22.5s-15.334 10.833 -26.001 13.5c-10 -8 -21.333 -12 -34 -12z" />
    <glyph glyph-name="acute" unicode="&#xb4;" horiz-adv-x="158" 
d="M128 639c7.33301 13.333 16 19.998 26 19.998c8.66699 0 13 -3.66699 13 -11c0 -5.33301 -2 -10.166 -6 -14.499s-8 -8.16602 -12 -11.499l-52 -43h-3z" />
    <glyph glyph-name="uni00B5" unicode="&#xb5;" horiz-adv-x="556" 
d="M408 0v57c-36 -42 -83.333 -63 -142 -63c-26.667 0 -50.5 3.83301 -71.5 11.5s-39.5 18.834 -55.5 33.501v-269h-51v712h51v-299c0 -46.667 11.333 -82.334 34 -107.001s55.667 -37 99 -37s76.833 12.5 100.5 37.5s35.5 60.5 35.5 106.5v299h51v-482h-51z" />
    <glyph glyph-name="paragraph" unicode="&#xb6;" horiz-adv-x="505" 
d="M246 -221h45c4.66699 0 7 2.33301 7 7v536c-27.333 0 -53 5.16699 -77 15.5s-45 24.5 -63 42.5s-32.167 39 -42.5 63s-15.5 49.667 -15.5 77s5.16699 53 15.5 77s24.5 45 42.5 63s39 32.167 63 42.5s49.667 15.5 77 15.5h119v-6h-46c-4.66699 0 -7 -2.33301 -7 -7v-919
c0 -4.66699 2.33301 -7 7 -7h39v-6h-164v6zM304 -214c0 -4.66699 2.33301 -7 7 -7h40c4.66699 0 7 2.33301 7 7v919c0 4.66699 -2.33301 7 -7 7h-47v-926z" />
    <glyph glyph-name="periodcentered" unicode="&#xb7;" horiz-adv-x="186" 
d="M65 236c0 7.33301 2.66699 13.666 8 18.999s12 8 20 8c7.33301 0 13.666 -2.66699 18.999 -8s8 -11.666 8 -18.999c0 -8 -2.66699 -14.667 -8 -20s-11.666 -8 -18.999 -8c-8 0 -14.667 2.66699 -20 8s-8 12 -8 20z" />
    <glyph glyph-name="cedilla" unicode="&#xb8;" horiz-adv-x="240" 
d="M119 -3c0 -10 3.66895 -18.835 11.002 -26.502s15.5 -15.167 24.5 -22.5s17.167 -15.5 24.5 -24.5s11 -19.5 11 -31.5c0 -10.667 -2.5 -20.167 -7.5 -28.5s-11.333 -15.333 -19 -21s-16.5 -10 -26.5 -13s-20 -4.5 -30 -4.5c-9.33301 0 -18.5 2.5 -27.5 7.5
s-16.5 12.833 -22.5 23.5c-0.666992 1.33301 -0.666992 2.33301 0 3s1.33398 0.333984 2.00098 -0.999023c11.333 -19.333 26.666 -29 45.999 -29c13.333 0 26 4.83301 38 14.5s18 24.834 18 45.501c0 9.33301 -2.33301 18.333 -7 27s-9.83398 17.167 -15.501 25.5
s-10.834 17 -15.501 26s-7 18.5 -7 28.5v1h3z" />
    <glyph glyph-name="onesuperior" unicode="&#xb9;" horiz-adv-x="251" 
d="M76 662c-6.66699 0 -9.83301 1.66699 -9.5 5s2.5 4.66602 6.5 3.99902c14 -1.33301 25.5 -0.833008 34.5 1.5s16.333 5.83301 22 10.5s10 10.167 13 16.5s5.5 12.833 7.5 19.5h3v-315c0 -4.66699 2.33301 -7 7 -7h22c2 0 3 -0.833008 3 -2.5s-1 -2.5 -3 -2.5h-94
c-2 0 -3 0.833008 -3 2.5s1 2.5 3 2.5h21c4.66699 0 7 2.33301 7 7v268c-5.33301 -2.66699 -11.333 -5.16699 -18 -7.5s-14 -3.16602 -22 -2.49902z" />
    <glyph glyph-name="ordmasculine" unicode="&#xba;" horiz-adv-x="385" 
d="M193 388c-18.667 0 -36 3.33398 -52 10.001s-30 16.667 -42 30s-21.333 30.5 -28 51.5s-10 45.5 -10 73.5c0 27.333 3.66699 51.166 11 71.499s17.166 37 29.499 50s26.5 22.667 42.5 29s33 9.5 51 9.5c16.667 0 32.834 -3.33301 48.501 -10s29.5 -16.667 41.5 -30
s21.5 -30 28.5 -50s10.5 -43.333 10.5 -70c0 -28 -3.33301 -52.5 -10 -73.5s-16 -38.167 -28 -51.5s-26 -23.333 -42 -30s-33 -10 -51 -10zM193 393.001c12.667 0 24.666 2.99902 35.999 8.99902s21.333 15.333 30 28s15.334 29.167 20.001 49.5s7 44.833 7 73.5
c0 50.667 -8.83301 89 -26.5 115s-39.167 39.333 -64.5 40h-5c-25.333 -1.33301 -46.833 -15 -64.5 -41s-26.5 -64 -26.5 -114c0 -57.333 9 -98.166 27 -122.499s40.333 -36.833 67 -37.5z" />
    <glyph glyph-name="guillemotright" unicode="&#xbb;" horiz-adv-x="530" 
d="M313 314c12.667 -12 12.667 -23.667 0 -35l-231 -213c-2 -2 -3.83301 -2.33301 -5.5 -1s-1.5 3 0.5 5l210 225l1 1v1l-1 1l-210 211c-2 2 -2.16699 3.66699 -0.5 5s3.5 1 5.5 -1zM485 314c12.667 -12 12.667 -23.667 0 -35l-231 -213c-2 -2 -3.83301 -2.33301 -5.5 -1
s-1.5 3 0.5 5l210 225l1 1v1l-1 1l-210 211c-2 2 -2.16699 3.66699 -0.5 5s3.5 1 5.5 -1z" />
    <glyph glyph-name="onequarter" unicode="&#xbc;" horiz-adv-x="651" 
d="M454 27c-2 0 -3 0.833008 -3 2.5s1 2.5 3 2.5h16c1.33301 0 2 0.666992 2 2v85c0 2.66699 -1 4 -3 4h-101c-8 0 -12 2.66699 -12 8c0 1.33301 0.666992 4 2 8c10 27.333 22.667 53.5 38 78.5s31 47.167 47 66.5s31 34.833 45 46.5s25 17.5 33 17.5
c8.66699 0 13 -4 13 -12c0 -6.66699 -3.66699 -11.334 -11 -14.001c-33.333 -20 -63.833 -44.5 -91.5 -73.5s-50.5 -66.5 -68.5 -112.5c-0.666992 -1.33301 -1 -2.66602 -1 -3.99902c0 -2.66699 2 -4 6 -4h101c2 0 3 1 3 3l-2 121c0 2 1 3 3 3h34c2 0 3 -1 3 -3l-3 -79v-42
c0 -2 1.33301 -3 4 -3h25c1.33301 0 2 -1 2 -3c0 -1.33301 -0.666992 -2 -2 -2h-25c-2.66699 0 -4 -1.33301 -4 -4v-85c0 -1.33301 1 -2 3 -2h15c2 0 3 -0.833008 3 -2.5s-1 -2.5 -3 -2.5h-71zM121 581c-6.66699 0 -10.001 1.66699 -10.001 5c0 2.66699 2 4 6 4
c2.66699 0 5 -0.166992 7 -0.5s4.33301 -0.5 7 -0.5c22 0 37.167 5.16699 45.5 15.5s14.5 21.5 18.5 33.5h3v-315c0 -4.66699 2.33301 -7 7 -7h22c2 0 3 -0.833008 3 -2.5s-1 -2.5 -3 -2.5h-94c-2 0 -3 0.833008 -3 2.5s1 2.5 3 2.5h21c4.66699 0 7 2.33301 7 7v268
c-6.66699 -2.66699 -13.167 -5 -19.5 -7s-13.166 -3 -20.499 -3zM285.999 243l-81.5 -134.498l-82.5 -134.5c-3.33301 -5.33301 -7.33301 -8 -12 -8c-6.66699 0 -10 3.33301 -10 10c0 3.33301 1.33301 6.66602 4 9.99902l89 129l89 130l85 133l164 268
c3.33301 5.33301 7.33301 8 12 8c7.33301 0 11 -3.66699 11 -11c0 -2.66699 -1 -5.33398 -3 -8.00098l-180 -259z" />
    <glyph glyph-name="onehalf" unicode="&#xbd;" horiz-adv-x="699" 
d="M122 -26c-2.66699 -4.66699 -5.66602 -7.50293 -8.99902 -8.50293s-6.16602 -0.666992 -8.49902 1s-3.83301 4.16699 -4.5 7.5s0.666016 7.33301 3.99902 12l178 259l85 133l164 268c2.66699 4 5.66699 6.33301 9 7s6.16602 0.333984 8.49902 -0.999023
s4 -3.66602 5 -6.99902s0.166992 -6.66602 -2.5 -9.99902l-180 -259l-85 -133zM121.001 580.997c-6.66699 0 -9.83398 1.66699 -9.50098 5s2.5 4.66602 6.5 3.99902c14 -1.33301 25.333 -0.833008 34 1.5s15.834 5.83301 21.501 10.5s10.167 10.167 13.5 16.5
s6 12.833 8 19.5h3v-315c0 -4.66699 2.33301 -7 7 -7h22c2 0 3 -0.833008 3 -2.5s-1 -2.5 -3 -2.5h-94c-2.66699 0 -4 0.833008 -4 2.5s1.33301 2.5 4 2.5h21c4.66699 0 7 2.33301 7 7v268c-6 -2.66699 -12.333 -5.16699 -19 -7.5s-13.667 -3.16602 -21 -2.49902z
M406.001 59.9971c0.666992 19.333 4.99805 35.8311 12.998 49.498s18 26 30 37s24.833 21.167 38.5 30.5s26.5 18.833 38.5 28.5s21.833 20.334 29.5 32.001s11.5 25.167 11.5 40.5s-5 28.833 -15 40.5s-26.667 17.5 -50 17.5c-14.667 0 -26.667 -2.83301 -36 -8.5
s-16.5 -12.834 -21.5 -21.501s-8 -17.667 -9 -27s0.166992 -17.333 3.5 -24c2.66699 -7.33301 2.83398 -13.166 0.500977 -17.499s-5.66602 -7 -9.99902 -8s-8.83301 0 -13.5 3s-7.66699 8.5 -9 16.5c-2 10 -1.33301 20.333 2 31s9 20.5 17 29.5s18.333 16.5 31 22.5
s27.667 9 45 9c32 0 56.167 -7 72.5 -21s24.5 -30.667 24.5 -50c0 -13.333 -4.66699 -25.166 -14 -35.499s-21.166 -20.333 -35.499 -30s-29.666 -19.334 -45.999 -29.001s-31.333 -20 -45 -31s-24.834 -23.167 -33.501 -36.5s-12.334 -28.666 -11.001 -45.999
c0 -2 1 -3 3 -3h172c2 0 3 1 3 3v20c0 2 0.833008 3 2.5 3s2.5 -1 2.5 -3v-56h-191v34z" />
    <glyph glyph-name="threequarters" unicode="&#xbe;" horiz-adv-x="649" 
d="M454 27c-2 0 -3 0.833984 -3 2.50098s1 2.5 3 2.5h16c1.33301 0 2 0.666992 2 2v85c0 2.66699 -1 4 -3 4h-101c-8 0 -12 2.66699 -12 8c0 0.666992 0.666992 3 2 7c10 27.333 22.667 53.666 38 78.999s31 47.666 47 66.999s31 34.833 45 46.5s25 17.5 33 17.5
c8.66699 0 13 -4 13 -12c0 -5.33301 -3.66699 -10 -11 -14c-33.333 -20 -63.833 -44.5 -91.5 -73.5s-50.5 -66.5 -68.5 -112.5c-0.666992 -1.33301 -1 -2.66602 -1 -3.99902c0 -2.66699 2 -4 6 -4h101c2 0 3 1 3 3l-2 121c0 2 1 3 3 3h34c2 0 3 -1 3 -3l-3 -79v-42
c0 -2 1.33301 -3 4 -3h25c2 0 3 -0.833008 3 -2.5s-1 -2.5 -3 -2.5h-25c-2.66699 0 -4 -1.33301 -4 -4v-85c0 -1.33301 1 -2 3 -2h15c2 0 3 -0.833008 3 -2.5s-1 -2.5 -3 -2.5h-71zM174 494.001c-5.33301 0 -9.49707 1.16309 -12.4971 3.49609s-4.5 5.16602 -4.5 8.49902
s1.33301 6.16602 4 8.49902s6.66699 3.5 12 3.5c6 0 12 -0.666992 18 -2s11.667 -3.66602 17 -6.99902c12 5.33301 20.667 13 26 23s8 22 8 36c0 12 -4.33301 24.333 -13 37s-25 19 -49 19c-12 0 -22.333 -1.83301 -31 -5.5s-15.667 -8.33398 -21 -14.001
s-9.16602 -11.834 -11.499 -18.501s-3.5 -13.334 -3.5 -20.001c0 -3.33301 0.5 -6.5 1.5 -9.5s1.5 -6.16699 1.5 -9.5c0 -4.66699 -1.66699 -8.33398 -5 -11.001s-6.66602 -4 -9.99902 -4s-6.66602 1.5 -9.99902 4.5s-5 7.83301 -5 14.5c0 8 1.83301 16.667 5.5 26
s9.16699 17.833 16.5 25.5s17 14 29 19s26.333 7.5 43 7.5c14.667 0 27.5 -2 38.5 -6s20.167 -9 27.5 -15s12.666 -12.667 15.999 -20s5 -14 5 -20c0 -12 -4.33301 -23.5 -13 -34.5s-22.334 -19.5 -41.001 -25.5c26 -5.33301 45.667 -16.166 59 -32.499
s20 -37.166 20 -62.499c0 -10.667 -2.33301 -22.167 -7 -34.5s-11.834 -23.666 -21.501 -33.999s-22 -19 -37 -26s-32.833 -10.5 -53.5 -10.5c-16.667 0 -31.5 2.5 -44.5 7.5s-24 11.833 -33 20.5s-16 18.334 -21 29.001s-7.5 21.667 -7.5 33c0 9.33301 2 16.333 6 21
s8.33301 7 13 7c3.33301 0 6.5 -1.16699 9.5 -3.5s4.5 -6.16602 4.5 -11.499c0 -3.33301 -0.666992 -7.16602 -2 -11.499s-2 -9.16602 -2 -14.499c0 -8 1.33301 -16.333 4 -25s7.16699 -16.5 13.5 -23.5s14.333 -12.667 24 -17s21.5 -6.5 35.5 -6.5
c17.333 0 31.666 3.16699 42.999 9.5s20.166 14.5 26.499 24.5s10.833 20.833 13.5 32.5s4 22.834 4 33.501c0 10 -0.666992 19.833 -2 29.5s-4 18.834 -8 27.501s-9.33301 16.167 -16 22.5s-15.334 10.833 -26.001 13.5c-10 -8 -21.333 -12 -34 -12zM288.003 242.997
l-82.5 -134.498l-81.5 -134.5c-3.33301 -5.33301 -7.33301 -8 -12 -8c-7.33301 0 -11 3.33301 -11 10c0 3.33301 1.33301 6.66602 4 9.99902l179 259l85 133l164 268c3.33301 5.33301 7 8 11 8c7.33301 0 11 -3.66699 11 -11c0 -2.66699 -1 -5.33398 -3 -8.00098l-179 -259z
" />
    <glyph glyph-name="questiondown" unicode="&#xbf;" horiz-adv-x="553" 
d="M301 369c0 2 0.99707 3.00195 2.99707 3.00195s3 -1 3 -3v-101c0 -34.667 -4 -64 -12 -88s-18.167 -44.833 -30.5 -62.5s-25.666 -33.667 -39.999 -48s-27.666 -29.5 -39.999 -45.5s-22.5 -34.333 -30.5 -55s-12 -46.334 -12 -77.001c0 -18 2.66699 -35.333 8 -52
s14 -31.667 26 -45s27.667 -24 47 -32s42.666 -12 69.999 -12c28 0 51.667 4.5 71 13.5s35 20.667 47 35s20.5 30.333 25.5 48s7.5 35.5 7.5 53.5c0 8 -0.666992 15.667 -2 23s-2 14.666 -2 21.999s1.83301 13 5.5 17s7.83398 6 12.501 6c16.667 0 25 -16 25 -48
c0 -21.333 -4.16699 -42.5 -12.5 -63.5s-20.5 -39.667 -36.5 -56s-35.833 -29.666 -59.5 -39.999s-50.834 -15.5 -81.501 -15.5c-32.667 0 -61 4 -85 12s-43.667 18.833 -59 32.5s-26.833 29.667 -34.5 48s-11.5 37.5 -11.5 57.5c0 28 4.83301 51.667 14.5 71
s21.834 36.666 36.501 51.999s30.667 30.333 48 45s33.333 31 48 49s26.834 39 36.501 63s14.5 53.667 14.5 89v104zM330.997 443.002c0 -7.33301 -2.66699 -13.666 -8 -18.999s-11.666 -8 -18.999 -8c-8 0 -14.667 2.66699 -20 8s-8 11.666 -8 18.999
c0 8 2.66699 14.667 8 20s12 8 20 8c7.33301 0 13.666 -2.66699 18.999 -8s8 -12 8 -20z" />
    <glyph glyph-name="Agrave" unicode="&#xc0;" horiz-adv-x="641" 
d="M260 687c-2.66699 0 -4 1 -4 3c0 2.66699 1.33301 4 4 4h88l257 -687h54c2.66699 0 4 -1.33301 4 -4c0 -2 -1.33301 -3 -4 -3h-152c-2.66699 0 -4 1 -4 3c0 2.66699 1.33301 4 4 4h56l-105 281h-292l-103 -281h55c2.66699 0 4 -1.33301 4 -4c0 -2 -1.33301 -3 -4 -3h-115
c-2.66699 0 -4 1 -4 3c0 2.66699 1.33301 4 4 4h52l248 680h-43zM168 295h287l-146 388zM349 816l-3 -0.000976562l-47 43c-4 4 -7.5 7.83301 -10.5 11.5s-4.5 8.16699 -4.5 13.5c0 6.66699 3.66699 10.334 11 11.001c10 0 18.667 -7 26 -21z" />
    <glyph glyph-name="Aacute" unicode="&#xc1;" horiz-adv-x="641" 
d="M260 687c-2.66699 0 -4 1 -4 3c0 2.66699 1.33301 4 4 4h88l257 -687h54c2.66699 0 4 -1.33301 4 -4c0 -2 -1.33301 -3 -4 -3h-152c-2.66699 0 -4 1 -4 3c0 2.66699 1.33301 4 4 4h56l-105 281h-292l-103 -281h55c2.66699 0 4 -1.33301 4 -4c0 -2 -1.33301 -3 -4 -3h-115
c-2.66699 0 -4 1 -4 3c0 2.66699 1.33301 4 4 4h52l248 680h-43zM168 295h287l-146 388zM317 876c7.33301 13.333 16 19.998 26 19.998c8.66699 0 13 -3.66699 13 -11c0 -5.33301 -2 -10.166 -6 -14.499s-8 -8.16602 -12 -11.499l-52 -43h-3z" />
    <glyph glyph-name="Acircumflex" unicode="&#xc2;" horiz-adv-x="641" 
d="M260 687c-2.66699 0 -4 1 -4 3c0 2.66699 1.33301 4 4 4h88l257 -687h54c2.66699 0 4 -1.33301 4 -4c0 -2 -1.33301 -3 -4 -3h-152c-2.66699 0 -4 1 -4 3c0 2.66699 1.33301 4 4 4h56l-105 281h-292l-103 -281h55c2.66699 0 4 -1.33301 4 -4c0 -2 -1.33301 -3 -4 -3h-115
c-2.66699 0 -4 1 -4 3c0 2.66699 1.33301 4 4 4h52l248 680h-43zM168 295h287l-146 388zM315 863l-120 -85c-2.66699 -1.33301 -4.16699 -1.5 -4.5 -0.5s0.166992 2.16699 1.5 3.5l38 37.5l31 31l27 27.5l26 27c0.666992 0.666992 1.66699 0.666992 3 0l26 -27l27 -27.5
l31 -31l38 -37.5c1.33301 -1.33301 1.5 -2.5 0.5 -3.5s-2.16699 -0.833008 -3.5 0.5z" />
    <glyph glyph-name="Atilde" unicode="&#xc3;" horiz-adv-x="641" 
d="M260 687c-2.66699 0 -4 1 -4 3c0 2.66699 1.33301 4 4 4h88l257 -687h54c2.66699 0 4 -1.33301 4 -4c0 -2 -1.33301 -3 -4 -3h-152c-2.66699 0 -4 1 -4 3c0 2.66699 1.33301 4 4 4h56l-105 281h-292l-103 -281h55c2.66699 0 4 -1.33301 4 -4c0 -2 -1.33301 -3 -4 -3h-115
c-2.66699 0 -4 1 -4 3c0 2.66699 1.33301 4 4 4h52l248 680h-43zM168 295h287l-146 388zM438 875c0 -23.333 -5.66406 -42.498 -16.9971 -57.498s-28 -22.5 -50 -22.5c-12 0 -23 2.83301 -33 8.5s-19.833 12 -29.5 19s-19.334 13.5 -29.001 19.5s-19.834 9 -30.501 9
c-16 0 -28.667 -4.33301 -38 -13s-14 -22.334 -14 -41.001c0 -1.33301 -0.666992 -2 -2 -2s-2 0.666992 -2 2c0 20 6.66699 37.167 20 51.5s31 21.5 53 21.5c11.333 0 21.5 -2.66699 30.5 -8s18 -11.333 27 -18s18.167 -12.667 27.5 -18s19.666 -8 30.999 -8
c17.333 0 30.333 5.16699 39 15.5s13 24.166 13 41.499c0 2 0.666992 3 2 3s2 -1 2 -3z" />
    <glyph glyph-name="Adieresis" unicode="&#xc4;" horiz-adv-x="641" 
d="M260 687c-2.66699 0 -4 1 -4 3c0 2.66699 1.33301 4 4 4h88l257 -687h54c2.66699 0 4 -1.33301 4 -4c0 -2 -1.33301 -3 -4 -3h-152c-2.66699 0 -4 1 -4 3c0 2.66699 1.33301 4 4 4h56l-105 281h-292l-103 -281h55c2.66699 0 4 -1.33301 4 -4c0 -2 -1.33301 -3 -4 -3h-115
c-2.66699 0 -4 1 -4 3c0 2.66699 1.33301 4 4 4h52l248 680h-43zM168 295h287l-146 388zM397 797c-7.33301 0 -13.5 2.5 -18.5 7.5s-7.5 11.167 -7.5 18.5s2.5 13.5 7.5 18.5s11.167 7.5 18.5 7.5s13.5 -2.5 18.5 -7.5s7.5 -11.167 7.5 -18.5s-2.5 -13.5 -7.5 -18.5
s-11.167 -7.5 -18.5 -7.5zM235 797c-7.33301 0 -13.5 2.5 -18.5 7.5s-7.5 11.167 -7.5 18.5s2.5 13.5 7.5 18.5s11.167 7.5 18.5 7.5s13.5 -2.5 18.5 -7.5s7.5 -11.167 7.5 -18.5s-2.5 -13.5 -7.5 -18.5s-11.167 -7.5 -18.5 -7.5z" />
    <glyph glyph-name="Aring" unicode="&#xc5;" horiz-adv-x="641" 
d="M260 687c-2.66699 0 -4 1 -4 3c0 2.66699 1.33301 4 4 4h88l257 -687h54c2.66699 0 4 -1.33301 4 -4c0 -2 -1.33301 -3 -4 -3h-152c-2.66699 0 -4 1 -4 3c0 2.66699 1.33301 4 4 4h56l-105 281h-292l-103 -281h55c2.66699 0 4 -1.33301 4 -4c0 -2 -1.33301 -3 -4 -3h-115
c-2.66699 0 -4 1 -4 3c0 2.66699 1.33301 4 4 4h52l248 680h-43zM168 295h287l-146 388zM250 834c0 18.667 6.33301 34.334 19 47.001s28.334 19 47.001 19s34.334 -6.33301 47.001 -19s19 -28.334 19 -47.001s-6.33301 -34.334 -19 -47.001s-28.334 -19 -47.001 -19
s-34.334 6.33301 -47.001 19s-19 28.334 -19 47.001zM256 834c0 -16.667 5.83301 -30.834 17.5 -42.501s25.834 -17.5 42.501 -17.5s30.834 5.83301 42.501 17.5s17.5 25.834 17.5 42.501s-5.83301 30.834 -17.5 42.501s-25.834 17.5 -42.501 17.5
s-30.834 -5.83301 -42.501 -17.5s-17.5 -25.834 -17.5 -42.501z" />
    <glyph glyph-name="AE" unicode="&#xc6;" horiz-adv-x="945" 
d="M142 6c2 0 3.00098 -0.99707 3.00098 -2.99707s-1 -3 -3 -3h-115c-2.66699 0 -4 1 -4 3s1.33301 3 4 3h25c7.33301 0.666992 15.333 3 24 7s15.667 10.333 21 19l406 656h-21h-51c-2.66699 0 -4 1 -4 3s1.33301 3 4 3h425v-117h-6v22c0 30 -6.83301 52.333 -20.5 67
s-39.167 22 -76.5 22h-194c-4.66699 0 -7 -2.33301 -7 -7v-301c0 -4.66699 2.33301 -7 7 -7h136c9.33301 0.666992 18.5 1.66699 27.5 3s17.167 3.83301 24.5 7.5s13.166 8.5 17.499 14.5s6.5 14.333 6.5 25v19h6v-144h-6v19c0 10 -2.5 18.333 -7.5 25
s-11.167 11.667 -18.5 15s-15.666 5.66602 -24.999 6.99902s-18.333 2 -27 2h-134c-4.66699 0 -7 -2.33301 -7 -7v-346c0 -4.66699 2.33301 -7 7 -7h235c10 0 20.667 1.66699 32 5s21.666 8.66602 30.999 15.999s17 16.666 23 27.999s9 25 9 41v30h6v-126h-455
c-2 0 -3 1 -3 3s1 3 3 3h63c4.66699 0 7 2.33301 7 7v327h-215l-190 -305c-4 -6 -5.16699 -12 -3.5 -18s6.5 -9.33301 14.5 -10zM510.001 346.003v277v65l-212 -342h212z" />
    <glyph glyph-name="Ccedilla" unicode="&#xc7;" horiz-adv-x="599" 
d="M336 -16c0.666992 -9.33301 4.83398 -17.668 12.501 -25.001s15.834 -14.666 24.501 -21.999s16.5 -15.333 23.5 -24s10.5 -19 10.5 -31c0 -10.667 -2.5 -20.167 -7.5 -28.5s-11.333 -15.333 -19 -21s-16.5 -10 -26.5 -13s-20 -4.5 -30 -4.5
c-9.33301 0 -18.5 2.5 -27.5 7.5s-16.5 12.833 -22.5 23.5c-0.666992 1.33301 -0.666992 2.33301 0 3s1.33398 0.333984 2.00098 -0.999023c11.333 -19.333 26.666 -29 45.999 -29c13.333 0 26 4.83301 38 14.5s18 24.834 18 45.501c0 9.33301 -2.33301 18.333 -7 27
s-9.66699 17.167 -15 25.5l-15.5 25c-5 8.33301 -7.5 17.5 -7.5 27.5c-40.667 0.666992 -78.667 8.5 -114 23.5s-66.166 37.667 -92.499 68s-47 68.5 -62 114.5s-22.5 100.667 -22.5 164c0 60 8.5 112.167 25.5 156.5s39.5 81.166 67.5 110.499s60.5 51.166 97.5 65.499
s75.5 21.5 115.5 21.5c29.333 0 57 -3.83301 83 -11.5s48.667 -18 68 -31s34.666 -28.333 45.999 -46s16.666 -36.167 15.999 -55.5c0 -12 -2.83301 -20.667 -8.5 -26s-11.667 -7.66602 -18 -6.99902s-11.833 4 -16.5 10s-6 14.333 -4 25c2.66699 16.667 1 33.167 -5 49.5
s-16 30.666 -30 42.999s-31.833 22.5 -53.5 30.5s-46.834 12 -75.501 12h-2c-36 0 -69.833 -6.33301 -101.5 -19s-59.167 -33 -82.5 -61s-41.833 -64 -55.5 -108s-20.5 -97 -20.5 -159c0 -67.333 6.33301 -124 19 -170s30.334 -83.333 53.001 -112s49.167 -49.5 79.5 -62.5
s63.166 -19.5 98.499 -19.5h1c30 0 56.833 4.5 80.5 13.5s43.5 20.667 59.5 35s27.667 30.333 35 48s9.66602 35.167 6.99902 52.5c-1.33301 10 0.333984 18 5.00098 24s10.167 9.16699 16.5 9.5s12.166 -2 17.499 -7s8 -13.167 8 -24.5
c0 -19.333 -6.16699 -38.5 -18.5 -57.5s-29.166 -35.833 -50.499 -50.5s-45.833 -26.5 -73.5 -35.5s-56.5 -13.5 -86.5 -13.5h-3z" />
    <glyph glyph-name="Egrave" unicode="&#xc8;" horiz-adv-x="543" 
d="M147 396c-4.66699 0 -7.00098 -2.33301 -7.00098 -7v-375c0 -4.66699 2.33301 -7 7 -7h270c10 0 20 1.5 30 4.5s19 7.66699 27 14s14.667 14.666 20 24.999s8 22.5 8 36.5v28h7v-115h-465c-2.66699 0 -4 1 -4 3c0 2.66699 1.66699 4 5 4h46c4.66699 0 7 2.33301 7 7v666
c0 4.66699 -2.33301 7 -7 7h-47c-2.66699 0 -4 1 -4 3c0 2.66699 1.33301 4 4 4h425v-117h-7v23c0 30 -6.66699 52 -20 66s-38 21 -74 21h-221c-4.66699 0 -7 -2.33301 -7 -7v-270c0 -4.66699 2.33301 -7 7 -7h157c10 0 19.667 0.666992 29 2s17.833 4 25.5 8
s13.834 9.33301 18.501 16s7 15.334 7 26.001v17h7v-144h-7v18c0 16.667 -6.5 29.167 -19.5 37.5s-27.5 12.5 -43.5 12.5h-174zM300.999 816l-3 -0.000976562l-47 43c-4 4 -7.5 7.83301 -10.5 11.5s-4.5 8.16699 -4.5 13.5c0 6.66699 3.66699 10.334 11 11.001
c10 0 18.667 -7 26 -21z" />
    <glyph glyph-name="Eacute" unicode="&#xc9;" horiz-adv-x="543" 
d="M147 396c-4.66699 0 -7.00098 -2.33301 -7.00098 -7v-375c0 -4.66699 2.33301 -7 7 -7h270c10 0 20 1.5 30 4.5s19 7.66699 27 14s14.667 14.666 20 24.999s8 22.5 8 36.5v28h7v-115h-465c-2.66699 0 -4 1 -4 3c0 2.66699 1.66699 4 5 4h46c4.66699 0 7 2.33301 7 7v666
c0 4.66699 -2.33301 7 -7 7h-47c-2.66699 0 -4 1 -4 3c0 2.66699 1.33301 4 4 4h425v-117h-7v23c0 30 -6.66699 52 -20 66s-38 21 -74 21h-221c-4.66699 0 -7 -2.33301 -7 -7v-270c0 -4.66699 2.33301 -7 7 -7h157c10 0 19.667 0.666992 29 2s17.833 4 25.5 8
s13.834 9.33301 18.501 16s7 15.334 7 26.001v17h7v-144h-7v18c0 16.667 -6.5 29.167 -19.5 37.5s-27.5 12.5 -43.5 12.5h-174zM288.999 876c7.33301 13.333 16 19.998 26 19.998c8.66699 0 13 -3.66699 13 -11c0 -5.33301 -2 -10.166 -6 -14.499s-8 -8.16602 -12 -11.499
l-52 -43h-3z" />
    <glyph glyph-name="Ecircumflex" unicode="&#xca;" horiz-adv-x="543" 
d="M147 396c-4.66699 0 -7.00098 -2.33301 -7.00098 -7v-375c0 -4.66699 2.33301 -7 7 -7h270c10 0 20 1.5 30 4.5s19 7.66699 27 14s14.667 14.666 20 24.999s8 22.5 8 36.5v28h7v-115h-465c-2.66699 0 -4 1 -4 3c0 2.66699 1.66699 4 5 4h46c4.66699 0 7 2.33301 7 7v666
c0 4.66699 -2.33301 7 -7 7h-47c-2.66699 0 -4 1 -4 3c0 2.66699 1.33301 4 4 4h425v-117h-7v23c0 30 -6.66699 52 -20 66s-38 21 -74 21h-221c-4.66699 0 -7 -2.33301 -7 -7v-270c0 -4.66699 2.33301 -7 7 -7h157c10 0 19.667 0.666992 29 2s17.833 4 25.5 8
s13.834 9.33301 18.501 16s7 15.334 7 26.001v17h7v-144h-7v18c0 16.667 -6.5 29.167 -19.5 37.5s-27.5 12.5 -43.5 12.5h-174zM278.999 863l-120 -85c-2.66699 -1.33301 -4.16699 -1.5 -4.5 -0.5s0.166992 2.16699 1.5 3.5l38 37.5l31 31l27 27.5l26 27
c0.666992 0.666992 1.66699 0.666992 3 0l26 -27l27 -27.5l31 -31l38 -37.5c1.33301 -1.33301 1.5 -2.5 0.5 -3.5s-2.16699 -0.833008 -3.5 0.5z" />
    <glyph glyph-name="Edieresis" unicode="&#xcb;" horiz-adv-x="543" 
d="M147 396c-4.66699 0 -7.00098 -2.33301 -7.00098 -7v-375c0 -4.66699 2.33301 -7 7 -7h270c10 0 20 1.5 30 4.5s19 7.66699 27 14s14.667 14.666 20 24.999s8 22.5 8 36.5v28h7v-115h-465c-2.66699 0 -4 1 -4 3c0 2.66699 1.66699 4 5 4h46c4.66699 0 7 2.33301 7 7v666
c0 4.66699 -2.33301 7 -7 7h-47c-2.66699 0 -4 1 -4 3c0 2.66699 1.33301 4 4 4h425v-117h-7v23c0 30 -6.66699 52 -20 66s-38 21 -74 21h-221c-4.66699 0 -7 -2.33301 -7 -7v-270c0 -4.66699 2.33301 -7 7 -7h157c10 0 19.667 0.666992 29 2s17.833 4 25.5 8
s13.834 9.33301 18.501 16s7 15.334 7 26.001v17h7v-144h-7v18c0 16.667 -6.5 29.167 -19.5 37.5s-27.5 12.5 -43.5 12.5h-174zM351.999 797c-7.33301 0 -13.5 2.5 -18.5 7.5s-7.5 11.167 -7.5 18.5s2.5 13.5 7.5 18.5s11.167 7.5 18.5 7.5s13.5 -2.5 18.5 -7.5
s7.5 -11.167 7.5 -18.5s-2.5 -13.5 -7.5 -18.5s-11.167 -7.5 -18.5 -7.5zM189.999 797c-7.33301 0 -13.5 2.5 -18.5 7.5s-7.5 11.167 -7.5 18.5s2.5 13.5 7.5 18.5s11.167 7.5 18.5 7.5s13.5 -2.5 18.5 -7.5s7.5 -11.167 7.5 -18.5s-2.5 -13.5 -7.5 -18.5
s-11.167 -7.5 -18.5 -7.5z" />
    <glyph glyph-name="Igrave" unicode="&#xcc;" horiz-adv-x="224" 
d="M43 0c-3.33301 0 -5 1.16699 -5 3.5s1.66699 3.5 5 3.5h47c4.66699 0 7 2.33301 7 7v666c0 4.66699 -2.33301 7 -7 7h-43c-2.66699 0 -4 1.16699 -4 3.5s1.33301 3.5 4 3.5h143c2 0 3 -1.16699 3 -3.5s-1 -3.5 -3 -3.5h-45c-4.66699 0 -7 -2.33301 -7 -7v-666
c0 -4.66699 2.33301 -7 7 -7h46c2.66699 0 4 -1.16699 4 -3.5s-1.33301 -3.5 -4 -3.5h-148zM138 816l-3 -0.000976562l-47 43c-4 4 -7.5 7.83301 -10.5 11.5s-4.5 8.16699 -4.5 13.5c0 6.66699 3.66699 10.334 11 11.001c10 0 18.667 -7 26 -21z" />
    <glyph glyph-name="Iacute" unicode="&#xcd;" horiz-adv-x="224" 
d="M43 0c-3.33301 0 -5 1.16699 -5 3.5s1.66699 3.5 5 3.5h47c4.66699 0 7 2.33301 7 7v666c0 4.66699 -2.33301 7 -7 7h-43c-2.66699 0 -4 1.16699 -4 3.5s1.33301 3.5 4 3.5h143c2 0 3 -1.16699 3 -3.5s-1 -3.5 -3 -3.5h-45c-4.66699 0 -7 -2.33301 -7 -7v-666
c0 -4.66699 2.33301 -7 7 -7h46c2.66699 0 4 -1.16699 4 -3.5s-1.33301 -3.5 -4 -3.5h-148zM132 876c7.33301 13.333 16 19.998 26 19.998c8.66699 0 13 -3.66699 13 -11c0 -5.33301 -2 -10.166 -6 -14.499s-8 -8.16602 -12 -11.499l-52 -43h-3z" />
    <glyph glyph-name="Icircumflex" unicode="&#xce;" horiz-adv-x="207" 
d="M40 0c-3.33301 0 -5 1.16699 -5 3.5s1.66699 3.5 5 3.5h47c4.66699 0 7 2.33301 7 7v666c0 4.66699 -2.33301 7 -7 7h-43c-2.66699 0 -4 1.16699 -4 3.5s1.33301 3.5 4 3.5h143c2 0 3 -1.16699 3 -3.5s-1 -3.5 -3 -3.5h-45c-4.66699 0 -7 -2.33301 -7 -7v-666
c0 -4.66699 2.33301 -7 7 -7h46c2.66699 0 4 -1.16699 4 -3.5s-1.33301 -3.5 -4 -3.5h-148zM116 863l-120 -85c-2.66699 -1.33301 -4.16699 -1.5 -4.5 -0.5s0.166992 2.16699 1.5 3.5l38 37.5l31 31l27 27.5l26 27c0.666992 0.666992 1.66699 0.666992 3 0l26 -27l27 -27.5
l31 -31l38 -37.5c1.33301 -1.33301 1.5 -2.5 0.5 -3.5s-2.16699 -0.833008 -3.5 0.5z" />
    <glyph glyph-name="Idieresis" unicode="&#xcf;" horiz-adv-x="207" 
d="M40 0c-3.33301 0 -5 1.16699 -5 3.5s1.66699 3.5 5 3.5h47c4.66699 0 7 2.33301 7 7v666c0 4.66699 -2.33301 7 -7 7h-43c-2.66699 0 -4 1.16699 -4 3.5s1.33301 3.5 4 3.5h143c2 0 3 -1.16699 3 -3.5s-1 -3.5 -3 -3.5h-45c-4.66699 0 -7 -2.33301 -7 -7v-666
c0 -4.66699 2.33301 -7 7 -7h46c2.66699 0 4 -1.16699 4 -3.5s-1.33301 -3.5 -4 -3.5h-148zM198 797c-7.33301 0 -13.5 2.5 -18.5 7.5s-7.5 11.167 -7.5 18.5s2.5 13.5 7.5 18.5s11.167 7.5 18.5 7.5s13.5 -2.5 18.5 -7.5s7.5 -11.167 7.5 -18.5s-2.5 -13.5 -7.5 -18.5
s-11.167 -7.5 -18.5 -7.5zM36 797c-7.33301 0 -13.5 2.5 -18.5 7.5s-7.5 11.167 -7.5 18.5s2.5 13.5 7.5 18.5s11.167 7.5 18.5 7.5s13.5 -2.5 18.5 -7.5s7.5 -11.167 7.5 -18.5s-2.5 -13.5 -7.5 -18.5s-11.167 -7.5 -18.5 -7.5z" />
    <glyph glyph-name="Eth" unicode="&#xd0;" horiz-adv-x="589" 
d="M42 687c-2.66699 0 -4 1.16797 -4 3.50098s1.33301 3.5 4 3.5h205c36.667 0 73.5 -6.33301 110.5 -19s70.5 -32.667 100.5 -60s54.333 -62.166 73 -104.499s28 -93.5 28 -153.5s-8.33301 -112.333 -25 -157s-39 -81.834 -67 -111.501s-60.167 -51.834 -96.5 -66.501
s-73.833 -22 -112.5 -22h-216c-2.66699 0 -4 1.16699 -4 3.5s1.33301 3.5 4 3.5h44c6.66699 0 10 3.33301 10 10v343h-48c-3.33301 0 -5 1.16699 -5 3.5s1.66699 3.5 5 3.5h48v310c0 6.66699 -3.33301 10 -10 10h-44zM138 360.001l0.000976562 -342.999
c0 -6.66699 3.33301 -10 10 -10h110c34.667 0 67.5 6.83301 98.5 20.5s58.167 34.667 81.5 63s41.666 64.5 54.999 108.5s20 96.667 20 158s-7.66699 113.166 -23 155.499s-35.5 76.5 -60.5 102.5s-53.5 44.5 -85.5 55.5s-64.333 16.5 -97 16.5h-99
c-6.66699 0 -10 -3.33301 -10 -10v-310h107c2.66699 0 4 -1.16699 4 -3.5s-1.33301 -3.5 -4 -3.5h-107z" />
    <glyph glyph-name="Ntilde" unicode="&#xd1;" horiz-adv-x="599" 
d="M25 687c-2.66699 0 -4 1.16699 -4 3.5s1.33301 3.5 4 3.5h103l404 -624v607c0 6.66699 -3.33301 10 -10 10h-44c-2.66699 0 -4 1.16699 -4 3.5s1.33301 3.5 4 3.5h115c3.33301 0 5 -1.16699 5 -3.5s-1.66699 -3.5 -5 -3.5h-44c-6.66699 0 -10 -3.33301 -10 -10v-683h-7
l-444 691v-668c0 -6.66699 3.33301 -10 10 -10h44c2 0 3 -1.16699 3 -3.5s-1 -3.5 -3 -3.5h-115c-2.66699 0 -4 1.16699 -4 3.5s1.33301 3.5 4 3.5h44c6.66699 0 10 3.33301 10 10v670h-56zM446 875c0 -23.333 -5.66406 -42.498 -16.9971 -57.498s-28 -22.5 -50 -22.5
c-12 0 -23 2.83301 -33 8.5s-19.833 12 -29.5 19s-19.334 13.5 -29.001 19.5s-19.834 9 -30.501 9c-16 0 -28.667 -4.33301 -38 -13s-14 -22.334 -14 -41.001c0 -1.33301 -0.666992 -2 -2 -2s-2 0.666992 -2 2c0 20 6.66699 37.167 20 51.5s31 21.5 53 21.5
c11.333 0 21.5 -2.66699 30.5 -8s18 -11.333 27 -18s18.167 -12.667 27.5 -18s19.666 -8 30.999 -8c17.333 0 30.333 5.16699 39 15.5s13 24.166 13 41.499c0 2 0.666992 3 2 3s2 -1 2 -3z" />
    <glyph glyph-name="Ograve" unicode="&#xd2;" horiz-adv-x="683" 
d="M340 -16c-40.667 0 -79.002 7.5 -115.002 22.5s-67.333 37.833 -94 68.5s-47.667 69.167 -63 115.5s-23 100.833 -23 163.5c0 60 8.16699 112.167 24.5 156.5s38.333 81.166 66 110.499s59.334 51.166 95.001 65.499s72.5 21.5 110.5 21.5c39.333 0 77 -7.33301 113 -22
s67.667 -36.667 95 -66s49 -66.166 65 -110.499s24 -96.166 24 -155.499c0 -62.667 -7.66699 -117.167 -23 -163.5s-36.5 -84.833 -63.5 -115.5s-58.667 -53.5 -95 -68.5s-75.166 -22.5 -116.499 -22.5zM341.998 -10c35.333 0 68.1641 6.50195 98.4971 19.502
s56.833 34 79.5 63s40.334 66.667 53.001 113s19 102.5 19 168.5c0 61.333 -6.33301 113.666 -19 156.999s-30.167 79 -52.5 107s-48.333 48.5 -78 61.5s-61.5 20.167 -95.5 21.5h-11c-34 -0.666992 -66 -7.66699 -96 -21s-56 -33.833 -78 -61.5
s-39.333 -63.334 -52 -107.001s-19 -96.167 -19 -157.5c0 -66 6.33301 -122.167 19 -168.5s30.334 -84 53.001 -113s49.334 -50 80.001 -63s63.667 -19.5 99 -19.5zM370.996 816.002l-3 -0.000976562l-47 43c-4 4 -7.5 7.83301 -10.5 11.5s-4.5 8.16699 -4.5 13.5
c0 6.66699 3.66699 10.334 11 11.001c10 0 18.667 -7 26 -21z" />
    <glyph glyph-name="Oacute" unicode="&#xd3;" horiz-adv-x="683" 
d="M340 -16c-40.667 0 -79.002 7.5 -115.002 22.5s-67.333 37.833 -94 68.5s-47.667 69.167 -63 115.5s-23 100.833 -23 163.5c0 60 8.16699 112.167 24.5 156.5s38.333 81.166 66 110.499s59.334 51.166 95.001 65.499s72.5 21.5 110.5 21.5c39.333 0 77 -7.33301 113 -22
s67.667 -36.667 95 -66s49 -66.166 65 -110.499s24 -96.166 24 -155.499c0 -62.667 -7.66699 -117.167 -23 -163.5s-36.5 -84.833 -63.5 -115.5s-58.667 -53.5 -95 -68.5s-75.166 -22.5 -116.499 -22.5zM341.998 -10c35.333 0 68.1641 6.50195 98.4971 19.502
s56.833 34 79.5 63s40.334 66.667 53.001 113s19 102.5 19 168.5c0 61.333 -6.33301 113.666 -19 156.999s-30.167 79 -52.5 107s-48.333 48.5 -78 61.5s-61.5 20.167 -95.5 21.5h-11c-34 -0.666992 -66 -7.66699 -96 -21s-56 -33.833 -78 -61.5
s-39.333 -63.334 -52 -107.001s-19 -96.167 -19 -157.5c0 -66 6.33301 -122.167 19 -168.5s30.334 -84 53.001 -113s49.334 -50 80.001 -63s63.667 -19.5 99 -19.5zM346.996 876.002c7.33301 13.333 16 19.998 26 19.998c8.66699 0 13 -3.66699 13 -11
c0 -5.33301 -2 -10.166 -6 -14.499s-8 -8.16602 -12 -11.499l-52 -43h-3z" />
    <glyph glyph-name="Ocircumflex" unicode="&#xd4;" horiz-adv-x="683" 
d="M340 -16c-40.667 0 -79.002 7.5 -115.002 22.5s-67.333 37.833 -94 68.5s-47.667 69.167 -63 115.5s-23 100.833 -23 163.5c0 60 8.16699 112.167 24.5 156.5s38.333 81.166 66 110.499s59.334 51.166 95.001 65.499s72.5 21.5 110.5 21.5c39.333 0 77 -7.33301 113 -22
s67.667 -36.667 95 -66s49 -66.166 65 -110.499s24 -96.166 24 -155.499c0 -62.667 -7.66699 -117.167 -23 -163.5s-36.5 -84.833 -63.5 -115.5s-58.667 -53.5 -95 -68.5s-75.166 -22.5 -116.499 -22.5zM341.998 -10c35.333 0 68.1641 6.50195 98.4971 19.502
s56.833 34 79.5 63s40.334 66.667 53.001 113s19 102.5 19 168.5c0 61.333 -6.33301 113.666 -19 156.999s-30.167 79 -52.5 107s-48.333 48.5 -78 61.5s-61.5 20.167 -95.5 21.5h-11c-34 -0.666992 -66 -7.66699 -96 -21s-56 -33.833 -78 -61.5
s-39.333 -63.334 -52 -107.001s-19 -96.167 -19 -157.5c0 -66 6.33301 -122.167 19 -168.5s30.334 -84 53.001 -113s49.334 -50 80.001 -63s63.667 -19.5 99 -19.5zM339.996 863.002l-120 -85c-2.66699 -1.33301 -4.16699 -1.5 -4.5 -0.5s0.166992 2.16699 1.5 3.5l38 37.5
l31 31l27 27.5l26 27c0.666992 0.666992 1.66699 0.666992 3 0l26 -27l27 -27.5l31 -31l38 -37.5c1.33301 -1.33301 1.5 -2.5 0.5 -3.5s-2.16699 -0.833008 -3.5 0.5z" />
    <glyph glyph-name="Otilde" unicode="&#xd5;" horiz-adv-x="683" 
d="M340 -16c-40.667 0 -79.002 7.5 -115.002 22.5s-67.333 37.833 -94 68.5s-47.667 69.167 -63 115.5s-23 100.833 -23 163.5c0 60 8.16699 112.167 24.5 156.5s38.333 81.166 66 110.499s59.334 51.166 95.001 65.499s72.5 21.5 110.5 21.5c39.333 0 77 -7.33301 113 -22
s67.667 -36.667 95 -66s49 -66.166 65 -110.499s24 -96.166 24 -155.499c0 -62.667 -7.66699 -117.167 -23 -163.5s-36.5 -84.833 -63.5 -115.5s-58.667 -53.5 -95 -68.5s-75.166 -22.5 -116.499 -22.5zM341.998 -10c35.333 0 68.1641 6.50195 98.4971 19.502
s56.833 34 79.5 63s40.334 66.667 53.001 113s19 102.5 19 168.5c0 61.333 -6.33301 113.666 -19 156.999s-30.167 79 -52.5 107s-48.333 48.5 -78 61.5s-61.5 20.167 -95.5 21.5h-11c-34 -0.666992 -66 -7.66699 -96 -21s-56 -33.833 -78 -61.5
s-39.333 -63.334 -52 -107.001s-19 -96.167 -19 -157.5c0 -66 6.33301 -122.167 19 -168.5s30.334 -84 53.001 -113s49.334 -50 80.001 -63s63.667 -19.5 99 -19.5zM471.996 875.002c0 -23.333 -5.66406 -42.498 -16.9971 -57.498s-28 -22.5 -50 -22.5
c-12 0 -23 2.83301 -33 8.5s-19.833 12 -29.5 19s-19.334 13.5 -29.001 19.5s-19.834 9 -30.501 9c-16 0 -28.667 -4.33301 -38 -13s-14 -22.334 -14 -41.001c0 -1.33301 -0.666992 -2 -2 -2s-2 0.666992 -2 2c0 20 6.66699 37.167 20 51.5s31 21.5 53 21.5
c11.333 0 21.5 -2.66699 30.5 -8s18 -11.333 27 -18s18.167 -12.667 27.5 -18s19.666 -8 30.999 -8c17.333 0 30.333 5.16699 39 15.5s13 24.166 13 41.499c0 2 0.666992 3 2 3s2 -1 2 -3z" />
    <glyph glyph-name="Odieresis" unicode="&#xd6;" horiz-adv-x="683" 
d="M340 -16c-40.667 0 -79.002 7.5 -115.002 22.5s-67.333 37.833 -94 68.5s-47.667 69.167 -63 115.5s-23 100.833 -23 163.5c0 60 8.16699 112.167 24.5 156.5s38.333 81.166 66 110.499s59.334 51.166 95.001 65.499s72.5 21.5 110.5 21.5c39.333 0 77 -7.33301 113 -22
s67.667 -36.667 95 -66s49 -66.166 65 -110.499s24 -96.166 24 -155.499c0 -62.667 -7.66699 -117.167 -23 -163.5s-36.5 -84.833 -63.5 -115.5s-58.667 -53.5 -95 -68.5s-75.166 -22.5 -116.499 -22.5zM341.998 -10c35.333 0 68.1641 6.50195 98.4971 19.502
s56.833 34 79.5 63s40.334 66.667 53.001 113s19 102.5 19 168.5c0 61.333 -6.33301 113.666 -19 156.999s-30.167 79 -52.5 107s-48.333 48.5 -78 61.5s-61.5 20.167 -95.5 21.5h-11c-34 -0.666992 -66 -7.66699 -96 -21s-56 -33.833 -78 -61.5
s-39.333 -63.334 -52 -107.001s-19 -96.167 -19 -157.5c0 -66 6.33301 -122.167 19 -168.5s30.334 -84 53.001 -113s49.334 -50 80.001 -63s63.667 -19.5 99 -19.5zM421.996 797.002c-7.33301 0 -13.5 2.5 -18.5 7.5s-7.5 11.167 -7.5 18.5s2.5 13.5 7.5 18.5
s11.167 7.5 18.5 7.5s13.5 -2.5 18.5 -7.5s7.5 -11.167 7.5 -18.5s-2.5 -13.5 -7.5 -18.5s-11.167 -7.5 -18.5 -7.5zM259.996 797.002c-7.33301 0 -13.5 2.5 -18.5 7.5s-7.5 11.167 -7.5 18.5s2.5 13.5 7.5 18.5s11.167 7.5 18.5 7.5s13.5 -2.5 18.5 -7.5
s7.5 -11.167 7.5 -18.5s-2.5 -13.5 -7.5 -18.5s-11.167 -7.5 -18.5 -7.5z" />
    <glyph glyph-name="multiply" unicode="&#xd7;" horiz-adv-x="575" 
d="M104 490c-5.33301 5.33301 -5.50098 10.499 -0.500977 15.499s10.167 4.83301 15.5 -0.5l95 -107l74 -74l73 73l95 107c5.33301 5.33301 10.5 5.5 15.5 0.5s4.83301 -10.167 -0.5 -15.5l-107 -95l-73 -73l73 -73l107 -95c2.66699 -2.66699 3.83398 -5.5 3.50098 -8.5
s-1.5 -5.33301 -3.5 -7s-4.33301 -2.66699 -7 -3s-5.33398 0.833984 -8.00098 3.50098l-95 107l-73 73l-74 -74l-95 -107c-2.66699 -2.66699 -5.5 -3.83398 -8.5 -3.50098s-5.33301 1.5 -7 3.5s-2.66699 4.33301 -3 7s0.833984 5.33398 3.50098 8.00098l107 95l74 74l-74 74
z" />
    <glyph glyph-name="Oslash" unicode="&#xd8;" horiz-adv-x="678" 
d="M338 -16c-43.333 0 -82.332 7.66504 -116.999 22.998l-8 -33c-2 -8 -5.33301 -11.333 -10 -10s-5.33398 5.66602 -2.00098 12.999l15 32c-26 12 -49.667 28 -71 48s-39.666 44.333 -54.999 73s-27.166 61.667 -35.499 99s-12.5 79 -12.5 125c0 60 8.16699 112 24.5 156
s38.166 80.5 65.499 109.5s58.833 50.833 94.5 65.5s72.834 22.334 111.501 23.001h6c38.667 -2 75 -10 109 -24l12 42c1.33301 5.33301 4.16602 7.33301 8.49902 6s5.16602 -4.66602 2.49902 -9.99902l-19 -40c25.333 -11.333 48.833 -26.666 70.5 -45.999
s40.5 -42.5 56.5 -69.5s28.5 -58.167 37.5 -93.5s13.5 -75 13.5 -119c0 -62.667 -7.66699 -117.167 -23 -163.5s-36.333 -84.833 -63 -115.5s-58 -53.5 -94 -68.5s-74.333 -22.5 -115 -22.5h-2zM340.001 -10.002c34.667 0 67.166 6.66797 97.499 20.001
s56.833 34.5 79.5 63.5s40.334 66.5 53.001 112.5s19 102 19 168c0 87.333 -12.5 156.666 -37.5 207.999s-57.5 88 -97.5 110l-230 -655c17.333 -9.33301 35.333 -16 54 -20s38.667 -6.33301 60 -7h2zM88 353.999c0 -92 12.1689 -164.999 36.502 -218.999
s56.166 -92.667 95.499 -116l230 656c-16 8.66699 -32.833 15 -50.5 19s-35.834 6.33301 -54.501 7h-11c-34 -0.666992 -66 -7.66699 -96 -21s-56.167 -33.833 -78.5 -61.5s-39.833 -63.334 -52.5 -107.001s-19 -96.167 -19 -157.5z" />
    <glyph glyph-name="Ugrave" unicode="&#xd9;" horiz-adv-x="631" 
d="M553 244c0 -47.333 -5.5 -87.3281 -16.5 -119.995s-26.333 -59.167 -46 -79.5s-43.334 -35 -71.001 -44s-57.834 -13.5 -90.501 -13.5c-34 0 -66 4.5 -96 13.5s-56.167 23.667 -78.5 44s-40 47.166 -53 80.499s-19.5 74.666 -19.5 123.999v428
c0 6.66699 -3.33301 10 -10 10h-30c-2.66699 0 -4.16699 1 -4.5 3s1.16699 3.33301 4.5 4h120c2.66699 0 4 -1.16699 4 -3.5s-1.33301 -3.5 -4 -3.5h-28c-6.66699 0 -10 -3.33301 -10 -10v-437c0 -52 5.66699 -94.167 17 -126.5s26.5 -57.333 45.5 -75
s40.833 -29.667 65.5 -36s50.334 -9.5 77.001 -9.5c30.667 0 59.334 4.16699 86.001 12.5s49.667 22.166 69 41.499s34.5 45.166 45.5 77.499s16.5 72.166 16.5 119.499v433c0 6.66699 -3.33301 10 -10 10h-37c-3.33301 0 -5 1.16699 -5 3.5s1.66699 3.5 5 3.5h102
c2.66699 0 4 -1.16699 4 -3.5s-1.33301 -3.5 -4 -3.5h-38c-6.66699 0 -10 -3.33301 -10 -10v-433zM346 816.005l-3 -0.000976562l-47 43c-4 4 -7.5 7.83301 -10.5 11.5s-4.5 8.16699 -4.5 13.5c0 6.66699 3.66699 10.334 11 11.001c10 0 18.667 -7 26 -21z" />
    <glyph glyph-name="Uacute" unicode="&#xda;" horiz-adv-x="631" 
d="M553 244c0 -47.333 -5.5 -87.3281 -16.5 -119.995s-26.333 -59.167 -46 -79.5s-43.334 -35 -71.001 -44s-57.834 -13.5 -90.501 -13.5c-34 0 -66 4.5 -96 13.5s-56.167 23.667 -78.5 44s-40 47.166 -53 80.499s-19.5 74.666 -19.5 123.999v428
c0 6.66699 -3.33301 10 -10 10h-30c-2.66699 0 -4.16699 1 -4.5 3s1.16699 3.33301 4.5 4h120c2.66699 0 4 -1.16699 4 -3.5s-1.33301 -3.5 -4 -3.5h-28c-6.66699 0 -10 -3.33301 -10 -10v-437c0 -52 5.66699 -94.167 17 -126.5s26.5 -57.333 45.5 -75
s40.833 -29.667 65.5 -36s50.334 -9.5 77.001 -9.5c30.667 0 59.334 4.16699 86.001 12.5s49.667 22.166 69 41.499s34.5 45.166 45.5 77.499s16.5 72.166 16.5 119.499v433c0 6.66699 -3.33301 10 -10 10h-37c-3.33301 0 -5 1.16699 -5 3.5s1.66699 3.5 5 3.5h102
c2.66699 0 4 -1.16699 4 -3.5s-1.33301 -3.5 -4 -3.5h-38c-6.66699 0 -10 -3.33301 -10 -10v-433zM342 876.005c7.33301 13.333 16 19.998 26 19.998c8.66699 0 13 -3.66699 13 -11c0 -5.33301 -2 -10.166 -6 -14.499s-8 -8.16602 -12 -11.499l-52 -43h-3z" />
    <glyph glyph-name="Ucircumflex" unicode="&#xdb;" horiz-adv-x="631" 
d="M553 244c0 -47.333 -5.5 -87.3281 -16.5 -119.995s-26.333 -59.167 -46 -79.5s-43.334 -35 -71.001 -44s-57.834 -13.5 -90.501 -13.5c-34 0 -66 4.5 -96 13.5s-56.167 23.667 -78.5 44s-40 47.166 -53 80.499s-19.5 74.666 -19.5 123.999v428
c0 6.66699 -3.33301 10 -10 10h-30c-2.66699 0 -4.16699 1 -4.5 3s1.16699 3.33301 4.5 4h120c2.66699 0 4 -1.16699 4 -3.5s-1.33301 -3.5 -4 -3.5h-28c-6.66699 0 -10 -3.33301 -10 -10v-437c0 -52 5.66699 -94.167 17 -126.5s26.5 -57.333 45.5 -75
s40.833 -29.667 65.5 -36s50.334 -9.5 77.001 -9.5c30.667 0 59.334 4.16699 86.001 12.5s49.667 22.166 69 41.499s34.5 45.166 45.5 77.499s16.5 72.166 16.5 119.499v433c0 6.66699 -3.33301 10 -10 10h-37c-3.33301 0 -5 1.16699 -5 3.5s1.66699 3.5 5 3.5h102
c2.66699 0 4 -1.16699 4 -3.5s-1.33301 -3.5 -4 -3.5h-38c-6.66699 0 -10 -3.33301 -10 -10v-433zM335 863.005l-120 -85c-2.66699 -1.33301 -4.16699 -1.5 -4.5 -0.5s0.166992 2.16699 1.5 3.5l38 37.5l31 31l27 27.5l26 27c0.666992 0.666992 1.66699 0.666992 3 0l26 -27
l27 -27.5l31 -31l38 -37.5c1.33301 -1.33301 1.5 -2.5 0.5 -3.5s-2.16699 -0.833008 -3.5 0.5z" />
    <glyph glyph-name="Udieresis" unicode="&#xdc;" horiz-adv-x="631" 
d="M553 244c0 -47.333 -5.5 -87.3281 -16.5 -119.995s-26.333 -59.167 -46 -79.5s-43.334 -35 -71.001 -44s-57.834 -13.5 -90.501 -13.5c-34 0 -66 4.5 -96 13.5s-56.167 23.667 -78.5 44s-40 47.166 -53 80.499s-19.5 74.666 -19.5 123.999v428
c0 6.66699 -3.33301 10 -10 10h-30c-2.66699 0 -4.16699 1 -4.5 3s1.16699 3.33301 4.5 4h120c2.66699 0 4 -1.16699 4 -3.5s-1.33301 -3.5 -4 -3.5h-28c-6.66699 0 -10 -3.33301 -10 -10v-437c0 -52 5.66699 -94.167 17 -126.5s26.5 -57.333 45.5 -75
s40.833 -29.667 65.5 -36s50.334 -9.5 77.001 -9.5c30.667 0 59.334 4.16699 86.001 12.5s49.667 22.166 69 41.499s34.5 45.166 45.5 77.499s16.5 72.166 16.5 119.499v433c0 6.66699 -3.33301 10 -10 10h-37c-3.33301 0 -5 1.16699 -5 3.5s1.66699 3.5 5 3.5h102
c2.66699 0 4 -1.16699 4 -3.5s-1.33301 -3.5 -4 -3.5h-38c-6.66699 0 -10 -3.33301 -10 -10v-433zM413 797.005c-7.33301 0 -13.5 2.5 -18.5 7.5s-7.5 11.167 -7.5 18.5s2.5 13.5 7.5 18.5s11.167 7.5 18.5 7.5s13.5 -2.5 18.5 -7.5s7.5 -11.167 7.5 -18.5
s-2.5 -13.5 -7.5 -18.5s-11.167 -7.5 -18.5 -7.5zM251 797.005c-7.33301 0 -13.5 2.5 -18.5 7.5s-7.5 11.167 -7.5 18.5s2.5 13.5 7.5 18.5s11.167 7.5 18.5 7.5s13.5 -2.5 18.5 -7.5s7.5 -11.167 7.5 -18.5s-2.5 -13.5 -7.5 -18.5s-11.167 -7.5 -18.5 -7.5z" />
    <glyph glyph-name="Yacute" unicode="&#xdd;" horiz-adv-x="547" 
d="M277 317l-212 370h-53c-2 0 -3 1.16699 -3 3.5s1 3.5 3 3.5h144c2.66699 0 4 -1.16699 4 -3.5s-1.33301 -3.5 -4 -3.5h-47l206 -353l201 353h-56c-2.66699 0 -4.16699 1.16699 -4.5 3.5s1.16699 3.5 4.5 3.5h128c2 0 3 -1.16699 3 -3.5s-1 -3.5 -3 -3.5h-63l-207 -361
v-309c0 -6.66699 3.33301 -10 10 -10h38c2.66699 0 4 -1.16699 4 -3.5s-1.33301 -3.5 -4 -3.5h-137c-2.66699 0 -4 1.16699 -4 3.5s1.33301 3.5 4 3.5h38c6.66699 0 10 3.33301 10 10v300zM316 876c7.33301 13.333 16 19.998 26 19.998c8.66699 0 13 -3.66699 13 -11
c0 -5.33301 -2 -10.166 -6 -14.499s-8 -8.16602 -12 -11.499l-52 -43h-3z" />
    <glyph glyph-name="Thorn" unicode="&#xde;" horiz-adv-x="525" 
d="M42 0c-2 0 -3.16699 1 -3.5 3s0.833984 3 3.50098 3h44c6.66699 0 10 3.33301 10 10v662c0 6.66699 -3.33301 10 -10 10h-44c-2.66699 0 -4 1 -4 3s1.33301 3 4 3h152c2.66699 0 4 -1 4 -3s-1.33301 -3 -4 -3h-46c-6.66699 0 -10 -3.33301 -10 -10v-70h138
c27.333 0 55 -3.5 83 -10.5s53.167 -18 75.5 -33s40.666 -34.333 54.999 -58s21.5 -51.834 21.5 -84.501c0 -33.333 -6.83301 -62.166 -20.5 -86.499s-31.5 -44.833 -53.5 -61.5s-47 -29 -75 -37s-56.333 -12 -85 -12h-139v-209c0 -6.66699 3.33301 -10 10 -10h46
c2 0 3 -1 3 -3s-1 -3 -3 -3h-152zM467 422c0 34 -5.33301 62.333 -16 85s-25 41 -43 55s-38.5 24 -61.5 30s-46.5 9 -70.5 9h-138v-369h139c26 0 50.5 3.66699 73.5 11s43.167 18.5 60.5 33.5s31 34.5 41 58.5s15 53 15 87z" />
    <glyph glyph-name="germandbls" unicode="&#xdf;" horiz-adv-x="560" 
d="M171 118c0 12 2.50488 20.3291 7.50488 24.9961s10 6.83398 15 6.50098s9.33301 -2.66602 13 -6.99902s4.5 -9.5 2.5 -15.5c-5.33301 -16 -6.33301 -32 -3 -48s10 -30.333 20 -43s23.5 -23 40.5 -31s36.833 -12 59.5 -12c22 0 42.5 4.66699 61.5 14
s35.667 23.166 50 41.499s25.5 40.833 33.5 67.5s12 57.334 12 92.001v11c0 58 -11.333 104.667 -34 140s-59 56.333 -109 63c-12 -6.66699 -24.667 -12.167 -38 -16.5s-27 -6.83301 -41 -7.5c-5.33301 0 -9.5 1.66699 -12.5 5s-4.33301 6.83301 -4 10.5
s2.66602 7.16699 6.99902 10.5s11.166 5 20.499 5h37c4 0 8.16699 -0.166992 12.5 -0.5s8.5 -0.5 12.5 -0.5c21.333 11.333 36.5 28.666 45.5 51.999s13.5 49 13.5 77c0 52.667 -11.667 93.167 -35 121.5s-57.333 42.5 -102 42.5c-22.667 0 -42.834 -4.5 -60.501 -13.5
s-32.667 -21.5 -45 -37.5s-21.833 -34.833 -28.5 -56.5s-10 -45.167 -10 -70.5v-531c0 -4.66699 2.33301 -7 7 -7h41c2 0 3 -0.833008 3 -2.5s-1 -2.5 -3 -2.5h-133c-1.33301 0 -2 0.833008 -2 2.5s0.666992 2.5 2 2.5h41c4.66699 0 7 2.33301 7 7v531
c0 28.667 4.83301 54.334 14.5 77.001s22.667 41.834 39 57.501s35.5 27.667 57.5 36s45.333 12.5 70 12.5c26 0 49.667 -4 71 -12s39.666 -19.333 54.999 -34s27.166 -32.167 35.499 -52.5s12.5 -42.833 12.5 -67.5c0 -23.333 -7.5 -47.5 -22.5 -72.5
s-35.5 -45.5 -61.5 -61.5c58 -7.33301 102 -29.5 132 -66.5s45 -83.833 45 -140.5v-11c0 -33.333 -5 -63.5 -15 -90.5s-23.667 -50.167 -41 -69.5s-37.833 -34.166 -61.5 -44.499s-49.5 -15.5 -77.5 -15.5c-20 0 -39.5 3 -58.5 9s-36 14.667 -51 26s-26.833 25 -35.5 41
s-12.667 34 -12 54z" />
    <glyph glyph-name="agrave" unicode="&#xe0;" 
d="M351 253c-4.66699 -32.667 -12.501 -64.5059 -23.501 -95.5059s-25.167 -58.5 -42.5 -82.5s-37.5 -43.333 -60.5 -58s-48.5 -22 -76.5 -22c-37.333 0 -66 9.66699 -86 29s-30 44.666 -30 75.999c0 26.667 6.83301 47.667 20.5 63s31.334 27.833 53.001 37.5
s46.167 17.834 73.5 24.501s54.666 14.667 81.999 24c20.667 6.66699 37 13.834 49 21.501s21.167 16.167 27.5 25.5s10.333 19.333 12 30s2.5 22.667 2.5 36c0 12 -2.16699 23.833 -6.5 35.5s-11 22.334 -20 32.001s-20.667 17.5 -35 23.5s-31.833 9 -52.5 9
c-20 0 -37.667 -3 -53 -9s-28.166 -13.667 -38.499 -23s-18.333 -20.166 -24 -32.499s-8.5 -24.833 -8.5 -37.5c0 -6.66699 1.16699 -13.334 3.5 -20.001s3.5 -13 3.5 -19c0 -6.66699 -2.16699 -12 -6.5 -16s-9.16602 -6 -14.499 -6c-6.66699 0 -12.167 3 -16.5 9
s-6.5 15.667 -6.5 29c0 18 4 34.833 12 50.5s19.333 29.334 34 41.001s31.667 21 51 28s40.666 10.5 63.999 10.5c26 0 48.5 -3.16699 67.5 -9.5s34.5 -14.666 46.5 -24.999s21 -22.5 27 -36.5s9 -28.333 9 -43v-312c0 -9.33301 2.83301 -17.666 8.5 -24.999
s13.5 -11 23.5 -11c8 0 15 3 21 9s9 14.333 9 25c0 2 0.666992 3 2 3c2 0 3 -1 3 -3c0 -15.333 -4.66699 -26.166 -14 -32.499s-21 -9.5 -35 -9.5c-17.333 0 -30.833 5.66699 -40.5 17s-14.5 27.333 -14.5 48v191zM154.999 3.99414c31.333 0 59.166 10.002 83.499 30.002
s44.833 45.167 61.5 75.5s29.334 63.5 38.001 99.5s13 70 13 102c-4 -14.667 -12.167 -26.834 -24.5 -36.501s-32.5 -19.5 -60.5 -29.5c-19.333 -6.66699 -40.166 -12.834 -62.499 -18.501s-43 -13.334 -62 -23.001s-35 -22.167 -48 -37.5s-19.5 -36.333 -19.5 -63v-9
c0 -25.333 7.16699 -46.666 21.5 -63.999s34.166 -26 59.499 -26zM261.999 578.996l-3 -0.000976562l-47 43c-4 4 -7.5 7.83301 -10.5 11.5s-4.5 8.16699 -4.5 13.5c0 6.66699 3.66699 10.334 11 11.001c10 0 18.667 -7 26 -21z" />
    <glyph glyph-name="aacute" unicode="&#xe1;" 
d="M351 253c-4.66699 -32.667 -12.501 -64.5059 -23.501 -95.5059s-25.167 -58.5 -42.5 -82.5s-37.5 -43.333 -60.5 -58s-48.5 -22 -76.5 -22c-37.333 0 -66 9.66699 -86 29s-30 44.666 -30 75.999c0 26.667 6.83301 47.667 20.5 63s31.334 27.833 53.001 37.5
s46.167 17.834 73.5 24.501s54.666 14.667 81.999 24c20.667 6.66699 37 13.834 49 21.501s21.167 16.167 27.5 25.5s10.333 19.333 12 30s2.5 22.667 2.5 36c0 12 -2.16699 23.833 -6.5 35.5s-11 22.334 -20 32.001s-20.667 17.5 -35 23.5s-31.833 9 -52.5 9
c-20 0 -37.667 -3 -53 -9s-28.166 -13.667 -38.499 -23s-18.333 -20.166 -24 -32.499s-8.5 -24.833 -8.5 -37.5c0 -6.66699 1.16699 -13.334 3.5 -20.001s3.5 -13 3.5 -19c0 -6.66699 -2.16699 -12 -6.5 -16s-9.16602 -6 -14.499 -6c-6.66699 0 -12.167 3 -16.5 9
s-6.5 15.667 -6.5 29c0 18 4 34.833 12 50.5s19.333 29.334 34 41.001s31.667 21 51 28s40.666 10.5 63.999 10.5c26 0 48.5 -3.16699 67.5 -9.5s34.5 -14.666 46.5 -24.999s21 -22.5 27 -36.5s9 -28.333 9 -43v-312c0 -9.33301 2.83301 -17.666 8.5 -24.999
s13.5 -11 23.5 -11c8 0 15 3 21 9s9 14.333 9 25c0 2 0.666992 3 2 3c2 0 3 -1 3 -3c0 -15.333 -4.66699 -26.166 -14 -32.499s-21 -9.5 -35 -9.5c-17.333 0 -30.833 5.66699 -40.5 17s-14.5 27.333 -14.5 48v191zM154.999 3.99414c31.333 0 59.166 10.002 83.499 30.002
s44.833 45.167 61.5 75.5s29.334 63.5 38.001 99.5s13 70 13 102c-4 -14.667 -12.167 -26.834 -24.5 -36.501s-32.5 -19.5 -60.5 -29.5c-19.333 -6.66699 -40.166 -12.834 -62.499 -18.501s-43 -13.334 -62 -23.001s-35 -22.167 -48 -37.5s-19.5 -36.333 -19.5 -63v-9
c0 -25.333 7.16699 -46.666 21.5 -63.999s34.166 -26 59.499 -26zM249.999 638.996c7.33301 13.333 16 19.998 26 19.998c8.66699 0 13 -3.66699 13 -11c0 -5.33301 -2 -10.166 -6 -14.499s-8 -8.16602 -12 -11.499l-52 -43h-3z" />
    <glyph glyph-name="acircumflex" unicode="&#xe2;" 
d="M351 253c-4.66699 -32.667 -12.501 -64.5059 -23.501 -95.5059s-25.167 -58.5 -42.5 -82.5s-37.5 -43.333 -60.5 -58s-48.5 -22 -76.5 -22c-37.333 0 -66 9.66699 -86 29s-30 44.666 -30 75.999c0 26.667 6.83301 47.667 20.5 63s31.334 27.833 53.001 37.5
s46.167 17.834 73.5 24.501s54.666 14.667 81.999 24c20.667 6.66699 37 13.834 49 21.501s21.167 16.167 27.5 25.5s10.333 19.333 12 30s2.5 22.667 2.5 36c0 12 -2.16699 23.833 -6.5 35.5s-11 22.334 -20 32.001s-20.667 17.5 -35 23.5s-31.833 9 -52.5 9
c-20 0 -37.667 -3 -53 -9s-28.166 -13.667 -38.499 -23s-18.333 -20.166 -24 -32.499s-8.5 -24.833 -8.5 -37.5c0 -6.66699 1.16699 -13.334 3.5 -20.001s3.5 -13 3.5 -19c0 -6.66699 -2.16699 -12 -6.5 -16s-9.16602 -6 -14.499 -6c-6.66699 0 -12.167 3 -16.5 9
s-6.5 15.667 -6.5 29c0 18 4 34.833 12 50.5s19.333 29.334 34 41.001s31.667 21 51 28s40.666 10.5 63.999 10.5c26 0 48.5 -3.16699 67.5 -9.5s34.5 -14.666 46.5 -24.999s21 -22.5 27 -36.5s9 -28.333 9 -43v-312c0 -9.33301 2.83301 -17.666 8.5 -24.999
s13.5 -11 23.5 -11c8 0 15 3 21 9s9 14.333 9 25c0 2 0.666992 3 2 3c2 0 3 -1 3 -3c0 -15.333 -4.66699 -26.166 -14 -32.499s-21 -9.5 -35 -9.5c-17.333 0 -30.833 5.66699 -40.5 17s-14.5 27.333 -14.5 48v191zM154.999 3.99414c31.333 0 59.166 10.002 83.499 30.002
s44.833 45.167 61.5 75.5s29.334 63.5 38.001 99.5s13 70 13 102c-4 -14.667 -12.167 -26.834 -24.5 -36.501s-32.5 -19.5 -60.5 -29.5c-19.333 -6.66699 -40.166 -12.834 -62.499 -18.501s-43 -13.334 -62 -23.001s-35 -22.167 -48 -37.5s-19.5 -36.333 -19.5 -63v-9
c0 -25.333 7.16699 -46.666 21.5 -63.999s34.166 -26 59.499 -26zM234.999 625.996l-120 -85c-2.66699 -1.33301 -4.16699 -1.5 -4.5 -0.5s0.166992 2.16699 1.5 3.5l38 37.5l31 31l27 27.5l26 27c0.666992 0.666992 1.66699 0.666992 3 0l26 -27l27 -27.5l31 -31l38 -37.5
c1.33301 -1.33301 1.5 -2.5 0.5 -3.5s-2.16699 -0.833008 -3.5 0.5z" />
    <glyph glyph-name="atilde" unicode="&#xe3;" 
d="M351 253c-4.66699 -32.667 -12.501 -64.5059 -23.501 -95.5059s-25.167 -58.5 -42.5 -82.5s-37.5 -43.333 -60.5 -58s-48.5 -22 -76.5 -22c-37.333 0 -66 9.66699 -86 29s-30 44.666 -30 75.999c0 26.667 6.83301 47.667 20.5 63s31.334 27.833 53.001 37.5
s46.167 17.834 73.5 24.501s54.666 14.667 81.999 24c20.667 6.66699 37 13.834 49 21.501s21.167 16.167 27.5 25.5s10.333 19.333 12 30s2.5 22.667 2.5 36c0 12 -2.16699 23.833 -6.5 35.5s-11 22.334 -20 32.001s-20.667 17.5 -35 23.5s-31.833 9 -52.5 9
c-20 0 -37.667 -3 -53 -9s-28.166 -13.667 -38.499 -23s-18.333 -20.166 -24 -32.499s-8.5 -24.833 -8.5 -37.5c0 -6.66699 1.16699 -13.334 3.5 -20.001s3.5 -13 3.5 -19c0 -6.66699 -2.16699 -12 -6.5 -16s-9.16602 -6 -14.499 -6c-6.66699 0 -12.167 3 -16.5 9
s-6.5 15.667 -6.5 29c0 18 4 34.833 12 50.5s19.333 29.334 34 41.001s31.667 21 51 28s40.666 10.5 63.999 10.5c26 0 48.5 -3.16699 67.5 -9.5s34.5 -14.666 46.5 -24.999s21 -22.5 27 -36.5s9 -28.333 9 -43v-312c0 -9.33301 2.83301 -17.666 8.5 -24.999
s13.5 -11 23.5 -11c8 0 15 3 21 9s9 14.333 9 25c0 2 0.666992 3 2 3c2 0 3 -1 3 -3c0 -15.333 -4.66699 -26.166 -14 -32.499s-21 -9.5 -35 -9.5c-17.333 0 -30.833 5.66699 -40.5 17s-14.5 27.333 -14.5 48v191zM154.999 3.99414c31.333 0 59.166 10.002 83.499 30.002
s44.833 45.167 61.5 75.5s29.334 63.5 38.001 99.5s13 70 13 102c-4 -14.667 -12.167 -26.834 -24.5 -36.501s-32.5 -19.5 -60.5 -29.5c-19.333 -6.66699 -40.166 -12.834 -62.499 -18.501s-43 -13.334 -62 -23.001s-35 -22.167 -48 -37.5s-19.5 -36.333 -19.5 -63v-9
c0 -25.333 7.16699 -46.666 21.5 -63.999s34.166 -26 59.499 -26zM360.999 637.996c0 -23.333 -5.66406 -42.498 -16.9971 -57.498s-28 -22.5 -50 -22.5c-12 0 -23 2.83301 -33 8.5s-19.833 12 -29.5 19s-19.334 13.5 -29.001 19.5s-19.834 9 -30.501 9
c-16 0 -28.667 -4.33301 -38 -13s-14 -22.334 -14 -41.001c0 -1.33301 -0.666992 -2 -2 -2s-2 0.666992 -2 2c0 20 6.66699 37.167 20 51.5s31 21.5 53 21.5c11.333 0 21.5 -2.66699 30.5 -8s18 -11.333 27 -18s18.167 -12.667 27.5 -18s19.666 -8 30.999 -8
c17.333 0 30.333 5.16699 39 15.5s13 24.166 13 41.499c0 2 0.666992 3 2 3s2 -1 2 -3z" />
    <glyph glyph-name="adieresis" unicode="&#xe4;" 
d="M351 253c-4.66699 -32.667 -12.501 -64.5059 -23.501 -95.5059s-25.167 -58.5 -42.5 -82.5s-37.5 -43.333 -60.5 -58s-48.5 -22 -76.5 -22c-37.333 0 -66 9.66699 -86 29s-30 44.666 -30 75.999c0 26.667 6.83301 47.667 20.5 63s31.334 27.833 53.001 37.5
s46.167 17.834 73.5 24.501s54.666 14.667 81.999 24c20.667 6.66699 37 13.834 49 21.501s21.167 16.167 27.5 25.5s10.333 19.333 12 30s2.5 22.667 2.5 36c0 12 -2.16699 23.833 -6.5 35.5s-11 22.334 -20 32.001s-20.667 17.5 -35 23.5s-31.833 9 -52.5 9
c-20 0 -37.667 -3 -53 -9s-28.166 -13.667 -38.499 -23s-18.333 -20.166 -24 -32.499s-8.5 -24.833 -8.5 -37.5c0 -6.66699 1.16699 -13.334 3.5 -20.001s3.5 -13 3.5 -19c0 -6.66699 -2.16699 -12 -6.5 -16s-9.16602 -6 -14.499 -6c-6.66699 0 -12.167 3 -16.5 9
s-6.5 15.667 -6.5 29c0 18 4 34.833 12 50.5s19.333 29.334 34 41.001s31.667 21 51 28s40.666 10.5 63.999 10.5c26 0 48.5 -3.16699 67.5 -9.5s34.5 -14.666 46.5 -24.999s21 -22.5 27 -36.5s9 -28.333 9 -43v-312c0 -9.33301 2.83301 -17.666 8.5 -24.999
s13.5 -11 23.5 -11c8 0 15 3 21 9s9 14.333 9 25c0 2 0.666992 3 2 3c2 0 3 -1 3 -3c0 -15.333 -4.66699 -26.166 -14 -32.499s-21 -9.5 -35 -9.5c-17.333 0 -30.833 5.66699 -40.5 17s-14.5 27.333 -14.5 48v191zM154.999 3.99414c31.333 0 59.166 10.002 83.499 30.002
s44.833 45.167 61.5 75.5s29.334 63.5 38.001 99.5s13 70 13 102c-4 -14.667 -12.167 -26.834 -24.5 -36.501s-32.5 -19.5 -60.5 -29.5c-19.333 -6.66699 -40.166 -12.834 -62.499 -18.501s-43 -13.334 -62 -23.001s-35 -22.167 -48 -37.5s-19.5 -36.333 -19.5 -63v-9
c0 -25.333 7.16699 -46.666 21.5 -63.999s34.166 -26 59.499 -26zM321.999 559.996c-7.33301 0 -13.5 2.5 -18.5 7.5s-7.5 11.167 -7.5 18.5s2.5 13.5 7.5 18.5s11.167 7.5 18.5 7.5s13.5 -2.5 18.5 -7.5s7.5 -11.167 7.5 -18.5s-2.5 -13.5 -7.5 -18.5
s-11.167 -7.5 -18.5 -7.5zM159.999 559.996c-7.33301 0 -13.5 2.5 -18.5 7.5s-7.5 11.167 -7.5 18.5s2.5 13.5 7.5 18.5s11.167 7.5 18.5 7.5s13.5 -2.5 18.5 -7.5s7.5 -11.167 7.5 -18.5s-2.5 -13.5 -7.5 -18.5s-11.167 -7.5 -18.5 -7.5z" />
    <glyph glyph-name="aring" unicode="&#xe5;" 
d="M351 253c-4.66699 -32.667 -12.501 -64.5059 -23.501 -95.5059s-25.167 -58.5 -42.5 -82.5s-37.5 -43.333 -60.5 -58s-48.5 -22 -76.5 -22c-37.333 0 -66 9.66699 -86 29s-30 44.666 -30 75.999c0 26.667 6.83301 47.667 20.5 63s31.334 27.833 53.001 37.5
s46.167 17.834 73.5 24.501s54.666 14.667 81.999 24c20.667 6.66699 37 13.834 49 21.501s21.167 16.167 27.5 25.5s10.333 19.333 12 30s2.5 22.667 2.5 36c0 12 -2.16699 23.833 -6.5 35.5s-11 22.334 -20 32.001s-20.667 17.5 -35 23.5s-31.833 9 -52.5 9
c-20 0 -37.667 -3 -53 -9s-28.166 -13.667 -38.499 -23s-18.333 -20.166 -24 -32.499s-8.5 -24.833 -8.5 -37.5c0 -6.66699 1.16699 -13.334 3.5 -20.001s3.5 -13 3.5 -19c0 -6.66699 -2.16699 -12 -6.5 -16s-9.16602 -6 -14.499 -6c-6.66699 0 -12.167 3 -16.5 9
s-6.5 15.667 -6.5 29c0 18 4 34.833 12 50.5s19.333 29.334 34 41.001s31.667 21 51 28s40.666 10.5 63.999 10.5c26 0 48.5 -3.16699 67.5 -9.5s34.5 -14.666 46.5 -24.999s21 -22.5 27 -36.5s9 -28.333 9 -43v-312c0 -9.33301 2.83301 -17.666 8.5 -24.999
s13.5 -11 23.5 -11c8 0 15 3 21 9s9 14.333 9 25c0 2 0.666992 3 2 3c2 0 3 -1 3 -3c0 -15.333 -4.66699 -26.166 -14 -32.499s-21 -9.5 -35 -9.5c-17.333 0 -30.833 5.66699 -40.5 17s-14.5 27.333 -14.5 48v191zM154.999 3.99414c31.333 0 59.166 10.002 83.499 30.002
s44.833 45.167 61.5 75.5s29.334 63.5 38.001 99.5s13 70 13 102c-4 -14.667 -12.167 -26.834 -24.5 -36.501s-32.5 -19.5 -60.5 -29.5c-19.333 -6.66699 -40.166 -12.834 -62.499 -18.501s-43 -13.334 -62 -23.001s-35 -22.167 -48 -37.5s-19.5 -36.333 -19.5 -63v-9
c0 -25.333 7.16699 -46.666 21.5 -63.999s34.166 -26 59.499 -26zM166.999 596.996c0 18.667 6.33301 34.334 19 47.001s28.334 19 47.001 19s34.334 -6.33301 47.001 -19s19 -28.334 19 -47.001s-6.33301 -34.334 -19 -47.001s-28.334 -19 -47.001 -19
s-34.334 6.33301 -47.001 19s-19 28.334 -19 47.001zM172.999 596.996c0 -16.667 5.83301 -30.834 17.5 -42.501s25.834 -17.5 42.501 -17.5s30.834 5.83301 42.501 17.5s17.5 25.834 17.5 42.501s-5.83301 30.834 -17.5 42.501s-25.834 17.5 -42.501 17.5
s-30.834 -5.83301 -42.501 -17.5s-17.5 -25.834 -17.5 -42.501z" />
    <glyph glyph-name="ae" unicode="&#xe6;" horiz-adv-x="760" 
d="M549 -5c-38 0 -69.8271 6.83594 -95.4941 20.5029s-46.334 32 -62.001 55s-26.834 50.167 -33.501 81.5s-10 65 -10 101c-4.66699 -32.667 -12.5 -64.5 -23.5 -95.5s-25.167 -58.5 -42.5 -82.5s-37.5 -43.333 -60.5 -58s-48.5 -22 -76.5 -22
c-38 0 -66.833 9.66699 -86.5 29s-29.5 44.666 -29.5 75.999c0 26.667 6.66699 47.834 20 63.501s30.833 28.334 52.5 38.001s46.167 17.667 73.5 24s55 14.166 83 23.499c20 6.66699 36 13.834 48 21.501s21.167 16.167 27.5 25.5s10.5 19.5 12.5 30.5s3 22.833 3 35.5
c0 11.333 -1.83301 22.833 -5.5 34.5s-10 22.334 -19 32.001s-20.667 17.667 -35 24s-32.5 9.5 -54.5 9.5c-20 0 -37.667 -3 -53 -9s-28.333 -13.667 -39 -23s-18.834 -20.166 -24.501 -32.499s-8.5 -24.833 -8.5 -37.5c0 -7.33301 1.33301 -14.333 4 -21s4 -13 4 -19
c0 -6.66699 -2.33301 -11.834 -7 -15.501s-9.66699 -5.5 -15 -5.5c-6.66699 0 -12.167 2.66699 -16.5 8s-6.5 14.666 -6.5 27.999c0 18 4 35 12 51s19.167 30 33.5 42s31.5 21.5 51.5 28.5s41.667 10.5 65 10.5c25.333 0 46.833 -3.33301 64.5 -10s32.167 -15 43.5 -25
s20.166 -21.333 26.499 -34s10.833 -25 13.5 -37c20 34.667 46.5 61 79.5 79s68.5 27 106.5 27c47.333 0 85.166 -10.333 113.499 -31s42.5 -49.334 42.5 -86.001c0 -17.333 -3.5 -32.166 -10.5 -44.499s-16.333 -23.333 -28 -33s-25.5 -17.834 -41.5 -24.501
s-33 -12.334 -51 -17.001l-68.5 -18c-23 -6 -43.833 -13.333 -62.5 -22s-33.834 -19 -45.501 -31s-17.5 -27 -17.5 -45v-8c0 -2.66699 0.666992 -5.66699 2 -9c6.66699 -15.333 14 -29 22 -41s17.667 -22.333 29 -31s24.833 -15.167 40.5 -19.5s34.167 -6.5 55.5 -6.5
s40.833 3.5 58.5 10.5s32.667 16 45 27s22 23.5 29 37.5s10.5 27.667 10.5 41c0 5.33301 -0.833008 10.666 -2.5 15.999s-2.5 10 -2.5 14c0 5.33301 2 9.66602 6 12.999s8.33301 5 13 5c5.33301 0 10.166 -1.83301 14.499 -5.5s6.5 -9.83398 6.5 -18.501
c0 -18 -4.83301 -35.833 -14.5 -53.5s-22.667 -33.167 -39 -46.5s-35.166 -24.166 -56.499 -32.499s-44 -12.5 -68 -12.5zM688.006 354.003c0 14.667 -2.16602 28.667 -6.49902 42s-11.333 24.833 -21 34.5s-22.334 17.334 -38.001 23.001s-35.167 8.5 -58.5 8.5
c-22.667 0 -44.167 -4 -64.5 -12s-38.333 -20 -54 -36s-28.5 -35.667 -38.5 -59s-16 -50.333 -18 -81l-3 -44c0 -18 0.833008 -36.167 2.5 -54.5s4.16699 -36.166 7.5 -53.499c2 18.667 9.83301 34.167 23.5 46.5s30.667 22.833 51 31.5s42.5 16 66.5 22s47 12.333 69 19
c25.333 7.33301 45.333 20.666 60 39.999s22 43.666 22 72.999zM152.007 4.00293c28.667 0 54.165 8.00195 76.498 24.002s41.5 36.833 57.5 62.5s28.833 54.167 38.5 85.5s16.5 62.333 20.5 93l3 42c-4.66699 -14.667 -13 -26.834 -25 -36.501s-32 -19.5 -60 -29.5
c-19.333 -6.66699 -40.166 -12.834 -62.499 -18.501s-43.166 -13.334 -62.499 -23.001s-35.5 -22.167 -48.5 -37.5s-19.5 -36.333 -19.5 -63v-9c0 -25.333 7.33301 -46.666 22 -63.999s34.667 -26 60 -26z" />
    <glyph glyph-name="ccedilla" unicode="&#xe7;" horiz-adv-x="452" 
d="M251 462c-24 0 -46.4971 -4.50391 -67.4971 -13.5039s-39.333 -22.667 -55 -41s-28 -41.666 -37 -69.999s-13.5 -61.833 -13.5 -100.5v-11c0 -33.333 2.83301 -63.833 8.5 -91.5s15 -51.5 28 -71.5s30.5 -35.667 52.5 -47s49 -17 81 -17c25.333 0 47.333 4.5 66 13.5
s33.5 20.333 44.5 34s18.333 28.667 22 45s3.16699 31.833 -1.5 46.5c-2.66699 6.66699 -2.33398 12.334 0.999023 17.001s7.66602 7.5 12.999 8.5s10.5 -0.333008 15.5 -4s7.83301 -10.167 8.5 -19.5c1.33301 -18 -2.33398 -35.833 -11.001 -53.5
s-20.834 -33.167 -36.501 -46.5s-34 -24.166 -55 -32.499s-43.167 -12.5 -66.5 -12.5h-9c0.666992 -9.33301 4.66699 -17.666 12 -24.999s15.333 -14.833 24 -22.5s16.667 -15.834 24 -24.501s11 -19 11 -31c0 -10.667 -2.5 -20.167 -7.5 -28.5s-11.333 -15.333 -19 -21
s-16.5 -10 -26.5 -13s-20 -4.5 -30 -4.5c-9.33301 0 -18.5 2.5 -27.5 7.5s-16.5 12.833 -22.5 23.5c-0.666992 1.33301 -0.666992 2.33301 0 3s1.33398 0.333984 2.00098 -0.999023c11.333 -19.333 26.666 -29 45.999 -29c13.333 0 26 4.83301 38 14.5s18 24.834 18 45.501
c0 9.33301 -2.33301 18.333 -7 27s-9.83398 17.167 -15.501 25.5s-10.834 16.833 -15.501 25.5s-7 18 -7 28c-34 1.33301 -63.5 8.16602 -88.5 20.499s-45.667 28.666 -62 48.999s-28.5 44.333 -36.5 72s-12 57.5 -12 89.5v11c0 38 6.33301 71.333 19 100
s29.167 52.667 49.5 72s43.333 33.833 69 43.5s51.167 14.5 76.5 14.5h7c24 0 46 -3 66 -9s37 -14.5 51 -25.5s24.5 -24.167 31.5 -39.5s9.5 -32 7.5 -50c-1.33301 -10 -4.5 -16.833 -9.5 -20.5s-10.167 -5 -15.5 -4s-9.66602 3.83301 -12.999 8.5
s-3.66602 10.334 -0.999023 17.001c4.66699 14 5.83398 28.167 3.50098 42.5s-8.33301 27 -18 38s-23 20 -40 27s-37.833 10.5 -62.5 10.5h-7z" />
    <glyph glyph-name="egrave" unicode="&#xe8;" horiz-adv-x="457" 
d="M240 -5c-36 0 -66.8291 6.16797 -92.4961 18.501s-46.667 29.333 -63 51s-28.166 47.167 -35.499 76.5s-10.666 61.333 -9.99902 96s7.16699 66.167 19.5 94.5s28.5 52.5 48.5 72.5s43.167 35.5 69.5 46.5s54.166 16.5 83.499 16.5c47.333 0 85.166 -10.333 113.499 -31
s42.5 -49.334 42.5 -86.001c0 -13.333 -3 -26 -9 -38s-14.167 -23 -24.5 -33s-22.333 -18.667 -36 -26s-28.167 -13 -43.5 -17c-25.333 -6 -51.5 -12.667 -78.5 -20s-51.167 -16.333 -72.5 -27s-37.833 -23.334 -49.5 -38.001s-14.834 -32.334 -9.50098 -53.001
c6.66699 -15.333 14 -29 22 -41s17.667 -22.333 29 -31s24.833 -15.167 40.5 -19.5s34.167 -6.5 55.5 -6.5c24.667 0 46.667 4.5 66 13.5s35.166 20.333 47.499 34s21 28.5 26 44.5s5.16699 31.333 0.5 46c-2.66699 7.33301 -2.16699 13.333 1.5 18
s8.16699 7.33398 13.5 8.00098s10.5 -0.833008 15.5 -4.5s7.5 -10.167 7.5 -19.5c0.666992 -18 -3.83301 -35.833 -13.5 -53.5s-22.834 -33.167 -39.501 -46.5s-35.834 -24.166 -57.501 -32.499s-44.167 -12.5 -67.5 -12.5zM379.004 354.001
c0 14.667 -2.16602 28.668 -6.49902 42.001s-11.333 24.833 -21 34.5s-22.334 17.334 -38.001 23.001s-35.167 8.5 -58.5 8.5c-52 0 -93.833 -18.833 -125.5 -56.5s-49.167 -90.834 -52.5 -159.501c-0.666992 -20.667 -0.166992 -41.667 1.5 -63s4.5 -41.666 8.5 -60.999
c2 18.667 9.83301 34.334 23.5 47.001s30.667 23.167 51 31.5s42.5 15.666 66.5 21.999l69 18.5c25.333 7.33301 45.333 20.666 60 39.999s22 43.666 22 72.999zM258.005 579.002l-3 -0.000976562l-47 43c-4 4 -7.5 7.83301 -10.5 11.5s-4.5 8.16699 -4.5 13.5
c0 6.66699 3.66699 10.334 11 11.001c10 0 18.667 -7 26 -21z" />
    <glyph glyph-name="eacute" unicode="&#xe9;" horiz-adv-x="457" 
d="M240 -5c-36 0 -66.8291 6.16797 -92.4961 18.501s-46.667 29.333 -63 51s-28.166 47.167 -35.499 76.5s-10.666 61.333 -9.99902 96s7.16699 66.167 19.5 94.5s28.5 52.5 48.5 72.5s43.167 35.5 69.5 46.5s54.166 16.5 83.499 16.5c47.333 0 85.166 -10.333 113.499 -31
s42.5 -49.334 42.5 -86.001c0 -13.333 -3 -26 -9 -38s-14.167 -23 -24.5 -33s-22.333 -18.667 -36 -26s-28.167 -13 -43.5 -17c-25.333 -6 -51.5 -12.667 -78.5 -20s-51.167 -16.333 -72.5 -27s-37.833 -23.334 -49.5 -38.001s-14.834 -32.334 -9.50098 -53.001
c6.66699 -15.333 14 -29 22 -41s17.667 -22.333 29 -31s24.833 -15.167 40.5 -19.5s34.167 -6.5 55.5 -6.5c24.667 0 46.667 4.5 66 13.5s35.166 20.333 47.499 34s21 28.5 26 44.5s5.16699 31.333 0.5 46c-2.66699 7.33301 -2.16699 13.333 1.5 18
s8.16699 7.33398 13.5 8.00098s10.5 -0.833008 15.5 -4.5s7.5 -10.167 7.5 -19.5c0.666992 -18 -3.83301 -35.833 -13.5 -53.5s-22.834 -33.167 -39.501 -46.5s-35.834 -24.166 -57.501 -32.499s-44.167 -12.5 -67.5 -12.5zM379.004 354.001
c0 14.667 -2.16602 28.668 -6.49902 42.001s-11.333 24.833 -21 34.5s-22.334 17.334 -38.001 23.001s-35.167 8.5 -58.5 8.5c-52 0 -93.833 -18.833 -125.5 -56.5s-49.167 -90.834 -52.5 -159.501c-0.666992 -20.667 -0.166992 -41.667 1.5 -63s4.5 -41.666 8.5 -60.999
c2 18.667 9.83301 34.334 23.5 47.001s30.667 23.167 51 31.5s42.5 15.666 66.5 21.999l69 18.5c25.333 7.33301 45.333 20.666 60 39.999s22 43.666 22 72.999zM268.005 639.002c7.33301 13.333 16 19.998 26 19.998c8.66699 0 13 -3.66699 13 -11
c0 -5.33301 -2 -10.166 -6 -14.499s-8 -8.16602 -12 -11.499l-52 -43h-3z" />
    <glyph glyph-name="ecircumflex" unicode="&#xea;" horiz-adv-x="457" 
d="M240 -5c-36 0 -66.8291 6.16797 -92.4961 18.501s-46.667 29.333 -63 51s-28.166 47.167 -35.499 76.5s-10.666 61.333 -9.99902 96s7.16699 66.167 19.5 94.5s28.5 52.5 48.5 72.5s43.167 35.5 69.5 46.5s54.166 16.5 83.499 16.5c47.333 0 85.166 -10.333 113.499 -31
s42.5 -49.334 42.5 -86.001c0 -13.333 -3 -26 -9 -38s-14.167 -23 -24.5 -33s-22.333 -18.667 -36 -26s-28.167 -13 -43.5 -17c-25.333 -6 -51.5 -12.667 -78.5 -20s-51.167 -16.333 -72.5 -27s-37.833 -23.334 -49.5 -38.001s-14.834 -32.334 -9.50098 -53.001
c6.66699 -15.333 14 -29 22 -41s17.667 -22.333 29 -31s24.833 -15.167 40.5 -19.5s34.167 -6.5 55.5 -6.5c24.667 0 46.667 4.5 66 13.5s35.166 20.333 47.499 34s21 28.5 26 44.5s5.16699 31.333 0.5 46c-2.66699 7.33301 -2.16699 13.333 1.5 18
s8.16699 7.33398 13.5 8.00098s10.5 -0.833008 15.5 -4.5s7.5 -10.167 7.5 -19.5c0.666992 -18 -3.83301 -35.833 -13.5 -53.5s-22.834 -33.167 -39.501 -46.5s-35.834 -24.166 -57.501 -32.499s-44.167 -12.5 -67.5 -12.5zM379.004 354.001
c0 14.667 -2.16602 28.668 -6.49902 42.001s-11.333 24.833 -21 34.5s-22.334 17.334 -38.001 23.001s-35.167 8.5 -58.5 8.5c-52 0 -93.833 -18.833 -125.5 -56.5s-49.167 -90.834 -52.5 -159.501c-0.666992 -20.667 -0.166992 -41.667 1.5 -63s4.5 -41.666 8.5 -60.999
c2 18.667 9.83301 34.334 23.5 47.001s30.667 23.167 51 31.5s42.5 15.666 66.5 21.999l69 18.5c25.333 7.33301 45.333 20.666 60 39.999s22 43.666 22 72.999zM242.005 626.002l-120 -85c-2.66699 -1.33301 -4.16699 -1.5 -4.5 -0.5s0.166992 2.16699 1.5 3.5l38 37.5
l31 31l27 27.5l26 27c0.666992 0.666992 1.66699 0.666992 3 0l26 -27l27 -27.5l31 -31l38 -37.5c1.33301 -1.33301 1.5 -2.5 0.5 -3.5s-2.16699 -0.833008 -3.5 0.5z" />
    <glyph glyph-name="edieresis" unicode="&#xeb;" horiz-adv-x="457" 
d="M240 -5c-36 0 -66.8291 6.16797 -92.4961 18.501s-46.667 29.333 -63 51s-28.166 47.167 -35.499 76.5s-10.666 61.333 -9.99902 96s7.16699 66.167 19.5 94.5s28.5 52.5 48.5 72.5s43.167 35.5 69.5 46.5s54.166 16.5 83.499 16.5c47.333 0 85.166 -10.333 113.499 -31
s42.5 -49.334 42.5 -86.001c0 -13.333 -3 -26 -9 -38s-14.167 -23 -24.5 -33s-22.333 -18.667 -36 -26s-28.167 -13 -43.5 -17c-25.333 -6 -51.5 -12.667 -78.5 -20s-51.167 -16.333 -72.5 -27s-37.833 -23.334 -49.5 -38.001s-14.834 -32.334 -9.50098 -53.001
c6.66699 -15.333 14 -29 22 -41s17.667 -22.333 29 -31s24.833 -15.167 40.5 -19.5s34.167 -6.5 55.5 -6.5c24.667 0 46.667 4.5 66 13.5s35.166 20.333 47.499 34s21 28.5 26 44.5s5.16699 31.333 0.5 46c-2.66699 7.33301 -2.16699 13.333 1.5 18
s8.16699 7.33398 13.5 8.00098s10.5 -0.833008 15.5 -4.5s7.5 -10.167 7.5 -19.5c0.666992 -18 -3.83301 -35.833 -13.5 -53.5s-22.834 -33.167 -39.501 -46.5s-35.834 -24.166 -57.501 -32.499s-44.167 -12.5 -67.5 -12.5zM379.004 354.001
c0 14.667 -2.16602 28.668 -6.49902 42.001s-11.333 24.833 -21 34.5s-22.334 17.334 -38.001 23.001s-35.167 8.5 -58.5 8.5c-52 0 -93.833 -18.833 -125.5 -56.5s-49.167 -90.834 -52.5 -159.501c-0.666992 -20.667 -0.166992 -41.667 1.5 -63s4.5 -41.666 8.5 -60.999
c2 18.667 9.83301 34.334 23.5 47.001s30.667 23.167 51 31.5s42.5 15.666 66.5 21.999l69 18.5c25.333 7.33301 45.333 20.666 60 39.999s22 43.666 22 72.999zM316.005 560.002c-7.33301 0 -13.5 2.5 -18.5 7.5s-7.5 11.167 -7.5 18.5s2.5 13.5 7.5 18.5
s11.167 7.5 18.5 7.5s13.5 -2.5 18.5 -7.5s7.5 -11.167 7.5 -18.5s-2.5 -13.5 -7.5 -18.5s-11.167 -7.5 -18.5 -7.5zM154.005 560.002c-7.33301 0 -13.5 2.5 -18.5 7.5s-7.5 11.167 -7.5 18.5s2.5 13.5 7.5 18.5s11.167 7.5 18.5 7.5s13.5 -2.5 18.5 -7.5
s7.5 -11.167 7.5 -18.5s-2.5 -13.5 -7.5 -18.5s-11.167 -7.5 -18.5 -7.5z" />
    <glyph glyph-name="igrave" unicode="&#xec;" horiz-adv-x="174" 
d="M14 452c0 2 0.666992 2.99805 2 2.99805h102c2 0 3 -1 3 -3c0 -1.33301 -1 -2 -3 -2h-15v-409c0 -9.33301 2.83301 -17.666 8.5 -24.999s13.5 -11 23.5 -11c8 0 15 3 21 9s9 14.333 9 25c0 2 0.833008 3 2.5 3s2.5 -1 2.5 -3c0 -15.333 -4.66699 -26.333 -14 -33
s-21 -10 -35 -10c-17.333 0 -30.833 5.83301 -40.5 17.5s-14.5 27.834 -14.5 48.501v362c0 15.333 -6.66699 24 -20 26h-30c-1.33301 0 -2 0.666992 -2 2zM98 578.998l-3 -0.000976562l-47 43c-4 4 -7.5 7.83301 -10.5 11.5s-4.5 8.16699 -4.5 13.5
c0 6.66699 3.66699 10.334 11 11.001c10 0 18.667 -7 26 -21z" />
    <glyph glyph-name="iacute" unicode="&#xed;" horiz-adv-x="174" 
d="M14 452c0 2 0.666992 2.99805 2 2.99805h102c2 0 3 -1 3 -3c0 -1.33301 -1 -2 -3 -2h-15v-409c0 -9.33301 2.83301 -17.666 8.5 -24.999s13.5 -11 23.5 -11c8 0 15 3 21 9s9 14.333 9 25c0 2 0.833008 3 2.5 3s2.5 -1 2.5 -3c0 -15.333 -4.66699 -26.333 -14 -33
s-21 -10 -35 -10c-17.333 0 -30.833 5.83301 -40.5 17.5s-14.5 27.834 -14.5 48.501v362c0 15.333 -6.66699 24 -20 26h-30c-1.33301 0 -2 0.666992 -2 2zM85 638.998c7.33301 13.333 16 19.998 26 19.998c8.66699 0 13 -3.66699 13 -11c0 -5.33301 -2 -10.166 -6 -14.499
s-8 -8.16602 -12 -11.499l-52 -43h-3z" />
    <glyph glyph-name="icircumflex" unicode="&#xee;" horiz-adv-x="174" 
d="M14 452c0 2 0.666992 2.99805 2 2.99805h102c2 0 3 -1 3 -3c0 -1.33301 -1 -2 -3 -2h-15v-409c0 -9.33301 2.83301 -17.666 8.5 -24.999s13.5 -11 23.5 -11c8 0 15 3 21 9s9 14.333 9 25c0 2 0.833008 3 2.5 3s2.5 -1 2.5 -3c0 -15.333 -4.66699 -26.333 -14 -33
s-21 -10 -35 -10c-17.333 0 -30.833 5.83301 -40.5 17.5s-14.5 27.834 -14.5 48.501v362c0 15.333 -6.66699 24 -20 26h-30c-1.33301 0 -2 0.666992 -2 2zM87 625.998l-120 -85c-2.66699 -1.33301 -4.16699 -1.5 -4.5 -0.5s0.166992 2.16699 1.5 3.5l38 37.5l31 31l27 27.5
l26 27c0.666992 0.666992 1.66699 0.666992 3 0l26 -27l27 -27.5l31 -31l38 -37.5c1.33301 -1.33301 1.5 -2.5 0.5 -3.5s-2.16699 -0.833008 -3.5 0.5z" />
    <glyph glyph-name="idieresis" unicode="&#xef;" horiz-adv-x="174" 
d="M14 452c0 2 0.666992 2.99805 2 2.99805h102c2 0 3 -1 3 -3c0 -1.33301 -1 -2 -3 -2h-15v-409c0 -9.33301 2.83301 -17.666 8.5 -24.999s13.5 -11 23.5 -11c8 0 15 3 21 9s9 14.333 9 25c0 2 0.833008 3 2.5 3s2.5 -1 2.5 -3c0 -15.333 -4.66699 -26.333 -14 -33
s-21 -10 -35 -10c-17.333 0 -30.833 5.83301 -40.5 17.5s-14.5 27.834 -14.5 48.501v362c0 15.333 -6.66699 24 -20 26h-30c-1.33301 0 -2 0.666992 -2 2zM156 619.998c-7.33301 0 -13.5 2.5 -18.5 7.5s-7.5 11.167 -7.5 18.5s2.5 13.5 7.5 18.5s11.167 7.5 18.5 7.5
s13.5 -2.5 18.5 -7.5s7.5 -11.167 7.5 -18.5s-2.5 -13.5 -7.5 -18.5s-11.167 -7.5 -18.5 -7.5zM-6 619.998c-7.33301 0 -13.5 2.5 -18.5 7.5s-7.5 11.167 -7.5 18.5s2.5 13.5 7.5 18.5s11.167 7.5 18.5 7.5s13.5 -2.5 18.5 -7.5s7.5 -11.167 7.5 -18.5
s-2.5 -13.5 -7.5 -18.5s-11.167 -7.5 -18.5 -7.5z" />
    <glyph glyph-name="eth" unicode="&#xf0;" horiz-adv-x="496" 
d="M458 222c0 -34 -4.99902 -64.8311 -14.999 -92.498s-24.167 -51.5 -42.5 -71.5s-40.333 -35.5 -66 -46.5s-54.167 -16.5 -85.5 -16.5c-32 0 -61 5.5 -87 16.5s-48.167 26.5 -66.5 46.5s-32.666 43.833 -42.999 71.5s-15.5 58.5 -15.5 92.5v12c0 34 5 65.167 15 93.5
s24.167 52.833 42.5 73.5s40.833 36.834 67.5 48.501s57 17.5 91 17.5c38 0 71.167 -8.33301 99.5 -25s51.166 -39.334 68.499 -68.001c-8.66699 43.333 -27.334 82.666 -56.001 117.999s-62.334 62.333 -101.001 81l-49 -48c-1.33301 -1.33301 -2.66602 -2 -3.99902 -2
s-2 1 -2 3l1 2l48 47c-31.333 14.667 -62.333 22 -93 22h-5c-3.33301 0 -5 0.666992 -5 2c0 2 1.66699 3 5 3h5c33.333 0 66.333 -6.66699 99 -20l47 46c1.33301 1.33301 2.33301 2 3 2c2 0 3 -1 3 -3c0 -0.666992 -0.333008 -1.33398 -1 -2.00098l-47 -46
c26.667 -11.333 51.5 -26.833 74.5 -46.5s43 -42.5 60 -68.5s30.333 -55 40 -87s14.5 -66.333 14.5 -103v-52zM76.001 219.002c0 -68 15.1689 -121.333 45.502 -160s72.5 -58 126.5 -58h2c54 0 95.667 19.333 125 58s44 92 44 160v18c0 34 -3.5 64.667 -10.5 92
s-17.5 50.833 -31.5 70.5s-31.333 34.834 -52 45.501s-44.334 16 -71.001 16h-2c-28.667 0 -54 -5.33301 -76 -16s-40.333 -25.834 -55 -45.501s-25.834 -43.167 -33.501 -70.5s-11.5 -58 -11.5 -92v-18z" />
    <glyph glyph-name="ntilde" unicode="&#xf1;" horiz-adv-x="496" 
d="M24 0c-1.33301 0 -1.99902 0.828125 -1.99902 2.49512s0.666992 2.5 2 2.5h39c6.66699 0 10 3.33301 10 10v410c0 16.667 -7 25 -21 25h-29c-1.33301 0 -2 0.833008 -2 2.5s0.666992 2.5 2 2.5h102c2 0 3 -0.833008 3 -2.5s-1 -2.5 -3 -2.5h-15v-124
c6.66699 18.667 15.667 36.5 27 53.5s24.166 32 38.499 45s30.5 23.167 48.5 30.5s37 11 57 11c24 0 44.833 -3.16699 62.5 -9.5s32.334 -14.833 44.001 -25.5s20.5 -22.667 26.5 -36s9 -27.333 9 -42v-312c0 -9.33301 2.83301 -17.666 8.5 -24.999s13.5 -11 23.5 -11
c8 0 15 3 21 9s9 14.333 9 25c0 2 0.833008 3 2.5 3s2.5 -1 2.5 -3c0 -15.333 -4.66699 -26.333 -14 -33s-21 -10 -35 -10c-17.333 0 -30.833 5.83301 -40.5 17.5s-14.5 27.834 -14.5 48.501v285c0 14.667 -2.5 29.334 -7.5 44.001s-12.667 27.334 -23 38.001
s-23.333 18.834 -39 24.501s-33.834 7.5 -54.501 5.5c-17.333 -2 -33.833 -7.16699 -49.5 -15.5s-30 -19 -43 -32s-24.667 -28 -35 -45s-18.5 -34.833 -24.5 -53.5v-298c0 -6.66699 3.33301 -10 10 -10h37c2 0 3 -0.833008 3 -2.5s-1 -2.5 -3 -2.5h-133zM375.001 637.995
c0 -23.333 -5.66406 -42.498 -16.9971 -57.498s-28 -22.5 -50 -22.5c-12 0 -23 2.83301 -33 8.5s-19.833 12 -29.5 19s-19.334 13.5 -29.001 19.5s-19.834 9 -30.501 9c-16 0 -28.667 -4.33301 -38 -13s-14 -22.334 -14 -41.001c0 -1.33301 -0.666992 -2 -2 -2
s-2 0.666992 -2 2c0 20 6.66699 37.167 20 51.5s31 21.5 53 21.5c11.333 0 21.5 -2.66699 30.5 -8s18 -11.333 27 -18s18.167 -12.667 27.5 -18s19.666 -8 30.999 -8c17.333 0 30.333 5.16699 39 15.5s13 24.166 13 41.499c0 2 0.666992 3 2 3s2 -1 2 -3z" />
    <glyph glyph-name="ograve" unicode="&#xf2;" horiz-adv-x="497" 
d="M249 467c28 0 54.6709 -4.66992 80.0039 -14.0029s47.666 -23.166 66.999 -41.499s34.666 -41.666 45.999 -69.999s17 -61.5 17 -99.5v-11c0 -32.667 -4.5 -63.167 -13.5 -91.5s-22.333 -53.166 -40 -74.499s-39.667 -38.166 -66 -50.499s-56.833 -18.5 -91.5 -18.5
s-65.167 6.16699 -91.5 18.5s-48.333 29.166 -66 50.499s-31 46.166 -40 74.499s-13.5 58.833 -13.5 91.5v11c0 18.667 3.16699 38.334 9.5 59.001s16.166 39 29.499 55c1.33301 16 7.16602 30.833 17.499 44.5s23.5 25.5 39.5 35.5s34 17.667 54 23s40.667 8 62 8z
M249.004 461.997c-20.667 0 -39.3359 -2.66504 -56.0029 -7.99805s-30.834 -12.5 -42.501 -21.5s-20.667 -19.5 -27 -31.5s-9.5 -24.333 -9.5 -37c0 -4.66699 0.666992 -9.5 2 -14.5s2 -9.83301 2 -14.5c0 -6.66699 -1.83301 -11.834 -5.5 -15.501s-8.16699 -5.5 -13.5 -5.5
c-8.66699 0 -15 5 -19 15c-3.33301 -3.33301 -3.66602 -7.83301 -0.999023 -13.5s4.33398 -11.5 5.00098 -17.5c-2 -7.33301 -3.83301 -16.833 -5.5 -28.5s-2.5 -22.834 -2.5 -33.501v-5c0 -33.333 3.33301 -64 10 -92s17 -52.167 31 -72.5s31.833 -36.333 53.5 -48
s47.5 -17.5 77.5 -17.5c30.667 0 56.834 5.83301 78.501 17.5s39.334 27.667 53.001 48s23.667 44.5 30 72.5s9.5 58.667 9.5 92v11c0 40 -4.66699 74 -14 102s-22 50.667 -38 68s-34.167 30 -54.5 38s-41.5 12 -63.5 12zM268.002 578.999l-3 -0.000976562l-47 43
c-4 4 -7.5 7.83301 -10.5 11.5s-4.5 8.16699 -4.5 13.5c0 6.66699 3.66699 10.334 11 11.001c10 0 18.667 -7 26 -21z" />
    <glyph glyph-name="oacute" unicode="&#xf3;" horiz-adv-x="497" 
d="M249 467c28 0 54.6709 -4.66992 80.0039 -14.0029s47.666 -23.166 66.999 -41.499s34.666 -41.666 45.999 -69.999s17 -61.5 17 -99.5v-11c0 -32.667 -4.5 -63.167 -13.5 -91.5s-22.333 -53.166 -40 -74.499s-39.667 -38.166 -66 -50.499s-56.833 -18.5 -91.5 -18.5
s-65.167 6.16699 -91.5 18.5s-48.333 29.166 -66 50.499s-31 46.166 -40 74.499s-13.5 58.833 -13.5 91.5v11c0 18.667 3.16699 38.334 9.5 59.001s16.166 39 29.499 55c1.33301 16 7.16602 30.833 17.499 44.5s23.5 25.5 39.5 35.5s34 17.667 54 23s40.667 8 62 8z
M249.004 461.997c-20.667 0 -39.3359 -2.66504 -56.0029 -7.99805s-30.834 -12.5 -42.501 -21.5s-20.667 -19.5 -27 -31.5s-9.5 -24.333 -9.5 -37c0 -4.66699 0.666992 -9.5 2 -14.5s2 -9.83301 2 -14.5c0 -6.66699 -1.83301 -11.834 -5.5 -15.501s-8.16699 -5.5 -13.5 -5.5
c-8.66699 0 -15 5 -19 15c-3.33301 -3.33301 -3.66602 -7.83301 -0.999023 -13.5s4.33398 -11.5 5.00098 -17.5c-2 -7.33301 -3.83301 -16.833 -5.5 -28.5s-2.5 -22.834 -2.5 -33.501v-5c0 -33.333 3.33301 -64 10 -92s17 -52.167 31 -72.5s31.833 -36.333 53.5 -48
s47.5 -17.5 77.5 -17.5c30.667 0 56.834 5.83301 78.501 17.5s39.334 27.667 53.001 48s23.667 44.5 30 72.5s9.5 58.667 9.5 92v11c0 40 -4.66699 74 -14 102s-22 50.667 -38 68s-34.167 30 -54.5 38s-41.5 12 -63.5 12zM260.002 638.999
c7.33301 13.333 16 19.998 26 19.998c8.66699 0 13 -3.66699 13 -11c0 -5.33301 -2 -10.166 -6 -14.499s-8 -8.16602 -12 -11.499l-52 -43h-3z" />
    <glyph glyph-name="ocircumflex" unicode="&#xf4;" horiz-adv-x="497" 
d="M249 467c28 0 54.6709 -4.66992 80.0039 -14.0029s47.666 -23.166 66.999 -41.499s34.666 -41.666 45.999 -69.999s17 -61.5 17 -99.5v-11c0 -32.667 -4.5 -63.167 -13.5 -91.5s-22.333 -53.166 -40 -74.499s-39.667 -38.166 -66 -50.499s-56.833 -18.5 -91.5 -18.5
s-65.167 6.16699 -91.5 18.5s-48.333 29.166 -66 50.499s-31 46.166 -40 74.499s-13.5 58.833 -13.5 91.5v11c0 18.667 3.16699 38.334 9.5 59.001s16.166 39 29.499 55c1.33301 16 7.16602 30.833 17.499 44.5s23.5 25.5 39.5 35.5s34 17.667 54 23s40.667 8 62 8z
M249.004 461.997c-20.667 0 -39.3359 -2.66504 -56.0029 -7.99805s-30.834 -12.5 -42.501 -21.5s-20.667 -19.5 -27 -31.5s-9.5 -24.333 -9.5 -37c0 -4.66699 0.666992 -9.5 2 -14.5s2 -9.83301 2 -14.5c0 -6.66699 -1.83301 -11.834 -5.5 -15.501s-8.16699 -5.5 -13.5 -5.5
c-8.66699 0 -15 5 -19 15c-3.33301 -3.33301 -3.66602 -7.83301 -0.999023 -13.5s4.33398 -11.5 5.00098 -17.5c-2 -7.33301 -3.83301 -16.833 -5.5 -28.5s-2.5 -22.834 -2.5 -33.501v-5c0 -33.333 3.33301 -64 10 -92s17 -52.167 31 -72.5s31.833 -36.333 53.5 -48
s47.5 -17.5 77.5 -17.5c30.667 0 56.834 5.83301 78.501 17.5s39.334 27.667 53.001 48s23.667 44.5 30 72.5s9.5 58.667 9.5 92v11c0 40 -4.66699 74 -14 102s-22 50.667 -38 68s-34.167 30 -54.5 38s-41.5 12 -63.5 12zM243.002 625.999l-120 -85
c-2.66699 -1.33301 -4.16699 -1.5 -4.5 -0.5s0.166992 2.16699 1.5 3.5l38 37.5l31 31l27 27.5l26 27c0.666992 0.666992 1.66699 0.666992 3 0l26 -27l27 -27.5l31 -31l38 -37.5c1.33301 -1.33301 1.5 -2.5 0.5 -3.5s-2.16699 -0.833008 -3.5 0.5z" />
    <glyph glyph-name="otilde" unicode="&#xf5;" horiz-adv-x="497" 
d="M249 467c28 0 54.6709 -4.66992 80.0039 -14.0029s47.666 -23.166 66.999 -41.499s34.666 -41.666 45.999 -69.999s17 -61.5 17 -99.5v-11c0 -32.667 -4.5 -63.167 -13.5 -91.5s-22.333 -53.166 -40 -74.499s-39.667 -38.166 -66 -50.499s-56.833 -18.5 -91.5 -18.5
s-65.167 6.16699 -91.5 18.5s-48.333 29.166 -66 50.499s-31 46.166 -40 74.499s-13.5 58.833 -13.5 91.5v11c0 18.667 3.16699 38.334 9.5 59.001s16.166 39 29.499 55c1.33301 16 7.16602 30.833 17.499 44.5s23.5 25.5 39.5 35.5s34 17.667 54 23s40.667 8 62 8z
M249.004 461.997c-20.667 0 -39.3359 -2.66504 -56.0029 -7.99805s-30.834 -12.5 -42.501 -21.5s-20.667 -19.5 -27 -31.5s-9.5 -24.333 -9.5 -37c0 -4.66699 0.666992 -9.5 2 -14.5s2 -9.83301 2 -14.5c0 -6.66699 -1.83301 -11.834 -5.5 -15.501s-8.16699 -5.5 -13.5 -5.5
c-8.66699 0 -15 5 -19 15c-3.33301 -3.33301 -3.66602 -7.83301 -0.999023 -13.5s4.33398 -11.5 5.00098 -17.5c-2 -7.33301 -3.83301 -16.833 -5.5 -28.5s-2.5 -22.834 -2.5 -33.501v-5c0 -33.333 3.33301 -64 10 -92s17 -52.167 31 -72.5s31.833 -36.333 53.5 -48
s47.5 -17.5 77.5 -17.5c30.667 0 56.834 5.83301 78.501 17.5s39.334 27.667 53.001 48s23.667 44.5 30 72.5s9.5 58.667 9.5 92v11c0 40 -4.66699 74 -14 102s-22 50.667 -38 68s-34.167 30 -54.5 38s-41.5 12 -63.5 12zM371.002 637.999
c0 -23.333 -5.66406 -42.498 -16.9971 -57.498s-28 -22.5 -50 -22.5c-12 0 -23 2.83301 -33 8.5s-19.833 12 -29.5 19s-19.334 13.5 -29.001 19.5s-19.834 9 -30.501 9c-16 0 -28.667 -4.33301 -38 -13s-14 -22.334 -14 -41.001c0 -1.33301 -0.666992 -2 -2 -2
s-2 0.666992 -2 2c0 20 6.66699 37.167 20 51.5s31 21.5 53 21.5c11.333 0 21.5 -2.66699 30.5 -8s18 -11.333 27 -18s18.167 -12.667 27.5 -18s19.666 -8 30.999 -8c17.333 0 30.333 5.16699 39 15.5s13 24.166 13 41.499c0 2 0.666992 3 2 3s2 -1 2 -3z" />
    <glyph glyph-name="odieresis" unicode="&#xf6;" horiz-adv-x="497" 
d="M249 467c28 0 54.6709 -4.66992 80.0039 -14.0029s47.666 -23.166 66.999 -41.499s34.666 -41.666 45.999 -69.999s17 -61.5 17 -99.5v-11c0 -32.667 -4.5 -63.167 -13.5 -91.5s-22.333 -53.166 -40 -74.499s-39.667 -38.166 -66 -50.499s-56.833 -18.5 -91.5 -18.5
s-65.167 6.16699 -91.5 18.5s-48.333 29.166 -66 50.499s-31 46.166 -40 74.499s-13.5 58.833 -13.5 91.5v11c0 18.667 3.16699 38.334 9.5 59.001s16.166 39 29.499 55c1.33301 16 7.16602 30.833 17.499 44.5s23.5 25.5 39.5 35.5s34 17.667 54 23s40.667 8 62 8z
M249.004 461.997c-20.667 0 -39.3359 -2.66504 -56.0029 -7.99805s-30.834 -12.5 -42.501 -21.5s-20.667 -19.5 -27 -31.5s-9.5 -24.333 -9.5 -37c0 -4.66699 0.666992 -9.5 2 -14.5s2 -9.83301 2 -14.5c0 -6.66699 -1.83301 -11.834 -5.5 -15.501s-8.16699 -5.5 -13.5 -5.5
c-8.66699 0 -15 5 -19 15c-3.33301 -3.33301 -3.66602 -7.83301 -0.999023 -13.5s4.33398 -11.5 5.00098 -17.5c-2 -7.33301 -3.83301 -16.833 -5.5 -28.5s-2.5 -22.834 -2.5 -33.501v-5c0 -33.333 3.33301 -64 10 -92s17 -52.167 31 -72.5s31.833 -36.333 53.5 -48
s47.5 -17.5 77.5 -17.5c30.667 0 56.834 5.83301 78.501 17.5s39.334 27.667 53.001 48s23.667 44.5 30 72.5s9.5 58.667 9.5 92v11c0 40 -4.66699 74 -14 102s-22 50.667 -38 68s-34.167 30 -54.5 38s-41.5 12 -63.5 12zM324.002 559.999c-7.33301 0 -13.5 2.5 -18.5 7.5
s-7.5 11.167 -7.5 18.5s2.5 13.5 7.5 18.5s11.167 7.5 18.5 7.5s13.5 -2.5 18.5 -7.5s7.5 -11.167 7.5 -18.5s-2.5 -13.5 -7.5 -18.5s-11.167 -7.5 -18.5 -7.5zM162.002 559.999c-7.33301 0 -13.5 2.5 -18.5 7.5s-7.5 11.167 -7.5 18.5s2.5 13.5 7.5 18.5
s11.167 7.5 18.5 7.5s13.5 -2.5 18.5 -7.5s7.5 -11.167 7.5 -18.5s-2.5 -13.5 -7.5 -18.5s-11.167 -7.5 -18.5 -7.5z" />
    <glyph glyph-name="divide" unicode="&#xf7;" horiz-adv-x="720" 
d="M111 310c-7.33301 0 -11 3.5 -11 10.5s3.66699 10.5 11 10.5l143 -8h212l143 8c7.33301 0 11 -3.5 11 -10.5s-3.66699 -10.5 -11 -10.5l-143 8h-212zM330 115c0 8 3 15 9 21s13 9 21 9c8.66699 0 15.834 -3 21.501 -9s8.5 -13 8.5 -21
c0 -8.66699 -2.83301 -15.834 -8.5 -21.501s-12.834 -8.5 -21.501 -8.5c-8 0 -15 2.83301 -21 8.5s-9 12.834 -9 21.501zM330 527c0 8 2.83301 15 8.5 21s12.834 9 21.501 9c8 0 15 -3 21 -9s9 -13 9 -21c0 -8.66699 -3 -15.834 -9 -21.501s-13 -8.5 -21 -8.5
c-8.66699 0 -15.834 2.83301 -21.501 8.5s-8.5 12.834 -8.5 21.501z" />
    <glyph glyph-name="oslash" unicode="&#xf8;" horiz-adv-x="497" 
d="M249 467c24 0 48.0029 -3.66895 72.0029 -11.002l14 51c2 4.66699 4.33301 7 7 7c4 0 6 -2 6 -6c0 -2 -0.333008 -3.66699 -1 -5l-22 -49c38.667 -13.333 70.667 -37.5 96 -72.5s38 -81.5 38 -139.5v-11c0 -32.667 -4.5 -63.167 -13.5 -91.5s-22.333 -53.166 -40 -74.499
s-39.667 -38.166 -66 -50.499s-56.833 -18.5 -91.5 -18.5c-30.667 0 -58.334 5 -83.001 15l-15 -57c-0.666992 -3.33301 -3 -5 -7 -5s-6 2 -6 6c0 1.33301 0.333008 2.33301 1 3l23 54c-40.667 17.333 -71.5 45.666 -92.5 84.999s-31.5 84 -31.5 134v11
c0 18.667 3.16699 38.334 9.5 59.001s16.166 39 29.499 55c1.33301 16 7.16602 30.833 17.499 44.5s23.5 25.5 39.5 35.5s34 17.667 54 23s40.667 8 62 8zM419.003 241.998c0 57.333 -9.33496 102.333 -28.002 135s-42 55.667 -70 69l-153 -427c22 -12 48.667 -18 80 -18
c30.667 0 56.834 5.83301 78.501 17.5s39.334 27.667 53.001 48s23.667 44.5 30 72.5s9.5 58.667 9.5 92v11zM249.001 461.998c-20.667 0 -39.332 -2.66602 -55.999 -7.99902s-30.834 -12.5 -42.501 -21.5s-20.667 -19.5 -27 -31.5s-9.5 -24.333 -9.5 -37
c0 -4.66699 0.666992 -9.5 2 -14.5s2 -9.83301 2 -14.5c0 -6.66699 -1.83301 -11.834 -5.5 -15.501s-8.16699 -5.5 -13.5 -5.5c-8.66699 0 -15 5 -19 15c-3.33301 -2.66699 -4.5 -7.16699 -3.5 -13.5s3.16699 -14.166 6.5 -23.499c-2.66699 -7.33301 -4.5 -16.333 -5.5 -27
s-1.5 -20.334 -1.5 -29.001v-5c0 -48.667 7 -91.5 21 -128.5s36.667 -64.5 68 -82.5l153 427c-22 10 -45 15 -69 15z" />
    <glyph glyph-name="ugrave" unicode="&#xf9;" horiz-adv-x="504" 
d="M430 41c0 -9.33301 2.49805 -17.666 7.49805 -24.999s12.5 -11 22.5 -11c8.66699 0 16 3 22 9s9 14.333 9 25c0 2 1 3 3 3s3 -1 3 -3c0 -15.333 -4.83301 -26.166 -14.5 -32.499s-21.5 -9.5 -35.5 -9.5c-17.333 0 -30.666 5.66699 -39.999 17s-14 27.333 -14 48v198
c-6 -34 -14.667 -66.833 -26 -98.5s-25.166 -59.834 -41.499 -84.501s-35.333 -44.5 -57 -59.5s-45.834 -22.5 -72.501 -22.5c-17.333 0 -34 2.33301 -50 7s-30.167 12.5 -42.5 23.5s-22.166 26 -29.499 45s-11 43.167 -11 72.5v282c0 7.33301 -1.5 13.333 -4.5 18
s-8.16699 7 -15.5 7h-29c-2 0 -3 0.833008 -3 2.5s1 2.5 3 2.5h116c2.66699 0 4 -0.833008 4 -2.5s-1.33301 -2.5 -4 -2.5h-29v-310c0 -31.333 2.83301 -56.166 8.5 -74.499s13.167 -32.166 22.5 -41.499s20 -15.333 32 -18s24.333 -4 37 -4c23.333 0 44.5 6.66699 63.5 20
s36 31.166 51 53.499s28 48 39 77s19.833 58.833 26.5 89.5c2 12 3.83301 22.333 5.5 31s3 17.667 4 27s1.66699 19.666 2 30.999s0.5 25.666 0.5 42.999v71c0 6.66699 3 10 9 10h17c7.33301 0 11 -3.33301 11 -10v-404zM279.998 579h-4l-47 43l-10 11.5
c-3.33301 3.66699 -5 8.16699 -5 13.5c0 6 4 9.66699 12 11c10.667 0 19 -7 25 -21z" />
    <glyph glyph-name="uacute" unicode="&#xfa;" horiz-adv-x="507" 
d="M433 41c0 -9.33301 2.66602 -17.666 7.99902 -24.999s13 -11 23 -11c8 0 15 3 21 9s9 14.333 9 25c0 2 1 3 3 3s3 -1 3 -3c0 -15.333 -4.83301 -26.166 -14.5 -32.499s-21.5 -9.5 -35.5 -9.5c-17.333 0 -30.666 5.66699 -39.999 17s-14 27.333 -14 48v198
c-6 -34 -14.667 -66.833 -26 -98.5s-25.166 -59.834 -41.499 -84.501s-35.333 -44.5 -57 -59.5s-45.834 -22.5 -72.501 -22.5c-17.333 0 -34 2.33301 -50 7s-30 12.5 -42 23.5s-21.667 26 -29 45s-11 43.167 -11 72.5v282c0 7.33301 -1.66699 13.333 -5 18s-8.33301 7 -15 7
h-30c-2 0 -3 0.833008 -3 2.5s1 2.5 3 2.5h117c2 0 3 -0.833008 3 -2.5s-1 -2.5 -3 -2.5h-30v-310c0 -31.333 2.83301 -56.166 8.5 -74.499s13.334 -32.166 23.001 -41.499s20.5 -15.333 32.5 -18s24 -4 36 -4c23.333 0 44.666 6.66699 63.999 20s36.5 31.166 51.5 53.499
s28 48 39 77s19.833 58.833 26.5 89.5l5 31c1.33301 8.66699 2.5 17.667 3.5 27s1.66699 19.666 2 30.999s0.5 25.666 0.5 42.999v71c0 6.66699 3.33301 10 10 10h17c6.66699 0 10 -3.33301 10 -10v-404zM265.999 639c7.33301 13.333 16 19.998 26 19.998
c8.66699 0 13 -3.66699 13 -11c0 -5.33301 -2 -10.166 -6 -14.499s-8 -8.16602 -12 -11.499l-52 -43h-3z" />
    <glyph glyph-name="ucircumflex" unicode="&#xfb;" horiz-adv-x="504" 
d="M430 41c0 -9.33301 2.49805 -17.666 7.49805 -24.999s12.5 -11 22.5 -11c8.66699 0 16 3 22 9s9 14.333 9 25c0 2 1 3 3 3s3 -1 3 -3c0 -15.333 -4.83301 -26.166 -14.5 -32.499s-21.5 -9.5 -35.5 -9.5c-17.333 0 -30.666 5.66699 -39.999 17s-14 27.333 -14 48v198
c-6 -34 -14.667 -66.833 -26 -98.5s-25.166 -59.834 -41.499 -84.501s-35.333 -44.5 -57 -59.5s-45.834 -22.5 -72.501 -22.5c-17.333 0 -34 2.33301 -50 7s-30.167 12.5 -42.5 23.5s-22.166 26 -29.499 45s-11 43.167 -11 72.5v282c0 7.33301 -1.5 13.333 -4.5 18
s-8.16699 7 -15.5 7h-29c-2 0 -3 0.833008 -3 2.5s1 2.5 3 2.5h116c2.66699 0 4 -0.833008 4 -2.5s-1.33301 -2.5 -4 -2.5h-29v-310c0 -31.333 2.83301 -56.166 8.5 -74.499s13.167 -32.166 22.5 -41.499s20 -15.333 32 -18s24.333 -4 37 -4c23.333 0 44.5 6.66699 63.5 20
s36 31.166 51 53.499s28 48 39 77s19.833 58.833 26.5 89.5c2 12 3.83301 22.333 5.5 31s3 17.667 4 27s1.66699 19.666 2 30.999s0.5 25.666 0.5 42.999v71c0 6.66699 3 10 9 10h17c7.33301 0 11 -3.33301 11 -10v-404zM246.998 626l-121 -85
c-2 -1.33301 -3.16699 -1.5 -3.5 -0.5s0.166992 2.16699 1.5 3.5l37.5 37.5l31 31l27 27.5l26.5 27c0.666992 0.666992 1.66699 0.666992 3 0l25.5 -27l27 -27.5l31.5 -31l38 -37.5c1.33301 -1.33301 1.5 -2.5 0.5 -3.5s-2.16699 -0.833008 -3.5 0.5z" />
    <glyph glyph-name="udieresis" unicode="&#xfc;" horiz-adv-x="507" 
d="M433 41c0 -9.33301 2.66602 -17.666 7.99902 -24.999s13 -11 23 -11c8 0 15 3 21 9s9 14.333 9 25c0 2 1 3 3 3s3 -1 3 -3c0 -15.333 -4.83301 -26.166 -14.5 -32.499s-21.5 -9.5 -35.5 -9.5c-17.333 0 -30.666 5.66699 -39.999 17s-14 27.333 -14 48v198
c-6 -34 -14.667 -66.833 -26 -98.5s-25.166 -59.834 -41.499 -84.501s-35.333 -44.5 -57 -59.5s-45.834 -22.5 -72.501 -22.5c-17.333 0 -34 2.33301 -50 7s-30 12.5 -42 23.5s-21.667 26 -29 45s-11 43.167 -11 72.5v282c0 7.33301 -1.66699 13.333 -5 18s-8.33301 7 -15 7
h-30c-2 0 -3 0.833008 -3 2.5s1 2.5 3 2.5h117c2 0 3 -0.833008 3 -2.5s-1 -2.5 -3 -2.5h-30v-310c0 -31.333 2.83301 -56.166 8.5 -74.499s13.334 -32.166 23.001 -41.499s20.5 -15.333 32.5 -18s24 -4 36 -4c23.333 0 44.666 6.66699 63.999 20s36.5 31.166 51.5 53.499
s28 48 39 77s19.833 58.833 26.5 89.5l5 31c1.33301 8.66699 2.5 17.667 3.5 27s1.66699 19.666 2 30.999s0.5 25.666 0.5 42.999v71c0 6.66699 3.33301 10 10 10h17c6.66699 0 10 -3.33301 10 -10v-404zM332.999 560c-7.33301 0 -13.5 2.5 -18.5 7.5s-7.5 11.167 -7.5 18.5
s2.5 13.5 7.5 18.5s11.167 7.5 18.5 7.5s13.5 -2.5 18.5 -7.5s7.5 -11.167 7.5 -18.5s-2.5 -13.5 -7.5 -18.5s-11.167 -7.5 -18.5 -7.5zM170.999 560c-7.33301 0 -13.5 2.5 -18.5 7.5s-7.5 11.167 -7.5 18.5s2.5 13.5 7.5 18.5s11.167 7.5 18.5 7.5s13.5 -2.5 18.5 -7.5
s7.5 -11.167 7.5 -18.5s-2.5 -13.5 -7.5 -18.5s-11.167 -7.5 -18.5 -7.5z" />
    <glyph glyph-name="yacute" unicode="&#xfd;" horiz-adv-x="488" 
d="M227 -31c-28 -74.667 -59.1689 -128 -93.502 -160s-73.5 -48 -117.5 -48c-11.333 0 -22.833 1.16699 -34.5 3.5s-22.334 5.66602 -32.001 9.99902s-17.667 9.33301 -24 15s-9.5 11.5 -9.5 17.5c0 5.33301 1.66699 9.5 5 12.5s7.66602 4.5 12.999 4.5
c4.66699 0 9.33398 -1.33301 14.001 -4c34.667 -19.333 66.667 -29 96 -29c22 0 41.833 4.16699 59.5 12.5s33.334 20 47.001 35s25.834 32.833 36.501 53.5s20.667 43.334 30 68.001l16 43c-2.66699 -1.33301 -4.66699 -2 -6 -2c-5.33301 0 -10.333 3.33301 -15 10
l-171 439h-55c-2 0 -3 0.666992 -3 2c0 2 1 3 3 3h154c2 0 3 -1 3 -3c0 -1.33301 -1 -2 -3 -2h-58l162 -417l132 356c2.66699 7.33301 4.33398 13.5 5.00098 18.5s1 9.5 1 13.5c0 12 -3.83301 19.833 -11.5 23.5s-17.167 5.5 -28.5 5.5h-20c-1.33301 0 -2 0.666992 -2 2
c0 2 0.666992 3 2 3h154c2 0 3 -1 3 -3c0 -1.33301 -1 -2 -3 -2h-25c-18 0 -32.167 -5.5 -42.5 -16.5s-18.833 -25.167 -25.5 -42.5zM240.998 639c7.33301 13.333 16 19.998 26 19.998c8.66699 0 13 -3.66699 13 -11c0 -5.33301 -2 -10.166 -6 -14.499
s-8 -8.16602 -12 -11.499l-52 -43h-3z" />
    <glyph glyph-name="thorn" unicode="&#xfe;" horiz-adv-x="516" 
d="M14 718c-2 0 -2.99707 0.829102 -2.99707 2.49609s1 2.5 3 2.5h84c2.66699 0 4.16699 -0.666992 4.5 -2s0.5 -2.33301 0.5 -3v-363c8 18.667 18 35 30 49s25.167 25.667 39.5 35s29.666 16.333 45.999 21s32.833 7 49.5 7c28 0 54.667 -4.66699 80 -14
s47.666 -23.166 66.999 -41.499s34.666 -41.666 45.999 -69.999s17 -61.5 17 -99.5v-11c0 -32.667 -4.33301 -63.167 -13 -91.5s-21.667 -53.166 -39 -74.499s-38.666 -38.166 -63.999 -50.499s-54.333 -18.5 -87 -18.5c-17.333 0 -34.333 1.83301 -51 5.5
s-32.5 10 -47.5 19s-28.833 21 -41.5 36s-23.334 33.833 -32.001 56.5v-348c0 -6.66699 3.33301 -10 10 -10h29c2 0 3 -0.833008 3 -2.5s-1 -2.5 -3 -2.5h-116c-2 0 -3 0.833008 -3 2.5s1 2.5 3 2.5h30c6.66699 0 10 3.33301 10 10v928c0 16.667 -7 25 -21 25h-31z
M268.003 461.996c-39.333 0 -73.665 -11.333 -102.998 -34s-50 -54 -62 -94v-198c11.333 -40 30.833 -72.5 58.5 -97.5s65.5 -37.5 113.5 -37.5c28.667 0 53.167 5.83301 73.5 17.5s37.166 27.667 50.499 48s23.166 44.5 29.499 72.5s9.5 58.667 9.5 92v11
c0 40 -4.66699 74 -14 102s-22 50.667 -38 68s-34.167 30 -54.5 38s-41.5 12 -63.5 12z" />
    <glyph glyph-name="ydieresis" unicode="&#xff;" horiz-adv-x="484" 
d="M223 -31c-28 -74.667 -59.1689 -128 -93.502 -160s-73.5 -48 -117.5 -48c-11.333 0 -22.833 1.16699 -34.5 3.5s-22.334 5.66602 -32.001 9.99902s-17.667 9.33301 -24 15s-9.5 11.5 -9.5 17.5c0 5.33301 1.66699 9.5 5 12.5s7.66602 4.5 12.999 4.5
c4.66699 0 9.33398 -1.33301 14.001 -4c34.667 -19.333 66.667 -29 96 -29c22 0 41.833 4.16699 59.5 12.5s33.334 20 47.001 35s25.834 32.833 36.501 53.5s20.667 43.334 30 68.001l16 43c-2.66699 -1.33301 -4.66699 -2 -6 -2c-5.33301 0 -10.333 3.33301 -15 10
l-171 439h-55c-2 0 -3 0.666992 -3 2c0 2 1 3 3 3h154c2 0 3 -1 3 -3c0 -1.33301 -1 -2 -3 -2h-58l162 -417l132 356c2.66699 7.33301 4.33398 13.5 5.00098 18.5s1 9.5 1 13.5c0 12 -3.83301 19.833 -11.5 23.5s-17.167 5.5 -28.5 5.5h-20c-1.33301 0 -2 0.666992 -2 2
c0 2 0.666992 3 2 3h154c2 0 3 -1 3 -3c0 -1.33301 -1 -2 -3 -2h-25c-18 0 -32.167 -5.5 -42.5 -16.5s-18.833 -25.167 -25.5 -42.5zM320.998 560c-7.33301 0 -13.5 2.5 -18.5 7.5s-7.5 11.167 -7.5 18.5s2.5 13.5 7.5 18.5s11.167 7.5 18.5 7.5s13.5 -2.5 18.5 -7.5
s7.5 -11.167 7.5 -18.5s-2.5 -13.5 -7.5 -18.5s-11.167 -7.5 -18.5 -7.5zM158.998 560c-7.33301 0 -13.5 2.5 -18.5 7.5s-7.5 11.167 -7.5 18.5s2.5 13.5 7.5 18.5s11.167 7.5 18.5 7.5s13.5 -2.5 18.5 -7.5s7.5 -11.167 7.5 -18.5s-2.5 -13.5 -7.5 -18.5
s-11.167 -7.5 -18.5 -7.5z" />
    <glyph glyph-name="Amacron" unicode="&#x100;" horiz-adv-x="632" 
d="M260 687c-2.66699 0 -4 1 -4 3c0 2.66699 1.33301 4 4 4h88l257 -687h54c2.66699 0 4 -1.33301 4 -4c0 -2 -1.33301 -3 -4 -3h-152c-2.66699 0 -4 1 -4 3c0 2.66699 1.33301 4 4 4h56l-105 281h-292l-103 -281h55c2.66699 0 4 -1.33301 4 -4c0 -2 -1.33301 -3 -4 -3h-115
c-2.66699 0 -4 1 -4 3c0 2.66699 1.33301 4 4 4h52l248 680h-43zM168 295h287l-146 388zM177 793h278v-7h-278v7z" />
    <glyph glyph-name="amacron" unicode="&#x101;" horiz-adv-x="460" 
d="M349 253c-4.66699 -32.667 -12.501 -64.5059 -23.501 -95.5059s-25.167 -58.5 -42.5 -82.5s-37.5 -43.333 -60.5 -58s-48.5 -22 -76.5 -22c-37.333 0 -66 9.66699 -86 29s-30 44.666 -30 75.999c0 26.667 6.83301 47.667 20.5 63s31.334 27.833 53.001 37.5
s46.167 17.834 73.5 24.501s54.666 14.667 81.999 24c20.667 6.66699 37 13.834 49 21.501s21.167 16.167 27.5 25.5s10.333 19.333 12 30s2.5 22.667 2.5 36c0 12 -2.16699 23.833 -6.5 35.5s-11 22.334 -20 32.001s-20.667 17.5 -35 23.5s-31.833 9 -52.5 9
c-20 0 -37.667 -3 -53 -9s-28.166 -13.667 -38.499 -23s-18.333 -20.166 -24 -32.499s-8.5 -24.833 -8.5 -37.5c0 -6.66699 1.16699 -13.334 3.5 -20.001s3.5 -13 3.5 -19c0 -6.66699 -2.16699 -12 -6.5 -16s-9.16602 -6 -14.499 -6c-6.66699 0 -12.167 3 -16.5 9
s-6.5 15.667 -6.5 29c0 18 4 34.833 12 50.5s19.333 29.334 34 41.001s31.667 21 51 28s40.666 10.5 63.999 10.5c26 0 48.5 -3.16699 67.5 -9.5s34.5 -14.666 46.5 -24.999s21 -22.5 27 -36.5s9 -28.333 9 -43v-312c0 -9.33301 2.83301 -17.666 8.5 -24.999
s13.5 -11 23.5 -11c8 0 15 3 21 9s9 14.333 9 25c0 2 0.666992 3 2 3c2 0 3 -1 3 -3c0 -15.333 -4.66699 -26.166 -14 -32.499s-21 -9.5 -35 -9.5c-17.333 0 -30.833 5.66699 -40.5 17s-14.5 27.333 -14.5 48v191zM152.999 3.99414c31.333 0 59.166 10.002 83.499 30.002
s44.833 45.167 61.5 75.5s29.334 63.5 38.001 99.5s13 70 13 102c-4 -14.667 -12.167 -26.834 -24.5 -36.501s-32.5 -19.5 -60.5 -29.5c-19.333 -6.66699 -40.166 -12.834 -62.499 -18.501s-43 -13.334 -62 -23.001s-35 -22.167 -48 -37.5s-19.5 -36.333 -19.5 -63v-9
c0 -25.333 7.16699 -46.666 21.5 -63.999s34.166 -26 59.499 -26zM100.999 555.996h278v-7h-278v7z" />
    <glyph glyph-name="Abreve" unicode="&#x102;" horiz-adv-x="641" 
d="M260 687c-2.66699 0 -4 1 -4 3c0 2.66699 1.33301 4 4 4h88l257 -687h54c2.66699 0 4 -1.33301 4 -4c0 -2 -1.33301 -3 -4 -3h-152c-2.66699 0 -4 1 -4 3c0 2.66699 1.33301 4 4 4h56l-105 281h-292l-103 -281h55c2.66699 0 4 -1.33301 4 -4c0 -2 -1.33301 -3 -4 -3h-115
c-2.66699 0 -4 1 -4 3c0 2.66699 1.33301 4 4 4h52l248 680h-43zM168 295h287l-146 388zM313 769c-10.667 0 -21.1709 2.33398 -31.5039 7.00098s-19.666 11.5 -27.999 20.5s-15.166 20 -20.499 33s-8 27.833 -8 44.5c0 4 1.16699 7.33301 3.5 10s5 4.16699 8 4.5
s5.83301 -0.666992 8.5 -3s4 -6.16602 4 -11.499c0 -3.33301 -1 -6.5 -3 -9.5l-6 -9c-2 -3 -3.66699 -5.83301 -5 -8.5s-1 -5.33398 1 -8.00098c6 -11.333 15.667 -20.5 29 -27.5s29.333 -10.5 48 -10.5h4c18.667 0 34.667 3.5 48 10.5s23 16.167 29 27.5
c1.33301 2.66699 1.5 5.33398 0.5 8.00098s-2.5 5.5 -4.5 8.5l-6 9c-2 3 -3 6.16699 -3 9.5c0 5.33301 1.16699 9.16602 3.5 11.499s5 3.5 8 3.5s5.83301 -1.33301 8.5 -4s4 -6.33398 4 -11.001c0 -16.667 -2.66699 -31.5 -8 -44.5s-12.166 -24 -20.499 -33
s-17.666 -15.833 -27.999 -20.5s-20.833 -7 -31.5 -7h-4z" />
    <glyph glyph-name="abreve" unicode="&#x103;" 
d="M352 253c-4.66699 -32.667 -12.667 -64.5059 -24 -95.5059s-25.666 -58.5 -42.999 -82.5s-37.5 -43.333 -60.5 -58s-48.5 -22 -76.5 -22c-37.333 0 -66 9.66699 -86 29s-30 44.666 -30 75.999c0 26.667 6.83301 47.667 20.5 63s31.334 27.833 53.001 37.5
s46.167 17.834 73.5 24.501s54.666 14.667 81.999 24c20.667 6.66699 37.167 13.834 49.5 21.501s21.666 16.167 27.999 25.5s10.333 19.333 12 30s2.5 22.667 2.5 36c0 12 -2.16699 23.833 -6.5 35.5s-11.166 22.334 -20.499 32.001s-21.166 17.5 -35.499 23.5
s-31.833 9 -52.5 9c-19.333 0 -36.666 -3 -51.999 -9s-28.333 -13.667 -39 -23s-18.834 -20.166 -24.501 -32.499s-8.5 -24.833 -8.5 -37.5c0 -6.66699 1.33301 -13.334 4 -20.001s4 -13 4 -19c0 -6.66699 -2.16699 -12 -6.5 -16s-9.16602 -6 -14.499 -6
c-15.333 0 -23 12.667 -23 38c0 18 4 34.833 12 50.5s19.167 29.334 33.5 41.001s31.166 21 50.499 28s40.666 10.5 63.999 10.5c26 0 48.5 -3.16699 67.5 -9.5s34.667 -14.666 47 -24.999s21.5 -22.5 27.5 -36.5s9 -28.333 9 -43v-312
c0 -9.33301 2.66699 -17.666 8 -24.999s13 -11 23 -11c8.66699 0 16 3 22 9s9 14.333 9 25c0 2 0.666992 3 2 3c2 0 3 -1 3 -3c0 -15.333 -4.66699 -26.166 -14 -32.499s-21.333 -9.5 -36 -9.5c-16.667 0 -29.834 5.66699 -39.501 17s-14.5 27.333 -14.5 48v191z
M155 3.99414c31.333 0 59.3291 10.002 83.9961 30.002s45.334 45.167 62.001 75.5s29.334 63.5 38.001 99.5s13 70 13 102c-4.66699 -14.667 -13.167 -26.834 -25.5 -36.501s-32.166 -19.5 -59.499 -29.5c-19.333 -6.66699 -40.166 -12.834 -62.499 -18.501
s-43.166 -13.334 -62.499 -23.001s-35.5 -22.167 -48.5 -37.5s-19.5 -36.333 -19.5 -63v-9c0 -25.333 7.16699 -46.666 21.5 -63.999s34.166 -26 59.499 -26zM228.996 531.996c-10.667 0 -21.1699 2.33398 -31.5029 7.00098s-19.666 11.5 -27.999 20.5s-15 20 -20 33
s-7.5 27.833 -7.5 44.5c0 4 1.16699 7.33301 3.5 10s5 4.16699 8 4.5s5.83301 -0.666992 8.5 -3s4 -6.16602 4 -11.499c0 -3.33301 -1 -6.5 -3 -9.5l-6 -9c-2 -3 -3.66699 -5.83301 -5 -8.5s-1.33301 -5.33398 0 -8.00098c6.66699 -11.333 16.5 -20.5 29.5 -27.5
s28.833 -10.5 47.5 -10.5h4c19.333 0 35.5 3.5 48.5 10.5s22.833 16.167 29.5 27.5c1.33301 2.66699 1.33301 5.33398 0 8.00098s-3 5.5 -5 8.5l-6 9c-2 3 -3 6.16699 -3 9.5c0 5.33301 1.16699 9.16602 3.5 11.499s5 3.5 8 3.5s5.83301 -1.33301 8.5 -4
s4 -6.33398 4 -11.001c0 -16.667 -2.66699 -31.5 -8 -44.5s-12.166 -24 -20.499 -33s-17.666 -15.833 -27.999 -20.5s-20.833 -7 -31.5 -7h-4z" />
    <glyph glyph-name="Aogonek" unicode="&#x104;" horiz-adv-x="632" 
d="M624 -136l2 0.99707c0.666992 0 1 0.333008 1 1c0.666992 0 1 -0.333008 1 -1c0 -2 -1.66699 -4.16699 -5 -6.5s-7.5 -4.66602 -12.5 -6.99902s-10.333 -4.33301 -16 -6s-11.167 -2.5 -16.5 -2.5c-6.66699 0 -14.5 0.833008 -23.5 2.5s-17.667 4.83398 -26 9.50098
s-15.333 11.167 -21 19.5s-8.5 19.5 -8.5 33.5c0 24.667 7.66699 44.334 23 59.001s32 25.667 50 33h-65c-2.66699 0 -4 1 -4 3c0 2.66699 1.33301 4 4 4h56l-105 281h-292l-103 -281h55c2.66699 0 4 -1.33301 4 -4c0 -2 -1.33301 -3 -4 -3h-115c-2.66699 0 -4 1 -4 3
c0 2.66699 1.33301 4 4 4h52l105 287l72 196.5l71 196.5h-43c-2.66699 0 -4 1 -4 3c0 2.66699 1.33301 4 4 4h88l257 -687h54c2.66699 0 4 -1.33301 4 -4c0 -2 -1.33301 -3 -4 -3h-77c-18 -9.33301 -30.333 -23.333 -37 -42s-10 -35.667 -10 -51c0 -38 16.333 -57 49 -57
c14 0 27.333 4.66699 40 14zM168 294.997h287l-146 388z" />
    <glyph glyph-name="aogonek" unicode="&#x105;" horiz-adv-x="460" 
d="M435 -140l1.99805 0.994141c0.666992 0 1 0.333008 1 1c0.666992 0 1 -0.333008 1 -1c0 -2 -1.66699 -4.16699 -5 -6.5s-7.5 -4.66602 -12.5 -6.99902s-10.333 -4.33301 -16 -6s-11.167 -2.5 -16.5 -2.5c-6.66699 0 -14.5 0.833008 -23.5 2.5
s-17.667 4.83398 -26 9.50098s-15.333 11.167 -21 19.5s-8.5 19.5 -8.5 33.5c0 13.333 2.33301 25 7 35s10.667 18.833 18 26.5s15.833 14.167 25.5 19.5s19.167 10 28.5 14c-15.333 3.33301 -25.833 12 -31.5 26s-8.5 32.667 -8.5 56v172
c-4.66699 -32.667 -12.5 -64.5 -23.5 -95.5s-25.167 -58.5 -42.5 -82.5s-37.5 -43.333 -60.5 -58s-48.5 -22 -76.5 -22c-38 0 -66.833 9.66699 -86.5 29s-29.5 44.666 -29.5 75.999c0 26.667 6.66699 47.834 20 63.501s30.833 28.334 52.5 38.001s46.167 17.667 73.5 24
s55 14.166 83 23.499c20 6.66699 36 13.834 48 21.501s21.167 16.167 27.5 25.5s10.5 19.5 12.5 30.5s3 22.833 3 35.5c0 11.333 -1.83301 22.833 -5.5 34.5s-10 22.334 -19 32.001s-20.667 17.667 -35 24s-32.5 9.5 -54.5 9.5c-19.333 0 -36.666 -2.83301 -51.999 -8.5
s-28.333 -13.167 -39 -22.5s-18.667 -20 -24 -32s-8 -24.333 -8 -37c0 -5.33301 0.5 -10.5 1.5 -15.5s1.5 -10.167 1.5 -15.5c0 -8.66699 -1.16699 -16 -3.5 -22s-7.5 -9 -15.5 -9c-6 0 -11.333 2.66699 -16 8s-7 14.333 -7 27c0 18 4 35 12 51s19.167 30 33.5 42
s31.5 21.5 51.5 28.5s41.667 10.5 65 10.5c26 0 48.5 -3.16699 67.5 -9.5s34.5 -14.666 46.5 -24.999s21 -22.5 27 -36.5s9 -28.333 9 -43v-312c0 -9.33301 2.66699 -17.666 8 -24.999s13 -11 23 -11c8 0 15 3 21 9s9 14.333 9 25c0 2 1 3 3 3s3 -1 3 -3
c0 -15.333 -4.83301 -26.166 -14.5 -32.499s-21.5 -9.5 -35.5 -9.5h-8c-9.33301 -4 -17.166 -9.83301 -23.499 -17.5s-11.333 -15.834 -15 -24.501s-6.33398 -17.5 -8.00098 -26.5s-2.5 -17.5 -2.5 -25.5c0 -17.333 4.33301 -31.333 13 -42s20.334 -16 35.001 -16
c15.333 0 29 5 41 15zM152.998 3.99414c28.667 0 54.165 8.00195 76.498 24.002s41.5 36.833 57.5 62.5s28.833 54.167 38.5 85.5s16.5 62.333 20.5 93l3 42c-4.66699 -14.667 -13 -26.834 -25 -36.501s-32 -19.5 -60 -29.5
c-19.333 -6.66699 -40.166 -12.834 -62.499 -18.501s-43.166 -13.334 -62.499 -23.001s-35.5 -22.167 -48.5 -37.5s-19.5 -36.333 -19.5 -63v-9c0 -25.333 7.33301 -46.666 22 -63.999s34.667 -26 60 -26z" />
    <glyph glyph-name="Cacute" unicode="&#x106;" horiz-adv-x="599" 
d="M339 -16c-41.333 0 -79.8291 7.33496 -115.496 22.002s-67 37.167 -94 67.5s-48.167 68.833 -63.5 115.5s-23 101.667 -23 165c0 60 8.5 112.167 25.5 156.5s39.5 81.166 67.5 110.499s60.333 51.166 97 65.499s75 21.5 115 21.5c29.333 0 57.166 -3.83301 83.499 -11.5
s49.166 -18 68.499 -31s34.666 -28.333 45.999 -46s16.666 -36.167 15.999 -55.5c-0.666992 -12 -3.83398 -20.667 -9.50098 -26s-11.667 -7.66602 -18 -6.99902s-11.666 4 -15.999 10s-5.5 14.333 -3.5 25c2.66699 16.667 1 33.167 -5 49.5s-16 30.666 -30 42.999
s-32 22.5 -54 30.5s-47.333 12 -76 12h-2c-36 0 -69.667 -6.33301 -101 -19s-58.666 -33 -81.999 -61s-41.833 -64 -55.5 -108s-20.5 -97 -20.5 -159c0 -67.333 6.33301 -124 19 -170s30.334 -83.5 53.001 -112.5s49.167 -49.833 79.5 -62.5s63.166 -19 98.499 -19
c30 0 57 4.5 81 13.5s44 20.667 60 35s27.667 30.333 35 48s9.66602 35.167 6.99902 52.5c-2 10 -0.666992 18 4 24s10.167 9.16699 16.5 9.5s12.333 -2 18 -7s8.5 -13.167 8.5 -24.5c0 -19.333 -6.33301 -38.5 -19 -57.5s-29.5 -35.833 -50.5 -50.5
s-45.5 -26.5 -73.5 -35.5s-57 -13.5 -87 -13.5zM344.004 876.002c7.33301 13.333 16 19.998 26 19.998c8.66699 0 13 -3.66699 13 -11c0 -5.33301 -2 -10.166 -6 -14.499s-8 -8.16602 -12 -11.499l-52 -43h-3z" />
    <glyph glyph-name="cacute" unicode="&#x107;" horiz-adv-x="452" 
d="M251 462c-23.333 0 -45.4961 -4.50488 -66.4961 -13.5049s-39.333 -22.667 -55 -41s-28 -41.666 -37 -69.999s-13.5 -61.833 -13.5 -100.5v-11c0 -33.333 2.83301 -63.833 8.5 -91.5s15 -51.5 28 -71.5s30.333 -35.667 52 -47s48.5 -17 80.5 -17
c25.333 0 47.333 4.5 66 13.5s33.5 20.333 44.5 34s18.333 28.667 22 45s3.16699 31.833 -1.5 46.5c-2.66699 6.66699 -2.33398 12.334 0.999023 17.001s7.66602 7.5 12.999 8.5s10.5 -0.333008 15.5 -4s7.83301 -10.167 8.5 -19.5
c1.33301 -18 -2.33398 -35.833 -11.001 -53.5s-20.834 -33.167 -36.501 -46.5s-34 -24.166 -55 -32.499s-42.833 -12.5 -65.5 -12.5c-36.667 0 -68.167 5.83301 -94.5 17.5s-48.166 27.834 -65.499 48.501s-30.166 45.167 -38.499 73.5s-12.5 58.833 -12.5 91.5v11
c0 38 6.33301 71.333 19 100s29.167 52.667 49.5 72s43.166 33.833 68.499 43.5s50.666 14.5 75.999 14.5h7c24 0 46 -3 66 -9s37 -14.5 51 -25.5s24.667 -24.167 32 -39.5s10 -32 8 -50c-1.33301 -10 -4.5 -16.833 -9.5 -20.5s-10.167 -5 -15.5 -4
s-9.83301 3.83301 -13.5 8.5s-4.16699 10.334 -1.5 17.001c5.33301 14 6.83301 28.167 4.5 42.5s-8.5 27 -18.5 38s-23.5 20 -40.5 27s-37.833 10.5 -62.5 10.5h-7zM248.004 638.995c7.33301 13.333 16 19.998 26 19.998c8.66699 0 13 -3.66699 13 -11
c0 -5.33301 -2 -10.166 -6 -14.499s-8 -8.16602 -12 -11.499l-52 -43h-3z" />
    <glyph glyph-name="Ccircumflex" unicode="&#x108;" horiz-adv-x="599" 
d="M339 -16c-41.333 0 -79.8291 7.33496 -115.496 22.002s-67 37.167 -94 67.5s-48.167 68.833 -63.5 115.5s-23 101.667 -23 165c0 60 8.5 112.167 25.5 156.5s39.5 81.166 67.5 110.499s60.333 51.166 97 65.499s75 21.5 115 21.5c29.333 0 57.166 -3.83301 83.499 -11.5
s49.166 -18 68.499 -31s34.666 -28.333 45.999 -46s16.666 -36.167 15.999 -55.5c-0.666992 -12 -3.83398 -20.667 -9.50098 -26s-11.667 -7.66602 -18 -6.99902s-11.666 4 -15.999 10s-5.5 14.333 -3.5 25c2.66699 16.667 1 33.167 -5 49.5s-16 30.666 -30 42.999
s-32 22.5 -54 30.5s-47.333 12 -76 12h-2c-36 0 -69.667 -6.33301 -101 -19s-58.666 -33 -81.999 -61s-41.833 -64 -55.5 -108s-20.5 -97 -20.5 -159c0 -67.333 6.33301 -124 19 -170s30.334 -83.5 53.001 -112.5s49.167 -49.833 79.5 -62.5s63.166 -19 98.499 -19
c30 0 57 4.5 81 13.5s44 20.667 60 35s27.667 30.333 35 48s9.66602 35.167 6.99902 52.5c-2 10 -0.666992 18 4 24s10.167 9.16699 16.5 9.5s12.333 -2 18 -7s8.5 -13.167 8.5 -24.5c0 -19.333 -6.33301 -38.5 -19 -57.5s-29.5 -35.833 -50.5 -50.5
s-45.5 -26.5 -73.5 -35.5s-57 -13.5 -87 -13.5zM345.004 863.002l-120 -85c-2.66699 -1.33301 -4.16699 -1.5 -4.5 -0.5s0.166992 2.16699 1.5 3.5l38 37.5l31 31l27 27.5l26 27c0.666992 0.666992 1.66699 0.666992 3 0l26 -27l27 -27.5l31 -31l38 -37.5
c1.33301 -1.33301 1.5 -2.5 0.5 -3.5s-2.16699 -0.833008 -3.5 0.5z" />
    </font>
</defs>
</svg>
